SplineFontDB: 3.0
FontName: Petrona-Regular
FullName: Petrona Regular
FamilyName: Petrona
Weight: Book
Copyright: Copyright (c) 2011, Huerta Tipografica (www.huertatipografica.com.ar), with Reserved Font Names "Petrona", "Petrona Pro" and "Petrona HT". All rights reserved.
Version: 1.002
ItalicAngle: 0
UnderlinePosition: -25
UnderlineWidth: 50
Ascent: 800
Descent: 200
sfntRevision: 0x00010083
LayerCount: 2
Layer: 0 1 "Back"  1
Layer: 1 1 "Fore"  0
XUID: [1021 288 713564382 15117634]
FSType: 0
OS2Version: 3
OS2_WeightWidthSlopeOnly: 0
OS2_UseTypoMetrics: 1
CreationTime: 1318645320
ModificationTime: 1319828368
PfmFamily: 17
TTFWeight: 400
TTFWidth: 5
LineGap: 0
VLineGap: 0
Panose: 2 0 5 3 2 0 0 2 0 3
OS2TypoAscent: 858
OS2TypoAOffset: 0
OS2TypoDescent: -270
OS2TypoDOffset: 0
OS2TypoLinegap: 0
OS2WinAscent: 858
OS2WinAOffset: 0
OS2WinDescent: 270
OS2WinDOffset: 0
HheadAscent: 858
HheadAOffset: 0
HheadDescent: -270
HheadDOffset: 0
OS2SubXSize: 650
OS2SubYSize: 600
OS2SubXOff: 0
OS2SubYOff: 75
OS2SupXSize: 650
OS2SupYSize: 600
OS2SupXOff: 0
OS2SupYOff: 350
OS2StrikeYSize: 50
OS2StrikeYPos: 265
OS2FamilyClass: 1793
OS2Vendor: '    '
OS2CodePages: 20000001.00000000
OS2UnicodeRanges: 800000af.5000204b.00000000.00000000
Lookup: 258 0 0 "'kern' Horizontal Kerning lookup 0"  {"'kern' Horizontal Kerning lookup 0 per glyph data 0"  "'kern' Horizontal Kerning lookup 0 per glyph data 1"  "'kern' Horizontal Kerning lookup 0 per glyph data 2"  "'kern' Horizontal Kerning lookup 0 kerning class 3"  } ['kern' ('DFLT' <'dflt' > ) ]
MarkAttachClasses: 1
DEI: 91125
KernClass2: 31+ 28 "'kern' Horizontal Kerning lookup 0 kerning class 3" 
 50 A Agrave Aacute Acircumflex Atilde Adieresis Aring
 10 C Ccedilla
 5 D Eth
 43 E AE Egrave Eacute Ecircumflex Edieresis OE
 39 H I Igrave Iacute Icircumflex Idieresis
 8 L Lslash
 8 N Ntilde
 53 O Q Ograve Oacute Ocircumflex Otilde Odieresis Oslash
 8 S Scaron
 37 U Ugrave Uacute Ucircumflex Udieresis
 18 Y Yacute Ydieresis
 8 Z Zcaron

StartChar: exclam
Encoding: 33 33 4
Width: 247
GlyphClass: 2
Flags: HW
LayerCount: 2
Fore
SplineSet
85.5 1.5 m 128,-1,1
 72 15 72 15 72 37.5 c 128,-1,2
 72 60 72 60 87.5 75 c 128,-1,3
 103 90 103 90 123 90 c 0,4,5
 175 90 175 90 175 39 c 0,6,7
 175 18 175 18 159.5 3 c 128,-1,8
 144 -12 144 -12 121.5 -12 c 128,-1,0
 99 -12 99 -12 85.5 1.5 c 128,-1,1
73 587 m 0,9,10
 73 655 73 655 123 655 c 128,-1,11
 173 655 173 655 173 587 c 0,12,13
 173 560 173 560 147 185 c 1,14,15
 137 178 137 178 123 178 c 128,-1,16
 109 178 109 178 99 185 c 1,17,18
 73 560 73 560 73 587 c 0,9,10
EndSplineSet
EndChar

StartChar: quotedbl
Encoding: 34 34 5
Width: 291
GlyphClass: 2
Flags: HW
LayerCount: 2
Fore
SplineSet
38 675 m 0,0,1
 38 725 38 725 79.5 725 c 0,2,3
 121 725 121 725 121 675 c 0,4,5
 121 664 121 664 97 475 c 1,6,7
 90 470 90 470 79 470 c 0,8,9
 68 470 68 470 63 475 c 1,10,11
 38 671 38 671 38 675 c 0,0,1
169 675 m 0,12,13
 169 725 169 725 210.5 725 c 0,14,15
 252 725 252 725 252 675 c 0,16,17
 252 664 252 664 228 475 c 1,18,19
 221 470 221 470 210 470 c 0,20,21
 199 470 199 470 194 475 c 1,22,23
 169 671 169 671 169 675 c 0,12,13
EndSplineSet
EndChar

StartChar: numbersign
Encoding: 35 35 6
Width: 548
GlyphClass: 2
Flags: HW
LayerCount: 2
Fore
SplineSet
53 185 m 1,0,1
 40 193 40 193 40 211.5 c 128,-1,2
 40 230 40 230 43 236 c 1,3,-1
 163 236 l 1,4,-1
 180 343 l 1,5,-1
 82 343 l 1,6,7
 69 351 69 351 69 369.5 c 128,-1,8
 69 388 69 388 72 394 c 1,9,-1
 189 394 l 1,10,-1
 208 514 l 1,11,12
 245 514 245 514 259 493 c 1,13,-1
 243 394 l 1,14,-1
 339 394 l 1,15,-1
 358 514 l 1,16,17
 395 514 395 514 409 493 c 1,18,-1
 393 394 l 1,19,-1
 494 394 l 1,20,21
 508 385 508 385 508 367 c 128,-1,22
 508 349 508 349 505 343 c 1,23,-1
 385 343 l 1,24,-1
 368 236 l 1,25,-1
 465 236 l 1,26,27
 479 227 479 227 479 209 c 128,-1,28
 479 191 479 191 476 185 c 1,29,-1
 359 185 l 1,30,-1
 340 65 l 1,31,32
 303 65 303 65 289 86 c 1,33,-1
 305 185 l 1,34,-1
 209 185 l 1,35,-1
 190 65 l 1,36,37
 153 65 153 65 139 86 c 1,38,-1
 155 185 l 1,39,-1
 53 185 l 1,0,1
218 236 m 1,40,-1
 313 236 l 1,41,-1
 330 343 l 1,42,-1
 235 343 l 1,43,-1
 218 236 l 1,40,-1
EndSplineSet
EndChar

StartChar: dollar
Encoding: 36 36 7
Width: 502
GlyphClass: 2
Flags: HW
LayerCount: 2
Fore
SplineSet
49 45 m 1,0,-1
 64 164 l 1,1,2
 80 178 80 178 93.5 178 c 128,-1,3
 107 178 107 178 115 176 c 1,4,-1
 126 69 l 1,5,6
 178 38 178 38 230 34 c 1,7,-1
 230 261 l 1,8,9
 191 276 191 276 171 285.5 c 128,-1,10
 151 295 151 295 124 314.5 c 0,11,12
 73 351.333333333 73 351.333333333 73 418.166666667 c 128,-1,13
 73 485 73 485 115 530 c 128,-1,14
 157 575 157 575 230 581 c 1,15,-1
 230 655 l 1,16,17
 259 655 259 655 269 645 c 1,18,-1
 269 581 l 1,19,20
 330.497206704 575.234636872 330.497206704 575.234636872 376 554 c 2,21,-1
 425 531 l 1,22,-1
 407 411 l 1,23,24
 371 411 371 411 365 428 c 1,25,-1
 351 503 l 1,26,27
 317 531 317 531 269 536 c 1,28,-1
 269 332 l 1,29,30
 359 298 359 298 389 278 c 1,31,32
 451 234 451 234 451 162 c 128,-1,33
 451 90 451 90 402.5 41 c 128,-1,34
 354 -8 354 -8 269 -12 c 1,35,-1
 269 -88 l 1,36,37
 244 -88 244 -88 230 -78 c 1,38,-1
 230 -11 l 1,39,40
 146 -5 146 -5 49 45 c 1,0,-1
145 443 m 0,41,42
 145 408 145 408 166.5 386.5 c 128,-1,43
 188 365 188 365 230 347 c 1,44,-1
 230 536 l 1,45,46
 145 524 145 524 145 443 c 0,41,42
269 36 m 1,47,48
 315 41 315 41 342.5 67.5 c 128,-1,49
 370 94 370 94 370 136.5 c 128,-1,50
 370 179 370 179 344 203 c 128,-1,51
 318 227 318 227 269 246 c 1,52,-1
 269 36 l 1,47,48
EndSplineSet
EndChar

StartChar: percent
Encoding: 37 37 8
Width: 693
GlyphClass: 2
Flags: HW
LayerCount: 2
Fore
SplineSet
77 386 m 128,-1,1
 44 426 44 426 44 485.5 c 128,-1,2
 44 545 44 545 82 596.5 c 128,-1,3
 120 648 120 648 183 648 c 128,-1,4
 246 648 246 648 278 609 c 128,-1,5
 310 570 310 570 310 508.5 c 128,-1,6
 310 447 310 447 272.5 396.5 c 128,-1,7
 235 346 235 346 172.5 346 c 128,-1,0
 110 346 110 346 77 386 c 128,-1,1
49 15 m 1,8,-1
 597 655 l 1,9,10
 636 655 636 655 647 628 c 1,11,-1
 99 -12 l 1,12,13
 60 -12 60 -12 49 15 c 1,8,-1
128.5 588 m 128,-1,15
 111 555 111 555 111 501.5 c 128,-1,16
 111 448 111 448 129 410.5 c 128,-1,17
 147 373 147 373 178 373 c 128,-1,18
 209 373 209 373 226.5 406.5 c 128,-1,19
 244 440 244 440 244 492.5 c 128,-1,20
 244 545 244 545 226 583 c 128,-1,21
 208 621 208 621 177 621 c 128,-1,14
 146 621 146 621 128.5 588 c 128,-1,15
414 45 m 128,-1,23
 381 85 381 85 381 144.5 c 128,-1,24
 381 204 381 204 419 255.5 c 128,-1,25
 457 307 457 307 520 307 c 128,-1,26
 583 307 583 307 615 268 c 128,-1,27
 647 229 647 229 647 167.5 c 128,-1,28
 647 106 647 106 609.5 55.5 c 128,-1,29
 572 5 572 5 509.5 5 c 128,-1,22
 447 5 447 5 414 45 c 128,-1,23
465.5 247 m 128,-1,31
 448 214 448 214 448 160.5 c 128,-1,32
 448 107 448 107 466 69.5 c 128,-1,33
 484 32 484 32 515 32 c 128,-1,34
 546 32 546 32 563.5 65.5 c 128,-1,35
 581 99 581 99 581 151.5 c 128,-1,36
 581 204 581 204 563 242 c 128,-1,37
 545 280 545 280 514 280 c 128,-1,30
 483 280 483 280 465.5 247 c 128,-1,31
EndSplineSet
EndChar

StartChar: ampersand
Encoding: 38 38 9
Width: 701
GlyphClass: 2
Flags: HW
LayerCount: 2
Fore
SplineSet
49 166 m 0,0,1
 49 270 49 270 204 358 c 1,2,3
 171.875 390.125 171.875 390.125 149.9375 425.5625 c 128,-1,4
 128 461 128 461 122 482.5 c 128,-1,5
 116 504 116 504 116 526 c 0,6,7
 116 583 116 583 156.5 619 c 128,-1,8
 197 655 197 655 261.5 655 c 128,-1,9
 326 655 326 655 369 622 c 128,-1,10
 412 589 412 589 412 526 c 0,11,12
 412 432 412 432 291 362 c 1,13,-1
 460 173 l 1,14,15
 486 258 486 258 487 398 c 1,16,-1
 428 403 l 1,17,18
 428 437 428 437 447 446 c 1,19,-1
 654 462 l 1,20,21
 663 452 663 452 663 436.5 c 128,-1,22
 663 421 663 421 645.5 405 c 128,-1,23
 628 389 628 389 598 389 c 1,24,-1
 558 392 l 1,25,26
 558 239 558 239 501 131 c 1,27,28
 550 82 550 82 580.5 65.5 c 128,-1,29
 611 49 611 49 663 35 c 1,30,31
 663 -12 663 -12 594 -12 c 0,32,33
 555 -12 555 -12 522.5 6 c 128,-1,34
 490 24 490 24 453 63 c 1,35,36
 381 -12 381 -12 264 -12 c 0,37,38
 143.445783133 -12 143.445783133 -12 82.5 63.5 c 0,39,40
 49 105 49 105 49 166 c 0,0,1
164.5 271 m 128,-1,42
 142 240 142 240 142 185.5 c 128,-1,43
 142 131 142 131 188 84 c 128,-1,44
 234 37 234 37 294 37 c 0,45,46
 379 37 379 37 423 96 c 1,47,48
 396 126 396 126 333 204 c 2,49,-1
 230 329 l 1,50,41
 187 302 187 302 164.5 271 c 128,-1,42
194 486 m 1,51,-1
 200 472 l 2,52,53
 203 467 203 467 210 458 c 1,54,-1
 218 444 l 1,55,56
 231 431 231 431 237 423.5 c 0,57,58
 251 406 251 406 266 391 c 1,59,60
 342 443 342 443 342 522 c 0,61,62
 342 561 342 561 317.5 584.5 c 128,-1,63
 293 608 293 608 259 608 c 128,-1,64
 225 608 225 608 204.5 586.5 c 128,-1,65
 184 565 184 565 184 535.5 c 128,-1,66
 184 506 184 506 194 486 c 1,51,-1
EndSplineSet
EndChar

StartChar: quotesingle
Encoding: 39 39 10
Width: 160
GlyphClass: 2
Flags: HW
LayerCount: 2
Fore
SplineSet
38 675 m 0,0,1
 38 725 38 725 79.5 725 c 0,2,3
 121 725 121 725 121 675 c 0,4,5
 121 664 121 664 97 475 c 1,6,7
 90 470 90 470 79 470 c 0,8,9
 68 470 68 470 63 475 c 1,10,11
 38 671 38 671 38 675 c 0,0,1
EndSplineSet
EndChar

StartChar: parenleft
Encoding: 40 40 11
Width: 266
GlyphClass: 2
Flags: HW
LayerCount: 2
Fore
SplineSet
73 -29 m 1,0,1
 38 96 38 96 38 256.5 c 128,-1,2
 38 417 38 417 73 550.5 c 128,-1,3
 108 684 108 684 176 760 c 0,4,5
 198 785 198 785 222.5 785 c 128,-1,6
 247 785 247 785 250 760 c 1,7,8
 187 684 187 684 155 550.5 c 128,-1,9
 123 417 123 417 123 257.5 c 128,-1,10
 123 98 123 98 155 -34.5 c 128,-1,11
 187 -167 187 -167 250 -243 c 1,12,13
 247 -268 247 -268 221 -268 c 0,14,15
 179 -268 179 -268 138 -194 c 128,-1,16
 97 -120 97 -120 73 -29 c 1,0,1
EndSplineSet
EndChar

StartChar: parenright
Encoding: 41 41 12
Width: 265
GlyphClass: 2
Flags: HW
LayerCount: 2
Fore
SplineSet
16 -243 m 1,0,1
 79 -167 79 -167 111 -34 c 128,-1,2
 143 99 143 99 143 258 c 0,3,4
 143 417 143 417 111 550.5 c 128,-1,5
 79 684 79 684 16 760 c 1,6,7
 18 785 18 785 45 785 c 0,8,9
 84 785 84 785 127 709.5 c 128,-1,10
 170 634 170 634 199 527 c 0,11,12
 228 420 228 420 228 260 c 0,13,14
 228 100 228 100 192.5 -31.5 c 128,-1,15
 157 -163 157 -163 90 -243 c 0,16,17
 69 -268 69 -268 43.5 -268 c 0,18,19
 18 -268 18 -268 16 -243 c 1,0,1
EndSplineSet
EndChar

StartChar: asterisk
Encoding: 42 42 13
Width: 451
GlyphClass: 2
Flags: HW
LayerCount: 2
Fore
SplineSet
48 555 m 1,0,1
 43 568 43 568 43 583.5 c 128,-1,2
 43 599 43 599 52 615.5 c 128,-1,3
 61 632 61 632 74 640 c 1,4,-1
 211 566 l 1,5,-1
 181 718 l 1,6,7
 203 734 203 734 225 734 c 128,-1,8
 247 734 247 734 269 718 c 1,9,-1
 241 566 l 1,10,-1
 376 642 l 1,11,12
 408 618 408 618 408 584 c 0,13,14
 408 567 408 567 404 558 c 1,15,-1
 250 538 l 1,16,-1
 364 433 l 1,17,18
 355 409 355 409 335.5 394.5 c 128,-1,19
 316 380 316 380 292 380 c 1,20,-1
 226 520 l 1,21,-1
 161 380 l 1,22,-1
 155 380 l 2,23,24
 131 380 131 380 113 395.5 c 128,-1,25
 95 411 95 411 89 431 c 1,26,-1
 202 538 l 1,27,-1
 48 555 l 1,0,1
EndSplineSet
EndChar

StartChar: plus
Encoding: 43 43 14
Width: 469
GlyphClass: 2
Flags: HW
LayerCount: 2
Fore
SplineSet
45 236 m 1,0,1
 31 247 31 247 31 268.5 c 128,-1,2
 31 290 31 290 34 298 c 1,3,-1
 201 298 l 1,4,-1
 201 467 l 1,5,6
 208 470 208 470 231.5 470 c 128,-1,7
 255 470 255 470 266 456 c 1,8,-1
 266 298 l 1,9,-1
 423 298 l 1,10,11
 437 287 437 287 437 265.5 c 128,-1,12
 437 244 437 244 434 235 c 1,13,-1
 265 235 l 1,14,-1
 265 66 l 1,15,16
 258 63 258 63 235 63 c 128,-1,17
 212 63 212 63 201 77 c 1,18,-1
 201 236 l 1,19,-1
 45 236 l 1,0,1
EndSplineSet
EndChar

StartChar: comma
Encoding: 44 44 15
Width: 214
GlyphClass: 2
Flags: HW
LayerCount: 2
Fore
SplineSet
42 -150 m 1,0,-1
 38 -149 l 1,1,2
 27 -148 27 -148 27 -127 c 1,3,4
 67 -114 67 -114 86.5 -90.5 c 128,-1,5
 106 -67 106 -67 106 -46 c 128,-1,6
 106 -25 106 -25 97 -12.5 c 128,-1,7
 88 0 88 0 77.5 6.5 c 0,8,9
 49 24.1428571429 49 24.1428571429 49 48.0714285714 c 128,-1,10
 49 72 49 72 61.5 85.5 c 128,-1,11
 74 99 74 99 95 99 c 0,12,13
 133 99 133 99 153 69.5 c 128,-1,14
 173 40 173 40 173 1 c 128,-1,15
 173 -38 173 -38 157 -69 c 128,-1,16
 141 -100 141 -100 118 -116.5 c 0,17,18
 71.303030303 -150 71.303030303 -150 42 -150 c 1,0,-1
EndSplineSet
EndChar

StartChar: hyphen
Encoding: 45 45 16
Width: 360
GlyphClass: 2
Flags: HW
LayerCount: 2
Fore
SplineSet
249 220 m 2,0,-1
 138 222 l 2,1,2
 95 222 95 222 62 218 c 1,3,4
 59 223 59 223 59 237 c 2,5,-1
 59 248 l 2,6,7
 59 302 59 302 112 302 c 2,8,-1
 223 300 l 2,9,10
 266 300 266 300 299 304 c 1,11,12
 302 289 302 289 302 285 c 2,13,-1
 302 274 l 2,14,15
 302 220 302 220 249 220 c 2,0,-1
EndSplineSet
EndChar

StartChar: period
Encoding: 46 46 17
Width: 206
GlyphClass: 2
Flags: HW
LayerCount: 2
Fore
SplineSet
62 2.5 m 128,-1,1
 48 17 48 17 48 41 c 128,-1,2
 48 65 48 65 64 80.5 c 128,-1,3
 80 96 80 96 104 96 c 128,-1,4
 128 96 128 96 142.5 81.5 c 128,-1,5
 157 67 157 67 157 43 c 128,-1,6
 157 19 157 19 140.5 3.5 c 128,-1,7
 124 -12 124 -12 100 -12 c 128,-1,0
 76 -12 76 -12 62 2.5 c 128,-1,1
EndSplineSet
EndChar

StartChar: slash
Encoding: 47 47 18
Width: 408
GlyphClass: 2
Flags: HW
LayerCount: 2
Fore
SplineSet
28 -178 m 1,0,-1
 321 734 l 1,1,2
 356.666666667 734 356.666666667 734 369.5 723 c 0,3,4
 373 720 373 720 380 712 c 1,5,-1
 87 -200 l 1,6,7
 44 -200 44 -200 28 -178 c 1,0,-1
EndSplineSet
EndChar

StartChar: zero
Encoding: 48 48 19
Width: 640
GlyphClass: 2
Flags: HW
LayerCount: 2
Fore
SplineSet
76 140.5 m 128,-1,1
 49 207 49 207 49 292.5 c 128,-1,2
 49 378 49 378 81 460.5 c 128,-1,3
 113 543 113 543 179.5 599 c 128,-1,4
 246 655 246 655 333 655 c 0,5,6
 397 655 397 655 448 630 c 128,-1,7
 499 605 499 605 529.5 562.5 c 0,8,9
 591 476.803278689 591 476.803278689 591 355 c 0,10,11
 591 263 591 263 558.5 180.5 c 128,-1,12
 526 98 526 98 459.5 43 c 128,-1,13
 393 -12 393 -12 308 -12 c 128,-1,14
 223 -12 223 -12 163 31 c 128,-1,0
 103 74 103 74 76 140.5 c 128,-1,1
151 332 m 1,15,16
 151 207 151 207 194.5 122 c 128,-1,17
 238 37 238 37 320.5 37 c 128,-1,18
 403 37 403 37 445 113 c 128,-1,19
 487 189 487 189 489 311 c 1,20,21
 489 438 489 438 445.5 522 c 128,-1,22
 402 606 402 606 319.5 606 c 128,-1,23
 237 606 237 606 195 530 c 128,-1,24
 153 454 153 454 151 332 c 1,15,16
EndSplineSet
EndChar

StartChar: one
Encoding: 49 49 20
Width: 372
GlyphClass: 2
Flags: HW
LayerCount: 2
Fore
SplineSet
33 542 m 1,0,1
 25 563 25 563 25 571.5 c 128,-1,2
 25 580 25 580 34 593 c 1,3,-1
 216 655 l 1,4,-1
 244 655 l 1,5,-1
 244 67 l 1,6,-1
 346 46 l 1,7,8
 346 26 346 26 342 17 c 128,-1,9
 338 8 338 8 327 0 c 1,10,-1
 50 0 l 1,11,12
 50 34 50 34 67 39 c 2,13,-1
 158 62 l 1,14,-1
 158 565 l 1,15,-1
 33 542 l 1,0,1
EndSplineSet
EndChar

StartChar: two
Encoding: 50 50 21
Width: 536
GlyphClass: 2
Flags: HW
LayerCount: 2
Fore
SplineSet
37 62 m 1,0,1
 52 76 52 76 94 110 c 2,2,-1
 165 169 l 2,3,4
 195 194 195 194 235 235.5 c 128,-1,5
 275 277 275 277 300.5 314 c 128,-1,6
 326 351 326 351 344 399.5 c 128,-1,7
 362 448 362 448 362 497.5 c 0,8,9
 362 547 362 547 331.5 577.5 c 128,-1,10
 301 608 301 608 243 608 c 0,11,12
 185 608 185 608 133 570 c 1,13,-1
 119 484 l 2,14,15
 116 466 116 466 72 463 c 1,16,-1
 53 599 l 1,17,18
 162 655 162 655 256 655 c 0,19,20
 350 655 350 655 408 612 c 128,-1,21
 466 569 466 569 466 492 c 0,22,23
 466 442 466 442 443 390 c 128,-1,24
 420 338 420 338 389.5 298.5 c 128,-1,25
 359 259 359 259 309 213 c 128,-1,26
 259 167 259 167 226 141 c 2,27,-1
 143 78 l 2,28,29
 133 71 133 71 128 67 c 1,30,-1
 403 46 l 1,31,-1
 435 168 l 1,32,33
 468 168 468 168 482 149 c 1,34,-1
 482 0 l 1,35,-1
 63 0 l 1,36,37
 48 11 48 11 42.5 23.5 c 128,-1,38
 37 36 37 36 37 62 c 1,0,1
EndSplineSet
EndChar

StartChar: three
Encoding: 51 51 22
Width: 537
GlyphClass: 2
Flags: HW
LayerCount: 2
Fore
SplineSet
39 127 m 0,0,1
 39 150 39 150 51.5 163.5 c 128,-1,2
 64 177 64 177 81 177 c 128,-1,3
 98 177 98 177 111.5 170.5 c 128,-1,4
 125 164 125 164 129 155 c 1,5,6
 129 91 129 91 160 64 c 128,-1,7
 191 37 191 37 255.5 37 c 128,-1,8
 320 37 320 37 354.5 70.5 c 128,-1,9
 389 104 389 104 389 161 c 128,-1,10
 389 218 389 218 352 249.5 c 128,-1,11
 315 281 315 281 241 309 c 0,12,13
 230 313 230 313 227 321.5 c 128,-1,14
 224 330 224 330 224 349 c 1,15,16
 376 393 376 393 376 495 c 0,17,18
 376 546 376 546 345 576 c 128,-1,19
 314 606 314 606 255.5 606 c 128,-1,20
 197 606 197 606 145 568 c 1,21,-1
 131 482 l 2,22,23
 128 464 128 464 84 461 c 1,24,-1
 65 597 l 1,25,26
 67.75 597 67.75 597 80.875 604.5 c 128,-1,27
 94 612 94 612 105.5 617.5 c 128,-1,28
 117 623 117 623 123 625.5 c 0,29,30
 137 631.333333333 137 631.333333333 163 640 c 1,31,-1
 185 646 l 1,32,33
 224 655 224 655 261 655 c 0,34,35
 358 655 358 655 412.5 612 c 128,-1,36
 467 569 467 569 467 492 c 0,37,38
 467 387 467 387 322 340 c 1,39,40
 485 295 485 295 485 164 c 0,41,42
 485 81 485 81 426 34.5 c 128,-1,43
 367 -12 367 -12 263.5 -12 c 128,-1,44
 160 -12 160 -12 99.5 31.5 c 128,-1,45
 39 75 39 75 39 127 c 0,0,1
EndSplineSet
EndChar

StartChar: four
Encoding: 52 52 23
Width: 518
GlyphClass: 2
Flags: HW
LayerCount: 2
Fore
SplineSet
10 222 m 1,0,-1
 336 655 l 1,1,2
 395 655 395 655 395 602 c 2,3,-1
 395 217 l 1,4,-1
 459 217 l 1,5,-1
 459 160 l 1,6,-1
 395 160 l 1,7,-1
 395 67 l 1,8,-1
 485 46 l 1,9,10
 485 26 485 26 481 17 c 128,-1,11
 477 8 477 8 466 0 c 1,12,-1
 217 0 l 1,13,14
 217 32 217 32 233 39 c 1,15,-1
 309 62 l 1,16,-1
 309 160 l 1,17,-1
 36 160 l 1,18,19
 21 171 21 171 15.5 183.5 c 128,-1,20
 10 196 10 196 10 222 c 1,0,-1
78 217 m 1,21,-1
 309 217 l 1,22,-1
 309 533 l 1,23,-1
 78 217 l 1,21,-1
EndSplineSet
EndChar

StartChar: five
Encoding: 53 53 24
Width: 527
GlyphClass: 2
Flags: HW
LayerCount: 2
Fore
SplineSet
39 127 m 0,0,1
 39 150 39 150 51.5 163.5 c 128,-1,2
 64 177 64 177 81 177 c 0,3,4
 98 177 98 177 111.5 170.5 c 128,-1,5
 125 164 125 164 129 155 c 1,6,7
 129 91 129 91 160 64 c 128,-1,8
 191 37 191 37 254 37 c 0,9,10
 317 37 317 37 349.5 77.5 c 128,-1,11
 382 118 382 118 384 179 c 1,12,13
 384 245 384 245 349.5 292 c 128,-1,14
 315 339 315 339 249 339 c 0,15,16
 156 339 156 339 91 289 c 1,17,18
 80 294 80 294 77 302 c 128,-1,19
 74 310 74 310 74 329 c 1,20,-1
 104 641 l 1,21,-1
 449 641 l 1,22,-1
 426 479 l 1,23,24
 382 482 382 482 379 500 c 2,25,-1
 364 595 l 1,26,-1
 150 579 l 1,27,-1
 150 359 l 1,28,29
 214 390 214 390 278 390 c 0,30,31
 374 390 374 390 428.5 337.5 c 128,-1,32
 483 285 483 285 483 201.5 c 0,33,34
 483 118 483 118 419.5 53 c 128,-1,35
 356 -12 356 -12 255.5 -12 c 0,36,37
 155 -12 155 -12 97 31.5 c 128,-1,38
 39 75 39 75 39 127 c 0,0,1
EndSplineSet
EndChar

StartChar: six
Encoding: 54 54 25
Width: 563
GlyphClass: 2
Flags: HW
LayerCount: 2
Fore
SplineSet
73 132.5 m 128,-1,1
 49 193 49 193 49 279 c 128,-1,2
 49 365 49 365 84.5 451.5 c 128,-1,3
 120 538 120 538 194 596.5 c 128,-1,4
 268 655 268 655 366 655 c 0,5,6
 413 655 413 655 444.5 638 c 128,-1,7
 476 621 476 621 476 599.5 c 128,-1,8
 476 578 476 578 460.5 565.5 c 128,-1,9
 445 553 445 553 429.5 553 c 128,-1,10
 414 553 414 553 406 558 c 1,11,12
 379 606 379 606 336 606 c 0,13,14
 261 606 261 606 207 516.5 c 128,-1,15
 153 427 153 427 151 316 c 1,16,17
 180 345 180 345 229.5 370 c 128,-1,18
 279 395 279 395 336 395 c 0,19,20
 428 395 428 395 477 337.5 c 128,-1,21
 526 280 526 280 526 196.5 c 128,-1,22
 526 113 526 113 462.5 50.5 c 128,-1,23
 399 -12 399 -12 307 -12 c 128,-1,24
 215 -12 215 -12 156 30 c 128,-1,0
 97 72 97 72 73 132.5 c 128,-1,1
152 268 m 1,25,26
 163 37 163 37 294 37 c 0,27,28
 355 37 355 37 389 83.5 c 128,-1,29
 423 130 423 130 423 193.5 c 128,-1,30
 423 257 423 257 396.5 296 c 128,-1,31
 370 335 370 335 317 335 c 128,-1,32
 264 335 264 335 220.5 314 c 128,-1,33
 177 293 177 293 152 268 c 1,25,26
EndSplineSet
EndChar

StartChar: seven
Encoding: 55 55 26
Width: 441
GlyphClass: 2
Flags: HW
LayerCount: 2
Fore
SplineSet
15 641 m 1,0,-1
 436 641 l 1,1,2
 444 631 444 631 444 622 c 0,3,4
 444 601 444 601 410 548 c 2,5,-1
 337 436 l 1,6,7
 297 378 297 378 263.5 293 c 128,-1,8
 230 208 230 208 230 139 c 0,9,10
 230 70 230 70 255 29 c 1,11,12
 248 14 248 14 231.5 1 c 128,-1,13
 215 -12 215 -12 189.5 -12 c 0,14,15
 164 -12 164 -12 146 13.5 c 128,-1,16
 128 39 128 39 128 90 c 0,17,18
 128 305 128 305 378 579 c 1,19,-1
 101 594 l 1,20,-1
 86 500 l 2,21,22
 83 482 83 482 39 479 c 1,23,-1
 15 641 l 1,0,-1
EndSplineSet
EndChar

StartChar: eight
Encoding: 56 56 27
Width: 551
GlyphClass: 2
Flags: HW
LayerCount: 2
Fore
SplineSet
51 157 m 0,0,1
 51 207 51 207 88.5 252.5 c 128,-1,2
 126 298 126 298 176 328 c 1,3,4
 88 378 88 378 84 477 c 1,5,6
 84 550 84 550 135 602.5 c 128,-1,7
 186 655 186 655 278 655 c 128,-1,8
 370 655 370 655 421 610 c 128,-1,9
 472 565 472 565 472 490.5 c 128,-1,10
 472 416 472 416 381 343 c 1,11,12
 440 316 440 316 471.5 279 c 128,-1,13
 503 242 503 242 503 171 c 128,-1,14
 503 100 503 100 441.5 44 c 128,-1,15
 380 -12 380 -12 275.5 -12 c 128,-1,16
 171 -12 171 -12 111 35 c 128,-1,17
 51 82 51 82 51 157 c 0,0,1
164.5 262 m 128,-1,19
 146 226 146 226 146 167 c 128,-1,20
 146 108 146 108 181.5 72.5 c 128,-1,21
 217 37 217 37 277.5 37 c 128,-1,22
 338 37 338 37 373.5 69 c 128,-1,23
 409 101 409 101 409 158 c 0,24,25
 409 218 409 218 361 248 c 0,26,27
 323.126582278 271.670886076 323.126582278 271.670886076 273.063291139 288.835443038 c 128,-1,28
 223 306 223 306 205 314 c 1,29,18
 183 298 183 298 164.5 262 c 128,-1,19
160 498 m 0,30,31
 160 466.25 160 466.25 171 451.125 c 128,-1,32
 182 436 182 436 189 427.5 c 128,-1,33
 196 419 196 419 210 411 c 2,34,-1
 234 398 l 2,35,36
 242 393 242 393 261 386 c 2,37,-1
 289 376 l 1,38,39
 307 368 307 368 349 356 c 1,40,41
 395 411 395 411 395 489 c 0,42,43
 395 545 395 545 363.5 575.5 c 128,-1,44
 332 606 332 606 277.5 606 c 128,-1,45
 223 606 223 606 191.5 577.5 c 128,-1,46
 160 549 160 549 160 498 c 0,30,31
EndSplineSet
EndChar

StartChar: nine
Encoding: 57 57 28
Width: 565
GlyphClass: 2
Flags: HW
LayerCount: 2
Fore
SplineSet
89 314.5 m 128,-1,1
 41 366 41 366 41 448.5 c 128,-1,2
 41 531 41 531 104 593 c 128,-1,3
 167 655 167 655 264 655 c 0,4,5
 331 655 331 655 381 631 c 128,-1,6
 431 607 431 607 459.5 566 c 0,7,8
 516 484.719298246 516 484.719298246 516 376 c 0,9,10
 516 227.05 516 227.05 432 110.5 c 0,11,12
 392 55 392 55 329.5 21.5 c 128,-1,13
 267 -12 267 -12 204 -12 c 128,-1,14
 141 -12 141 -12 107.5 5 c 128,-1,15
 74 22 74 22 74 43.5 c 128,-1,16
 74 65 74 65 89.5 77.5 c 128,-1,17
 105 90 105 90 120.5 90 c 128,-1,18
 136 90 136 90 144 85 c 1,19,20
 172 37 172 37 219 37 c 0,21,22
 300 37 300 37 357 130 c 128,-1,23
 414 223 414 223 414 337 c 2,24,-1
 414 344 l 1,25,26
 385 315 385 315 334.5 289 c 128,-1,27
 284 263 284 263 230 263 c 0,28,0
 137 263 137 263 89 314.5 c 128,-1,1
177.5 562 m 128,-1,30
 144 518 144 518 144 458.5 c 128,-1,31
 144 399 144 399 169.5 362 c 128,-1,32
 195 325 195 325 248 325 c 128,-1,33
 301 325 301 325 344 345.5 c 128,-1,34
 387 366 387 366 412 391 c 1,35,36
 398 606 398 606 272 606 c 0,37,29
 211 606 211 606 177.5 562 c 128,-1,30
EndSplineSet
EndChar

StartChar: colon
Encoding: 58 58 29
Width: 239
GlyphClass: 2
Flags: HW
LayerCount: 2
Fore
SplineSet
74 20.5 m 128,-1,1
 58 37 58 37 58 64 c 128,-1,2
 58 91 58 91 76.5 108.5 c 128,-1,3
 95 126 95 126 122 126 c 128,-1,4
 149 126 149 126 165 109.5 c 128,-1,5
 181 93 181 93 181 66 c 128,-1,6
 181 39 181 39 162.5 21.5 c 128,-1,7
 144 4 144 4 117 4 c 128,-1,0
 90 4 90 4 74 20.5 c 128,-1,1
74 337.5 m 128,-1,9
 58 354 58 354 58 381 c 128,-1,10
 58 408 58 408 76.5 425.5 c 128,-1,11
 95 443 95 443 122 443 c 128,-1,12
 149 443 149 443 165 426.5 c 128,-1,13
 181 410 181 410 181 383 c 128,-1,14
 181 356 181 356 162.5 338.5 c 128,-1,15
 144 321 144 321 117 321 c 128,-1,8
 90 321 90 321 74 337.5 c 128,-1,9
EndSplineSet
EndChar

StartChar: semicolon
Encoding: 59 59 30
Width: 252
GlyphClass: 2
Flags: HW
LayerCount: 2
Fore
SplineSet
61 -151 m 1,0,-1
 57 -150 l 2,1,2
 46 -147 46 -147 46 -128 c 1,3,4
 86 -115 86 -115 105.5 -91.5 c 128,-1,5
 125 -68 125 -68 125 -43 c 128,-1,6
 125 -18 125 -18 96.5 6 c 128,-1,7
 68 30 68 30 68 50.5 c 128,-1,8
 68 71 68 71 81 85 c 128,-1,9
 94 99 94 99 115 99 c 0,10,11
 153 99 153 99 172.5 68.5 c 128,-1,12
 192 38 192 38 192 -1 c 128,-1,13
 192 -40 192 -40 175.5 -70.5 c 128,-1,14
 159 -101 159 -101 136 -117.5 c 0,15,16
 89.303030303 -151 89.303030303 -151 61 -151 c 1,0,-1
80.5 337.5 m 128,-1,18
 64 354 64 354 64.5 381 c 128,-1,19
 65 408 65 408 83.5 425.5 c 128,-1,20
 102 443 102 443 129 443 c 128,-1,21
 156 443 156 443 172 426.5 c 128,-1,22
 188 410 188 410 188 383 c 128,-1,23
 188 356 188 356 169.5 338.5 c 128,-1,24
 151 321 151 321 124 321 c 128,-1,17
 97 321 97 321 80.5 337.5 c 128,-1,18
EndSplineSet
EndChar

StartChar: less
Encoding: 60 60 31
Width: 527
GlyphClass: 2
Flags: HW
LayerCount: 2
Fore
SplineSet
30 267 m 128,-1,1
 30 286 30 286 45 301 c 1,2,-1
 468 472 l 1,3,4
 471 464 471 464 471 441 c 0,5,6
 471 418 471 418 457 407 c 1,7,-1
 126 267 l 1,8,-1
 457 127 l 1,9,10
 471 116 471 116 471 93 c 0,11,12
 471 70 471 70 468 62 c 1,13,-1
 45 233 l 1,14,0
 30 248 30 248 30 267 c 128,-1,1
EndSplineSet
EndChar

StartChar: equal
Encoding: 61 61 32
Width: 532
GlyphClass: 2
Flags: HW
LayerCount: 2
Fore
SplineSet
82 165 m 1,0,1
 68 176 68 176 68 199 c 128,-1,2
 68 222 68 222 71 229 c 1,3,-1
 450 229 l 1,4,5
 464 218 464 218 464 195 c 128,-1,6
 464 172 464 172 461 165 c 1,7,-1
 82 165 l 1,0,1
82 305 m 1,8,9
 68 316 68 316 68 339 c 128,-1,10
 68 362 68 362 71 369 c 1,11,-1
 450 369 l 1,12,13
 464 358 464 358 464 335 c 128,-1,14
 464 312 464 312 461 305 c 1,15,-1
 82 305 l 1,8,9
EndSplineSet
EndChar

StartChar: greater
Encoding: 62 62 33
Width: 527
GlyphClass: 2
Flags: HW
LayerCount: 2
Fore
SplineSet
59 62 m 1,0,1
 56 70 56 70 56 93 c 128,-1,2
 56 116 56 116 70 127 c 1,3,-1
 401 267 l 1,4,-1
 70 407 l 1,5,6
 56 418 56 418 56 441 c 128,-1,7
 56 464 56 464 59 472 c 1,8,-1
 482 301 l 1,9,10
 497 286 497 286 497 267 c 128,-1,11
 497 248 497 248 482 233 c 1,12,-1
 59 62 l 1,0,1
EndSplineSet
EndChar

StartChar: question
Encoding: 63 63 34
Width: 427
GlyphClass: 2
Flags: HW
LayerCount: 2
Fore
SplineSet
33 537 m 0,0,1
 33 587 33 587 79.5 621 c 128,-1,2
 126 655 126 655 208 655 c 128,-1,3
 290 655 290 655 342 613 c 128,-1,4
 394 571 394 571 394 500 c 0,5,6
 394 442.708333333 394 442.708333333 359 397.5 c 0,7,8
 325.704225352 354.492957746 325.704225352 354.492957746 285 326 c 0,9,10
 275 319 275 319 258 308 c 1,11,-1
 233 294 l 2,12,13
 226 290 226 290 211 282.5 c 128,-1,14
 196 275 196 275 195 274 c 2,15,-1
 188 185 l 1,16,17
 178 178 178 178 161.5 178 c 128,-1,18
 145 178 145 178 135 185 c 1,19,-1
 125 296 l 1,20,-1
 170 315 l 2,21,22
 186 322 186 322 216 340 c 128,-1,23
 246 358 246 358 262.5 377 c 128,-1,24
 279 396 279 396 292.5 426.5 c 128,-1,25
 306 457 306 457 306 502 c 128,-1,26
 306 547 306 547 281 577.5 c 128,-1,27
 256 608 256 608 211 608 c 0,28,29
 122 608 122 608 122 509 c 1,30,31
 102 489 102 489 80 489 c 128,-1,32
 58 489 58 489 45.5 501.5 c 128,-1,33
 33 514 33 514 33 537 c 0,0,1
123.5 1.5 m 128,-1,35
 110 15 110 15 110 37.5 c 128,-1,36
 110 60 110 60 125.5 75 c 128,-1,37
 141 90 141 90 161 90 c 0,38,39
 213 90 213 90 213 39 c 0,40,41
 213 18 213 18 197.5 3 c 128,-1,42
 182 -12 182 -12 159.5 -12 c 128,-1,34
 137 -12 137 -12 123.5 1.5 c 128,-1,35
EndSplineSet
EndChar

StartChar: at
Encoding: 64 64 35
Width: 826
GlyphClass: 2
Flags: HW
LayerCount: 2
Fore
SplineSet
66.5 58 m 128,-1,1
 44 121 44 121 44 194.5 c 128,-1,2
 44 268 44 268 70 341 c 128,-1,3
 96 414 96 414 142.5 474 c 128,-1,4
 189 534 189 534 263 570.5 c 128,-1,5
 337 607 337 607 426 607 c 128,-1,6
 515 607 515 607 586.5 576.5 c 128,-1,7
 658 546 658 546 701 495 c 0,8,9
 789 390.627906977 789 390.627906977 789 249 c 0,10,11
 789 132 789 132 714.5 61.5 c 128,-1,12
 640 -9 640 -9 526 -9 c 0,13,14
 471 -9 471 -9 471 52 c 0,15,16
 471 66 471 66 483 140 c 1,17,18
 468 91 468 91 422.5 41 c 128,-1,19
 377 -9 377 -9 324 -9 c 0,20,21
 256 -9 256 -9 222 37.5 c 128,-1,22
 188 84 188 84 188 163 c 0,23,24
 188 263.983333333 188 263.983333333 249 356.5 c 0,25,26
 279 402 279 402 329 431 c 128,-1,27
 379 460 379 460 436 460 c 128,-1,28
 493 460 493 460 540.5 439.5 c 128,-1,29
 588 419 588 419 610 401 c 1,30,-1
 559 95 l 2,31,32
 557 81 557 81 557 73 c 0,33,34
 557 51 557 51 577 51 c 0,35,36
 634 51 634 51 679 98.5 c 128,-1,37
 724 146 724 146 724 243 c 0,38,39
 724 365 724 365 641.5 457.5 c 128,-1,40
 559 550 559 550 410.5 550 c 128,-1,41
 262 550 262 550 185 460.5 c 128,-1,42
 108 371 108 371 108 228 c 128,-1,43
 108 85 108 85 190 -12 c 128,-1,44
 272 -109 272 -109 408 -109 c 128,-1,45
 544 -109 544 -109 619 -48 c 1,46,-1
 635 -71 l 1,47,48
 561.859504132 -136.826446281 561.859504132 -136.826446281 489 -156 c 0,49,50
 451 -166 451 -166 408 -166 c 0,51,52
 317 -166 317 -166 246 -136 c 128,-1,53
 175 -106 175 -106 132 -55.5 c 128,-1,0
 89 -5 89 -5 66.5 58 c 128,-1,1
292 296 m 128,-1,55
 274 246 274 246 274 193 c 128,-1,56
 274 140 274 140 297.5 97 c 128,-1,57
 321 54 321 54 355 54 c 128,-1,58
 389 54 389 54 422.5 92 c 128,-1,59
 456 130 456 130 473.5 165 c 128,-1,60
 491 200 491 200 496 218 c 1,61,-1
 524 382 l 1,62,63
 479 421 479 421 434 421 c 128,-1,64
 389 421 389 421 349.5 383.5 c 128,-1,54
 310 346 310 346 292 296 c 128,-1,55
EndSplineSet
EndChar

StartChar: A
Encoding: 65 65 36
Width: 653
GlyphClass: 2
Flags: HW
LayerCount: 2
Fore
SplineSet
-5 0 m 1,0,1
 -5 32 -5 32 11 39 c 2,2,-1
 73 62 l 1,3,-1
 281 618 l 2,4,5
 295 655 295 655 321 655 c 0,6,7
 337 655 337 655 353 648 c 1,8,-1
 582 67 l 1,9,-1
 668 46 l 1,10,11
 668 26 668 26 664 17 c 128,-1,12
 660 8 660 8 649 0 c 1,13,-1
 412 0 l 1,14,15
 412 34 412 34 428 39 c 1,16,-1
 489 66 l 1,17,-1
 431 215 l 1,18,-1
 191 215 l 1,19,-1
 135 67 l 1,20,-1
 224 46 l 1,21,22
 224 26 224 26 220 17 c 128,-1,23
 216 8 216 8 205 0 c 1,24,-1
 -5 0 l 1,0,1
210 267 m 1,25,-1
 410 267 l 1,26,-1
 308 529 l 1,27,-1
 210 267 l 1,25,-1
EndSplineSet
EndChar

StartChar: B
Encoding: 66 66 37
Width: 584
GlyphClass: 2
Flags: HW
LayerCount: 2
Fore
SplineSet
45 0 m 1,0,1
 45 34 45 34 61 39 c 2,2,-1
 124 62 l 1,3,-1
 124 574 l 1,4,-1
 45 595 l 1,5,6
 45 628 45 628 64 641 c 1,7,-1
 313 641 l 2,8,9
 507 641 507 641 507 493 c 0,10,11
 507 447 507 447 474.5 411.5 c 128,-1,12
 442 376 442 376 401 360 c 1,13,14
 465 341 465 341 499.5 296.5 c 128,-1,15
 534 252 534 252 534 183.5 c 128,-1,16
 534 115 534 115 469 57.5 c 128,-1,17
 404 0 404 0 306 0 c 2,18,-1
 45 0 l 1,0,1
210 67 m 1,19,20
 264 46 264 46 316 46 c 128,-1,21
 368 46 368 46 403 74 c 128,-1,22
 438 102 438 102 438 177.5 c 128,-1,23
 438 253 438 253 397 289 c 128,-1,24
 356 325 356 325 253 325 c 2,25,-1
 210 325 l 1,26,-1
 210 67 l 1,19,20
210 371 m 1,27,28
 212 370 212 370 257 370 c 128,-1,29
 302 370 302 370 317.5 371.5 c 128,-1,30
 333 373 333 373 353.5 380 c 128,-1,31
 374 387 374 387 386 399 c 128,-1,32
 398 411 398 411 407 434 c 128,-1,33
 416 457 416 457 416 489 c 128,-1,34
 416 521 416 521 405 543 c 128,-1,35
 394 565 394 565 375 576 c 0,36,37
 340.454545455 596 340.454545455 596 301.727272727 596 c 128,-1,38
 263 596 263 596 210 579 c 1,39,-1
 210 371 l 1,27,28
EndSplineSet
EndChar

StartChar: C
Encoding: 67 67 38
Width: 636
GlyphClass: 2
Flags: HW
LayerCount: 2
Fore
SplineSet
48 289 m 0,0,1
 48 379 48 379 87.5 461.5 c 128,-1,2
 127 544 127 544 206.5 599.5 c 128,-1,3
 286 655 286 655 397.5 655 c 128,-1,4
 509 655 509 655 589 605 c 1,5,-1
 571 453 l 1,6,7
 527 456 527 456 524 474 c 2,8,-1
 511 557 l 1,9,-1
 511 558 l 1,10,11
 456 606 456 606 380 606 c 0,12,13
 264 606 264 606 208 530 c 128,-1,14
 152 454 152 454 150 332 c 1,15,16
 150 208 150 208 209.5 122.5 c 128,-1,17
 269 37 269 37 371 37 c 0,18,19
 457 37 457 37 509 96 c 1,20,-1
 522 209 l 1,21,22
 565 209 565 209 578 196 c 1,23,-1
 589 73 l 1,24,25
 495 -12 495 -12 371 -12 c 0,26,27
 288 -12 288 -12 224.5 13 c 128,-1,28
 161 38 161 38 123.5 81.5 c 0,29,30
 48 169.08 48 169.08 48 289 c 0,0,1
EndSplineSet
EndChar

StartChar: D
Encoding: 68 68 39
Width: 710
GlyphClass: 2
Flags: HW
LayerCount: 2
Fore
SplineSet
45 0 m 1,0,1
 45 34 45 34 61 39 c 2,2,-1
 124 62 l 1,3,-1
 124 574 l 1,4,-1
 45 595 l 1,5,6
 45 628 45 628 64 641 c 1,7,-1
 348 641 l 2,8,9
 500 641 500 641 580.5 555.5 c 128,-1,10
 661 470 661 470 661 345 c 0,11,12
 661 258 661 258 623 180.5 c 128,-1,13
 585 103 585 103 508 51.5 c 128,-1,14
 431 0 431 0 331 0 c 2,15,-1
 45 0 l 1,0,1
210 67 m 1,16,17
 271 46 271 46 339 46 c 0,18,19
 449 46 449 46 503 119.5 c 128,-1,20
 557 193 557 193 559 311 c 1,21,22
 559 432 559 432 501.5 513.5 c 128,-1,23
 444 595 444 595 340 595 c 0,24,25
 290 595 290 595 210 579 c 1,26,-1
 210 67 l 1,16,17
EndSplineSet
EndChar

StartChar: E
Encoding: 69 69 40
Width: 576
GlyphClass: 2
Flags: HW
LayerCount: 2
Fore
SplineSet
45 0 m 1,0,1
 45 34 45 34 61 39 c 2,2,-1
 124 62 l 1,3,-1
 124 574 l 1,4,-1
 45 595 l 1,5,6
 45 628 45 628 64 641 c 1,7,-1
 505 641 l 1,8,-1
 505 488 l 1,9,10
 471 488 471 488 466 504 c 2,11,-1
 433 595 l 1,12,-1
 210 579 l 1,13,-1
 210 351 l 1,14,-1
 400 351 l 1,15,-1
 420 411 l 1,16,17
 437 411 437 411 443.5 408 c 128,-1,18
 450 405 450 405 459 395 c 1,19,-1
 459 255 l 1,20,21
 450 245 450 245 443.5 242 c 128,-1,22
 437 239 437 239 420 239 c 1,23,-1
 400 299 l 1,24,-1
 210 299 l 1,25,-1
 210 67 l 1,26,-1
 459 46 l 1,27,-1
 490 168 l 1,28,29
 510 168 510 168 519 164 c 128,-1,30
 528 160 528 160 536 149 c 1,31,-1
 536 0 l 1,32,-1
 45 0 l 1,0,1
EndSplineSet
EndChar

StartChar: F
Encoding: 70 70 41
Width: 540
GlyphClass: 2
Flags: HW
LayerCount: 2
Fore
SplineSet
45 0 m 1,0,1
 45 34 45 34 61 39 c 2,2,-1
 124 62 l 1,3,-1
 124 574 l 1,4,-1
 45 595 l 1,5,6
 45 628 45 628 64 641 c 1,7,-1
 505 641 l 1,8,-1
 505 488 l 1,9,10
 471 488 471 488 466 504 c 2,11,-1
 433 595 l 1,12,-1
 210 579 l 1,13,-1
 210 341 l 1,14,-1
 400 341 l 1,15,-1
 420 401 l 1,16,17
 437 401 437 401 443.5 398 c 128,-1,18
 450 395 450 395 459 385 c 1,19,-1
 459 240 l 1,20,21
 450 230 450 230 443.5 227 c 128,-1,22
 437 224 437 224 420 224 c 1,23,-1
 400 289 l 1,24,-1
 210 289 l 1,25,-1
 210 67 l 1,26,-1
 310 46 l 1,27,28
 310 26 310 26 306 17 c 128,-1,29
 302 8 302 8 291 0 c 1,30,-1
 45 0 l 1,0,1
EndSplineSet
EndChar

StartChar: G
Encoding: 71 71 42
Width: 664
GlyphClass: 2
Flags: HW
LayerCount: 2
Fore
SplineSet
48 296 m 0,0,1
 48 386 48 386 85.5 466.5 c 128,-1,2
 123 547 123 547 198.5 601 c 128,-1,3
 274 655 274 655 381.5 655 c 128,-1,4
 489 655 489 655 570 605 c 1,5,-1
 554 453 l 1,6,7
 510 456 510 456 507 474 c 2,8,-1
 492 558 l 1,9,10
 439 606 439 606 370 606 c 0,11,12
 258 606 258 606 204.5 530 c 128,-1,13
 151 454 151 454 149 332 c 1,14,15
 149 208 149 208 206 122.5 c 128,-1,16
 263 37 263 37 361 37 c 0,17,18
 443 37 443 37 489 85 c 1,19,-1
 489 230 l 1,20,-1
 390 251 l 1,21,22
 390 271 390 271 394 280 c 128,-1,23
 398 289 398 289 409 297 c 1,24,-1
 637 297 l 1,25,26
 637 266 637 266 621 258 c 2,27,-1
 579 236 l 1,28,-1
 579 47 l 1,29,30
 493 -12 493 -12 366 -12 c 0,31,32
 285 -12 285 -12 222.5 14 c 128,-1,33
 160 40 160 40 122.5 84 c 0,34,35
 48 171.413333333 48 171.413333333 48 296 c 0,0,1
EndSplineSet
EndChar

StartChar: H
Encoding: 72 72 43
Width: 749
GlyphClass: 2
Flags: HW
LayerCount: 2
Fore
SplineSet
45 0 m 1,0,1
 45 34 45 34 61 39 c 2,2,-1
 124 62 l 1,3,-1
 124 574 l 1,4,-1
 45 595 l 1,5,6
 45 615 45 615 49 624 c 128,-1,7
 53 633 53 633 64 641 c 1,8,-1
 300 641 l 1,9,10
 300 607 300 607 284 602 c 2,11,-1
 210 579 l 1,12,-1
 210 361 l 1,13,-1
 536 361 l 1,14,-1
 536 574 l 1,15,-1
 457 595 l 1,16,17
 457 615 457 615 461 624 c 128,-1,18
 465 633 465 633 476 641 c 1,19,-1
 712 641 l 1,20,21
 712 607 712 607 696 602 c 2,22,-1
 622 579 l 1,23,-1
 622 67 l 1,24,-1
 712 46 l 1,25,26
 712 26 712 26 708 17 c 128,-1,27
 704 8 704 8 693 0 c 1,28,-1
 457 0 l 1,29,30
 457 34 457 34 473 39 c 2,31,-1
 536 62 l 1,32,-1
 536 309 l 1,33,-1
 210 309 l 1,34,-1
 210 67 l 1,35,-1
 300 46 l 1,36,37
 300 26 300 26 296 17 c 128,-1,38
 292 8 292 8 281 0 c 1,39,-1
 45 0 l 1,0,1
EndSplineSet
EndChar

StartChar: I
Encoding: 73 73 44
Width: 337
GlyphClass: 2
Flags: HW
LayerCount: 2
Fore
SplineSet
45 0 m 1,0,1
 45 34 45 34 61 39 c 2,2,-1
 124 62 l 1,3,-1
 124 574 l 1,4,-1
 45 595 l 1,5,6
 45 615 45 615 49 624 c 128,-1,7
 53 633 53 633 64 641 c 1,8,-1
 300 641 l 1,9,10
 300 607 300 607 284 602 c 2,11,-1
 210 579 l 1,12,-1
 210 67 l 1,13,-1
 300 46 l 1,14,15
 300 26 300 26 296 17 c 128,-1,16
 292 8 292 8 281 0 c 1,17,-1
 45 0 l 1,0,1
EndSplineSet
EndChar

StartChar: J
Encoding: 74 74 45
Width: 316
GlyphClass: 2
Flags: HW
LayerCount: 2
Fore
SplineSet
-35.5 -170.5 m 128,-1,1
 -52 -158 -52 -158 -52 -143.5 c 0,2,3
 -52 -105 -52 -105 -36 -105 c 0,4,5
 62.8 -105 62.8 -105 81.5 -83 c 0,6,7
 107.03926097 -52.9538106236 107.03926097 -52.9538106236 111.019630485 -14.4769053118 c 128,-1,8
 115 24 115 24 115 67 c 2,9,-1
 115 574 l 1,10,-1
 36 595 l 1,11,12
 36 615 36 615 40 624 c 128,-1,13
 44 633 44 633 55 641 c 1,14,-1
 291 641 l 1,15,16
 291 607 291 607 275 602 c 2,17,-1
 201 574 l 1,18,-1
 201 169 l 2,19,20
 201 81 201 81 170.5 -2 c 128,-1,21
 140 -85 140 -85 94 -134 c 128,-1,22
 48 -183 48 -183 3 -183 c 0,23,0
 -19 -183 -19 -183 -35.5 -170.5 c 128,-1,1
EndSplineSet
EndChar

StartChar: K
Encoding: 75 75 46
Width: 640
GlyphClass: 2
Flags: HW
LayerCount: 2
Fore
SplineSet
45 0 m 1,0,1
 45 34 45 34 61 39 c 2,2,-1
 124 62 l 1,3,-1
 124 574 l 1,4,-1
 45 595 l 1,5,6
 45 615 45 615 49 624 c 128,-1,7
 53 633 53 633 64 641 c 1,8,-1
 300 641 l 1,9,10
 300 607 300 607 284 602 c 2,11,-1
 210 579 l 1,12,-1
 210 67 l 1,13,-1
 300 46 l 1,14,15
 300 26 300 26 296 17 c 128,-1,16
 292 8 292 8 281 0 c 1,17,-1
 45 0 l 1,0,1
223 357 m 1,18,-1
 452 574 l 1,19,-1
 374 595 l 1,20,21
 374 615 374 615 378 624 c 128,-1,22
 382 633 382 633 393 641 c 1,23,-1
 620 641 l 1,24,25
 620 607 620 607 604 602 c 2,26,-1
 533 579 l 1,27,-1
 308 368 l 1,28,29
 377 264 377 264 467.5 166.5 c 128,-1,30
 558 69 558 69 641 24 c 1,31,32
 641 9 641 9 625.5 -1.5 c 128,-1,33
 610 -12 610 -12 575 -12 c 128,-1,34
 540 -12 540 -12 493.5 19 c 128,-1,35
 447 50 447 50 399 107.5 c 0,36,37
 310.802717665 213.152994464 310.802717665 213.152994464 223 357 c 1,18,-1
EndSplineSet
EndChar

StartChar: L
Encoding: 76 76 47
Width: 545
GlyphClass: 2
Flags: HW
LayerCount: 2
Fore
SplineSet
45 0 m 1,0,1
 45 34 45 34 61 39 c 2,2,-1
 124 62 l 1,3,-1
 124 574 l 1,4,-1
 45 595 l 1,5,6
 45 615 45 615 49 624 c 128,-1,7
 53 633 53 633 64 641 c 1,8,-1
 300 641 l 1,9,10
 300 607 300 607 284 602 c 2,11,-1
 210 579 l 1,12,-1
 210 67 l 1,13,-1
 459 46 l 1,14,-1
 480 168 l 1,15,16
 500 168 500 168 509 164 c 128,-1,17
 518 160 518 160 526 149 c 1,18,-1
 526 0 l 1,19,-1
 45 0 l 1,0,1
EndSplineSet
EndChar

StartChar: M
Encoding: 77 77 48
Width: 887
GlyphClass: 2
Flags: HW
LayerCount: 2
Fore
SplineSet
27 0 m 1,0,1
 27 34 27 34 43 40 c 2,2,-1
 105 63 l 1,3,-1
 152 574 l 1,4,-1
 73 595 l 1,5,6
 73 615 73 615 77 624 c 128,-1,7
 81 633 81 633 92 641 c 1,8,-1
 260 641 l 1,9,-1
 448 151 l 1,10,-1
 623 641 l 1,11,-1
 824 641 l 1,12,13
 824 607 824 607 808 602 c 2,14,-1
 734 579 l 1,15,-1
 775 67 l 1,16,-1
 866 46 l 1,17,18
 866 27 866 27 862 18.5 c 128,-1,19
 858 10 858 10 846 0 c 1,20,-1
 611 0 l 1,21,22
 611 33 611 33 627 40 c 1,23,-1
 690 63 l 1,24,-1
 651 544 l 1,25,-1
 460 23 l 2,26,27
 451 -3 451 -3 435 -3 c 0,28,29
 424 -3 424 -3 415 4 c 1,30,-1
 207 544 l 1,31,-1
 164 67 l 1,32,-1
 254 46 l 1,33,34
 254 26 254 26 250 17.5 c 128,-1,35
 246 9 246 9 234 0 c 1,36,-1
 27 0 l 1,0,1
EndSplineSet
EndChar

StartChar: N
Encoding: 78 78 49
Width: 748
GlyphClass: 2
Flags: HW
LayerCount: 2
Fore
SplineSet
45 0 m 1,0,1
 45 34 45 34 61 39 c 2,2,-1
 124 62 l 1,3,-1
 124 574 l 1,4,-1
 45 595 l 1,5,6
 45 615 45 615 49 624 c 128,-1,7
 53 633 53 633 64 641 c 1,8,-1
 215 641 l 1,9,-1
 573 157 l 1,10,-1
 573 574 l 1,11,-1
 494 595 l 1,12,13
 494 615 494 615 498 624 c 128,-1,14
 502 633 502 633 513 641 c 1,15,-1
 718 641 l 1,16,17
 718 607 718 607 702 602 c 2,18,-1
 633 579 l 1,19,-1
 633 27 l 2,20,21
 633 12 633 12 624 4.5 c 128,-1,22
 615 -3 615 -3 602.5 -3 c 0,23,24
 590 -3 590 -3 580 3 c 1,25,-1
 184 535 l 1,26,-1
 184 67 l 1,27,-1
 274 46 l 1,28,29
 274 26 274 26 270 17 c 128,-1,30
 266 8 266 8 255 0 c 1,31,-1
 45 0 l 1,0,1
EndSplineSet
EndChar

StartChar: O
Encoding: 79 79 50
Width: 739
GlyphClass: 2
Flags: HW
LayerCount: 2
Fore
SplineSet
67 181 m 128,-1,1
 48 235 48 235 48 299 c 128,-1,2
 48 363 48 363 70.5 426.5 c 128,-1,3
 93 490 93 490 134 541.5 c 128,-1,4
 175 593 175 593 238.5 624 c 128,-1,5
 302 655 302 655 378 655 c 0,6,7
 530 655 530 655 610.5 565.5 c 128,-1,8
 691 476 691 476 691 347 c 0,9,10
 691 209.524390244 691 209.524390244 605 101.5 c 0,11,12
 564 50 564 50 500.5 19 c 128,-1,13
 437 -12 437 -12 360 -12 c 128,-1,14
 283 -12 283 -12 221.5 14 c 128,-1,15
 160 40 160 40 123 83.5 c 128,-1,0
 86 127 86 127 67 181 c 128,-1,1
203 528 m 128,-1,17
 149 450 149 450 149 327 c 128,-1,18
 149 204 149 204 207.5 120.5 c 128,-1,19
 266 37 266 37 372.5 37 c 128,-1,20
 479 37 479 37 534 114.5 c 128,-1,21
 589 192 589 192 589 315.5 c 128,-1,22
 589 439 589 439 530.5 522.5 c 128,-1,23
 472 606 472 606 364.5 606 c 128,-1,16
 257 606 257 606 203 528 c 128,-1,17
EndSplineSet
EndChar

StartChar: P
Encoding: 80 80 51
Width: 553
GlyphClass: 2
Flags: HW
LayerCount: 2
Fore
SplineSet
45 0 m 1,0,1
 45 34 45 34 61 39 c 2,2,-1
 124 62 l 1,3,-1
 124 574 l 1,4,-1
 45 595 l 1,5,6
 45 628 45 628 64 641 c 1,7,-1
 312 641 l 2,8,9
 418 641 418 641 474 591.5 c 128,-1,10
 530 542 530 542 530 466 c 0,11,12
 530 390 530 390 463 326.5 c 128,-1,13
 396 263 396 263 289 263 c 0,14,15
 246 263 246 263 210 272 c 1,16,-1
 210 67 l 1,17,-1
 310 46 l 1,18,19
 310 26 310 26 306 17 c 128,-1,20
 302 8 302 8 291 0 c 1,21,-1
 45 0 l 1,0,1
210 316 m 1,22,23
 239 308 239 308 286 308 c 0,24,25
 352 308 352 308 392 354 c 128,-1,26
 432 400 432 400 432 457.5 c 0,27,28
 432 515 432 515 397.5 553 c 128,-1,29
 363 591 363 591 299 591 c 0,30,31
 268 591 268 591 210 579 c 1,32,-1
 210 316 l 1,22,23
EndSplineSet
EndChar

StartChar: Q
Encoding: 81 81 52
Width: 739
GlyphClass: 2
Flags: HW
LayerCount: 2
Fore
SplineSet
67 181 m 128,-1,1
 48 235 48 235 48 299 c 128,-1,2
 48 363 48 363 70.5 426.5 c 128,-1,3
 93 490 93 490 134 541.5 c 128,-1,4
 175 593 175 593 238.5 624 c 128,-1,5
 302 655 302 655 378 655 c 0,6,7
 530 655 530 655 610.5 565.5 c 128,-1,8
 691 476 691 476 691 347 c 0,9,10
 691 243 691 243 638.5 150.5 c 128,-1,11
 586 58 586 58 494 16 c 1,12,13
 594 -25 594 -25 739 -65 c 128,-1,14
 884 -105 884 -105 1005 -105 c 1,15,16
 1015 -115 1015 -115 1015 -132.5 c 128,-1,17
 1015 -150 1015 -150 994 -166.5 c 128,-1,18
 973 -183 973 -183 932 -183 c 0,19,20
 848 -183 848 -183 696 -129.5 c 128,-1,21
 544 -76 544 -76 400 -9 c 1,22,23
 380 -12 380 -12 361 -12 c 0,24,25
 283 -12 283 -12 221.5 14 c 128,-1,26
 160 40 160 40 123 83.5 c 128,-1,0
 86 127 86 127 67 181 c 128,-1,1
203 528 m 128,-1,28
 149 450 149 450 149 327 c 128,-1,29
 149 204 149 204 207.5 120.5 c 128,-1,30
 266 37 266 37 372.5 37 c 128,-1,31
 479 37 479 37 534 114.5 c 128,-1,32
 589 192 589 192 589 315.5 c 128,-1,33
 589 439 589 439 530.5 522.5 c 128,-1,34
 472 606 472 606 364.5 606 c 128,-1,27
 257 606 257 606 203 528 c 128,-1,28
EndSplineSet
EndChar

StartChar: R
Encoding: 82 82 53
Width: 631
GlyphClass: 2
Flags: HW
LayerCount: 2
Fore
SplineSet
45 0 m 1,0,1
 45 34 45 34 61 39 c 2,2,-1
 124 62 l 1,3,-1
 124 574 l 1,4,-1
 45 595 l 1,5,6
 45 628 45 628 64 641 c 1,7,-1
 312 641 l 2,8,9
 415 641 415 641 471 595 c 128,-1,10
 527 549 527 549 527 487.5 c 0,11,12
 527 426 527 426 492 377 c 128,-1,13
 457 328 457 328 394 303 c 1,14,15
 512 111 512 111 627 24 c 1,16,17
 627 10 627 10 613.5 -1 c 128,-1,18
 600 -12 600 -12 578 -12 c 0,19,20
 518 -12 518 -12 456 68 c 128,-1,21
 394 148 394 148 324 286 c 1,22,23
 309 283 309 283 280 283 c 0,24,25
 251 283 251 283 210 295 c 1,26,-1
 210 67 l 1,27,-1
 300 46 l 1,28,29
 300 26 300 26 296 17 c 128,-1,30
 292 8 292 8 281 0 c 1,31,-1
 45 0 l 1,0,1
210 340 m 1,32,33
 238 332 238 332 274 332 c 0,34,35
 340 332 340 332 385.5 366.5 c 128,-1,36
 431 401 431 401 431 468 c 0,37,38
 431 518 431 518 396.5 554.5 c 128,-1,39
 362 591 362 591 299 591 c 0,40,41
 268 591 268 591 210 579 c 1,42,-1
 210 340 l 1,32,33
EndSplineSet
EndChar

StartChar: S
Encoding: 83 83 54
Width: 523
GlyphClass: 2
Flags: HW
LayerCount: 2
Fore
SplineSet
43 50 m 1,0,-1
 59 185 l 1,1,2
 75 201 75 201 102 201 c 0,3,4
 110 201 110 201 116 198 c 1,5,-1
 127 76 l 1,6,7
 143 62 143 62 177 48.5 c 128,-1,8
 211 35 211 35 262 35 c 128,-1,9
 313 35 313 35 349 67.5 c 128,-1,10
 385 100 385 100 385 151 c 128,-1,11
 385 202 385 202 352.5 231.5 c 128,-1,12
 320 261 320 261 274 278.5 c 128,-1,13
 228 296 228 296 182 316 c 128,-1,14
 136 336 136 336 103.5 376 c 128,-1,15
 71 416 71 416 71 484.5 c 128,-1,16
 71 553 71 553 120.5 604 c 128,-1,17
 170 655 170 655 258 655 c 0,18,19
 298 655 298 655 341.5 642.5 c 128,-1,20
 385 630 385 630 400 623 c 128,-1,21
 415 616 415 616 448 599 c 1,22,-1
 429 463 l 1,23,24
 385 466 385 466 382 484 c 2,25,-1
 368 570 l 1,26,27
 316 608 316 608 262 608 c 128,-1,28
 208 608 208 608 179 579.5 c 128,-1,29
 150 551 150 551 150 500 c 0,30,31
 150 441 150 441 215 408.5 c 0,32,33
 244 394 244 394 279 380.5 c 128,-1,34
 314 367 314 367 348.5 351 c 128,-1,35
 383 335 383 335 412 314.5 c 128,-1,36
 441 294 441 294 459 259 c 128,-1,37
 477 224 477 224 477 178 c 0,38,39
 477 98 477 98 419.5 43 c 128,-1,40
 362 -12 362 -12 259 -12 c 128,-1,41
 156 -12 156 -12 43 50 c 1,0,-1
EndSplineSet
EndChar

StartChar: T
Encoding: 84 84 55
Width: 601
GlyphClass: 2
Flags: HW
LayerCount: 2
Fore
SplineSet
23 478 m 1,0,-1
 23 641 l 1,1,-1
 577 641 l 1,2,-1
 577 478 l 1,3,4
 542 478 542 478 538 494 c 1,5,-1
 505 595 l 1,6,-1
 343 579 l 1,7,-1
 343 67 l 1,8,-1
 433 46 l 1,9,10
 433 26 433 26 429 17 c 128,-1,11
 425 8 425 8 414 0 c 1,12,-1
 178 0 l 1,13,14
 178 34 178 34 194 39 c 2,15,-1
 257 62 l 1,16,-1
 257 579 l 1,17,-1
 95 595 l 1,18,-1
 62 494 l 1,19,20
 58 478 58 478 23 478 c 1,0,-1
EndSplineSet
EndChar

StartChar: U
Encoding: 85 85 56
Width: 721
GlyphClass: 2
Flags: HW
LayerCount: 2
Fore
SplineSet
28 595 m 1,0,1
 28 615 28 615 32 624 c 128,-1,2
 36 633 36 633 47 641 c 1,3,-1
 287 641 l 1,4,5
 287 607 287 607 271 602 c 2,6,-1
 197 579 l 1,7,-1
 197 204 l 2,8,9
 197 41 197 41 366 41 c 0,10,11
 455 41 455 41 500 78.5 c 128,-1,12
 545 116 545 116 545 206 c 2,13,-1
 545 574 l 1,14,-1
 466 595 l 1,15,16
 466 615 466 615 470 624 c 128,-1,17
 474 633 474 633 485 641 c 1,18,-1
 696 641 l 1,19,20
 696 607 696 607 680 602 c 2,21,-1
 611 579 l 1,22,-1
 611 214 l 2,23,24
 611 112 611 112 549 50 c 128,-1,25
 487 -12 487 -12 361 -12 c 0,26,27
 235 -12 235 -12 171 47 c 128,-1,28
 107 106 107 106 107 211 c 2,29,-1
 107 574 l 1,30,-1
 28 595 l 1,0,1
EndSplineSet
EndChar

StartChar: V
Encoding: 86 86 57
Width: 646
GlyphClass: 2
Flags: HW
LayerCount: 2
Fore
SplineSet
-14 595 m 1,0,1
 -14 615 -14 615 -10 624 c 128,-1,2
 -6 633 -6 633 5 641 c 1,3,-1
 241 641 l 1,4,5
 241 607 241 607 225 602 c 2,6,-1
 162 579 l 1,7,-1
 341 112 l 1,8,-1
 511 574 l 1,9,-1
 422 595 l 1,10,11
 422 615 422 615 426 624 c 128,-1,12
 430 633 430 633 441 641 c 1,13,-1
 651 641 l 1,14,15
 651 607 651 607 635 602 c 2,16,-1
 573 579 l 1,17,-1
 368 25 l 2,18,19
 354 -12 354 -12 328 -12 c 0,20,21
 312 -12 312 -12 296 -5 c 1,22,-1
 72 574 l 1,23,-1
 -14 595 l 1,0,1
EndSplineSet
EndChar

StartChar: W
Encoding: 87 87 58
Width: 942
GlyphClass: 2
Flags: HW
LayerCount: 2
Fore
SplineSet
-7 595 m 1,0,1
 -7 615 -7 615 -3 624 c 128,-1,2
 1 633 1 633 12 641 c 1,3,-1
 247 641 l 1,4,5
 247 607 247 607 231 602 c 2,6,-1
 158 579 l 1,7,-1
 313 120 l 1,8,-1
 454 579 l 1,9,-1
 519 579 l 1,10,-1
 670 120 l 1,11,-1
 802 574 l 1,12,-1
 723 595 l 1,13,14
 723 615 723 615 727 624 c 128,-1,15
 731 633 731 633 742 641 c 1,16,-1
 952 641 l 1,17,18
 952 607 952 607 936 602 c 2,19,-1
 863 579 l 1,20,-1
 699 25 l 2,21,22
 695 10 695 10 680.5 -1 c 128,-1,23
 666 -12 666 -12 651.5 -12 c 0,24,25
 637 -12 637 -12 621 -5 c 1,26,-1
 473 449 l 1,27,-1
 342 25 l 2,28,29
 337 9 337 9 323.5 -1.5 c 128,-1,30
 310 -12 310 -12 295 -12 c 0,31,32
 280 -12 280 -12 264 -5 c 1,33,-1
 71 574 l 1,34,-1
 -7 595 l 1,0,1
EndSplineSet
EndChar

StartChar: X
Encoding: 88 88 59
Width: 634
GlyphClass: 2
Flags: HW
LayerCount: 2
Fore
SplineSet
7 0 m 1,0,1
 7 32 7 32 23 39 c 2,2,-1
 85 62 l 1,3,-1
 261 326 l 1,4,-1
 95 574 l 1,5,-1
 17 595 l 1,6,7
 17 615 17 615 21 624 c 128,-1,8
 25 633 25 633 36 641 c 1,9,-1
 285 641 l 1,10,11
 285 607 285 607 269 602 c 2,12,-1
 195 579 l 1,13,-1
 329 379 l 1,14,-1
 457 574 l 1,15,-1
 378 595 l 1,16,17
 378 615 378 615 382 624 c 128,-1,18
 386 633 386 633 397 641 c 1,19,-1
 617 641 l 1,20,21
 617 607 617 607 601 602 c 2,22,-1
 527 579 l 1,23,-1
 363 329 l 1,24,-1
 538 67 l 1,25,-1
 628 46 l 1,26,27
 628 26 628 26 624 17 c 128,-1,28
 620 8 620 8 609 0 c 1,29,-1
 360 0 l 1,30,31
 360 32 360 32 376 39 c 2,32,-1
 438 62 l 1,33,-1
 295 275 l 1,34,-1
 156 67 l 1,35,-1
 246 46 l 1,36,37
 246 26 246 26 242 17 c 128,-1,38
 238 8 238 8 227 0 c 1,39,-1
 7 0 l 1,0,1
EndSplineSet
EndChar

StartChar: Y
Encoding: 89 89 60
Width: 612
GlyphClass: 2
Flags: HW
LayerCount: 2
Fore
SplineSet
-14 595 m 1,0,1
 -14 615 -14 615 -10 624 c 128,-1,2
 -6 633 -6 633 5 641 c 1,3,-1
 253 641 l 1,4,5
 253 607 253 607 237 602 c 2,6,-1
 163 579 l 1,7,-1
 325 322 l 1,8,-1
 460 574 l 1,9,-1
 381 595 l 1,10,11
 381 615 381 615 385 624 c 128,-1,12
 389 633 389 633 400 641 c 1,13,-1
 617 641 l 1,14,15
 617 607 617 607 601 602 c 2,16,-1
 527 579 l 1,17,-1
 352 260 l 1,18,-1
 352 67 l 1,19,-1
 442 46 l 1,20,21
 442 26 442 26 438 17 c 128,-1,22
 434 8 434 8 423 0 c 1,23,-1
 187 0 l 1,24,25
 187 34 187 34 203 39 c 2,26,-1
 266 62 l 1,27,-1
 266 260 l 1,28,-1
 65 574 l 1,29,-1
 -14 595 l 1,0,1
EndSplineSet
EndChar

StartChar: Z
Encoding: 90 90 61
Width: 576
GlyphClass: 2
Flags: HW
LayerCount: 2
Fore
SplineSet
38 25 m 0,0,1
 38 36 38 36 45 46 c 2,2,-1
 395 579 l 1,3,-1
 129 595 l 1,4,-1
 96 494 l 2,5,6
 91 478 91 478 57 478 c 1,7,-1
 57 641 l 1,8,-1
 490 641 l 2,9,10
 515 641 515 641 515 617 c 0,11,12
 515 605 515 605 508 595 c 2,13,-1
 161 67 l 1,14,-1
 456 46 l 1,15,-1
 487 178 l 1,16,17
 507 178 507 178 516 174 c 128,-1,18
 525 170 525 170 533 159 c 1,19,-1
 533 0 l 1,20,-1
 64 0 l 2,21,22
 38 0 38 0 38 25 c 0,0,1
EndSplineSet
EndChar

StartChar: bracketleft
Encoding: 91 91 62
Width: 283
GlyphClass: 2
Flags: HW
LayerCount: 2
Fore
SplineSet
77 -258 m 1,0,-1
 77 778 l 1,1,-1
 267 778 l 1,2,3
 269 764 269 764 269 758 c 0,4,5
 269 726 269 726 256 715 c 1,6,-1
 157 715 l 1,7,-1
 157 -195 l 1,8,-1
 256 -195 l 1,9,10
 269 -206 269 -206 269 -238 c 0,11,12
 269 -244 269 -244 267 -258 c 1,13,-1
 77 -258 l 1,0,-1
EndSplineSet
EndChar

StartChar: backslash
Encoding: 92 92 63
Width: 408
GlyphClass: 2
Flags: HW
LayerCount: 2
Fore
SplineSet
28 712 m 1,0,1
 46 734 46 734 87 734 c 1,2,-1
 380 -178 l 1,3,4
 374 -186 374 -186 370 -189.5 c 0,5,6
 358 -200 358 -200 321 -200 c 1,7,-1
 28 712 l 1,0,1
EndSplineSet
EndChar

StartChar: bracketright
Encoding: 93 93 64
Width: 283
GlyphClass: 2
Flags: HW
LayerCount: 2
Fore
SplineSet
14 -238 m 0,0,1
 14 -206 14 -206 27 -195 c 1,2,-1
 126 -195 l 1,3,-1
 126 715 l 1,4,-1
 27 715 l 1,5,6
 14 726 14 726 14 758 c 0,7,8
 14 764 14 764 16 778 c 1,9,-1
 206 778 l 1,10,-1
 206 -258 l 1,11,-1
 16 -258 l 1,12,13
 14 -244 14 -244 14 -238 c 0,0,1
EndSplineSet
EndChar

StartChar: asciicircum
Encoding: 94 94 65
Width: 600
GlyphClass: 2
Flags: HW
LayerCount: 2
Fore
SplineSet
107 316 m 1,0,-1
 268 693 l 1,1,2
 283 708 283 708 302 708 c 128,-1,3
 321 708 321 708 336 693 c 1,4,-1
 497 316 l 1,5,6
 485 298 485 298 476 294 c 128,-1,7
 467 290 467 290 448 290 c 1,8,-1
 302 612 l 1,9,-1
 156 290 l 1,10,11
 137 290 137 290 128 294 c 128,-1,12
 119 298 119 298 107 316 c 1,0,-1
EndSplineSet
EndChar

StartChar: underscore
Encoding: 95 95 66
Width: 691
GlyphClass: 2
Flags: HW
LayerCount: 2
Fore
SplineSet
139 -179 m 1,0,1
 125 -168 125 -168 125 -145 c 128,-1,2
 125 -122 125 -122 128 -115 c 1,3,-1
 547 -115 l 1,4,5
 561 -126 561 -126 561 -149 c 128,-1,6
 561 -172 561 -172 558 -179 c 1,7,-1
 139 -179 l 1,0,1
EndSplineSet
EndChar

StartChar: grave
Encoding: 96 96 67
Width: 435
GlyphClass: 2
Flags: HW
LayerCount: 2
Fore
SplineSet
100.5 658.5 m 0,0,1
 97 665 97 665 97 676 c 128,-1,2
 97 687 97 687 111 701 c 128,-1,3
 125 715 125 715 137.5 715 c 128,-1,4
 150 715 150 715 159 710.5 c 0,5,6
 176.444444444 701.777777778 176.444444444 701.777777778 213 660 c 1,7,-1
 323 540 l 1,8,9
 323 523 323 523 302 518 c 1,10,-1
 246 554 l 1,11,-1
 162 606 l 1,12,13
 110.875739645 639.230769231 110.875739645 639.230769231 100.5 658.5 c 0,0,1
EndSplineSet
EndChar

StartChar: a
Encoding: 97 97 68
Width: 467
GlyphClass: 2
Flags: HW
LayerCount: 2
Fore
SplineSet
34 89 m 0,0,1
 34 205 34 205 178 238 c 2,2,-1
 296 265 l 1,3,-1
 296 316 l 2,4,5
 296 419 296 419 224 419 c 0,6,7
 180 419 180 419 161 397 c 128,-1,8
 142 375 142 375 142 327 c 1,9,10
 125 315 125 315 105 315 c 128,-1,11
 85 315 85 315 72 328.5 c 128,-1,12
 59 342 59 342 59 361 c 0,13,14
 59 399 59 399 112 430.5 c 128,-1,15
 165 462 165 462 237 462 c 128,-1,16
 309 462 309 462 343.5 427 c 128,-1,17
 378 392 378 392 378 309 c 2,18,-1
 378 90 l 2,19,20
 378 51 378 51 405 51 c 0,21,22
 427 51 427 51 450 68 c 1,23,-1
 467 44 l 1,24,25
 418 -12 418 -12 367 -12 c 0,26,27
 296 -12 296 -12 296 87 c 1,28,29
 278 61 278 61 232.5 24.5 c 128,-1,30
 187 -12 187 -12 138.5 -12 c 128,-1,31
 90 -12 90 -12 62 17 c 128,-1,32
 34 46 34 46 34 89 c 0,0,1
128.5 168 m 128,-1,34
 110 145 110 145 110 118.5 c 128,-1,35
 110 92 110 92 126.5 73.5 c 128,-1,36
 143 55 143 55 172.5 55 c 128,-1,37
 202 55 202 55 237.5 76.5 c 128,-1,38
 273 98 273 98 296 123 c 1,39,-1
 296 227 l 1,40,-1
 183 200 l 2,41,33
 147 191 147 191 128.5 168 c 128,-1,34
EndSplineSet
EndChar

StartChar: b
Encoding: 98 98 69
Width: 525
GlyphClass: 2
Flags: HW
LayerCount: 2
Fore
SplineSet
-5 726 m 1,0,1
 63 734 63 734 96 734 c 0,2,3
 149 734 149 734 149 680 c 2,4,-1
 149 363 l 1,5,6
 240 462 240 462 313 462 c 0,7,8
 403 462 403 462 444 399 c 128,-1,9
 485 336 485 336 485 235.5 c 0,10,11
 485 135 485 135 421 61.5 c 128,-1,12
 357 -12 357 -12 250.5 -12 c 0,13,14
 144 -12 144 -12 67 35 c 1,15,-1
 67 664 l 1,16,-1
 11 687 l 2,17,18
 -5 693 -5 693 -5 726 c 1,0,1
149 71 m 1,19,20
 188 34 188 34 247 34 c 0,21,22
 322 34 322 34 357 86 c 128,-1,23
 392 138 392 138 392 228 c 0,24,25
 392 391 392 391 277 391 c 0,26,27
 218 391 218 391 149 322 c 1,28,-1
 149 71 l 1,19,20
EndSplineSet
EndChar

StartChar: c
Encoding: 99 99 70
Width: 460
GlyphClass: 2
Flags: HW
LayerCount: 2
Fore
SplineSet
93 54.5 m 128,-1,1
 39 121 39 121 39 222.5 c 128,-1,2
 39 324 39 324 101 393 c 128,-1,3
 163 462 163 462 259 462 c 0,4,5
 322 462 322 462 373 429.5 c 128,-1,6
 424 397 424 397 424 342 c 0,7,8
 424 320 424 320 412 308 c 128,-1,9
 400 296 400 296 378 296 c 128,-1,10
 356 296 356 296 336 316 c 1,11,12
 332 419 332 419 253 419 c 0,13,14
 132 419 132 419 132 238 c 0,15,16
 132 153 132 153 170 104 c 128,-1,17
 208 55 208 55 276 55 c 0,18,19
 309 55 309 55 343 69.5 c 0,20,21
 389.205128205 89.2051282051 389.205128205 89.2051282051 412 112 c 1,22,-1
 429 88 l 1,23,-1
 417 75 l 2,24,25
 336.692307692 -12 336.692307692 -12 253 -12 c 0,26,0
 147 -12 147 -12 93 54.5 c 128,-1,1
EndSplineSet
EndChar

StartChar: d
Encoding: 100 100 71
Width: 554
GlyphClass: 2
Flags: HW
LayerCount: 2
Fore
SplineSet
89.5 56.5 m 128,-1,1
 40 125 40 125 40 222.5 c 128,-1,2
 40 320 40 320 100 391 c 128,-1,3
 160 462 160 462 266 462 c 0,4,5
 321 462 321 462 376 446 c 1,6,-1
 376 664 l 1,7,-1
 320 687 l 2,8,9
 304 693 304 693 304 726 c 1,10,11
 372 734 372 734 394.5 734 c 128,-1,12
 417 734 417 734 426 732.5 c 128,-1,13
 435 731 435 731 446.5 716.5 c 128,-1,14
 458 702 458 702 458 676 c 2,15,-1
 458 90 l 2,16,17
 458 51 458 51 485 51 c 0,18,19
 507 51 507 51 530 68 c 1,20,-1
 547 44 l 1,21,22
 498 -12 498 -12 447 -12 c 0,23,24
 376 -12 376 -12 376 86 c 1,25,26
 348.246376812 41.5942028986 348.246376812 41.5942028986 304.623188406 14.7971014493 c 128,-1,27
 261 -12 261 -12 227 -12 c 0,28,0
 139 -12 139 -12 89.5 56.5 c 128,-1,1
133 238 m 0,29,30
 133 155 133 155 165 105 c 128,-1,31
 197 55 197 55 263 55 c 0,32,33
 314 55 314 55 376 124 c 1,34,-1
 376 379 l 1,35,36
 327 416 327 416 274 416 c 0,37,38
 133 416 133 416 133 238 c 0,29,30
EndSplineSet
EndChar

StartChar: e
Encoding: 101 101 72
Width: 472
GlyphClass: 2
Flags: HW
LayerCount: 2
Fore
SplineSet
101.5 394 m 128,-1,1
 163 462 163 462 256 462 c 0,2,3
 322.622222222 462 322.622222222 462 371.5 420.5 c 0,4,5
 429.010464758 371.670360111 429.010464758 371.670360111 433 246 c 1,6,-1
 132 246 l 1,7,8
 132 151 132 151 172.5 103 c 128,-1,9
 213 55 213 55 279.5 55 c 128,-1,10
 346 55 346 55 413 112 c 1,11,-1
 430 88 l 1,12,13
 341 -12 341 -12 255 -12 c 0,14,15
 195 -12 195 -12 151.5 8.5 c 128,-1,16
 108 29 108 29 84.5 64.5 c 0,17,18
 40 131.723404255 40 131.723404255 40 228.861702128 c 128,-1,0
 40 326 40 326 101.5 394 c 128,-1,1
133 288 m 1,19,-1
 338 291 l 1,20,21
 337 357 337 357 311.5 388 c 128,-1,22
 286 419 286 419 248 419 c 0,23,24
 146 419 146 419 133 288 c 1,19,-1
EndSplineSet
EndChar

StartChar: f
Encoding: 102 102 73
Width: 332
GlyphClass: 2
Flags: HW
LayerCount: 2
Fore
SplineSet
26 0 m 1,0,1
 26 33 26 33 42 39 c 2,2,-1
 98 62 l 1,3,-1
 98 397 l 1,4,-1
 35 401 l 1,5,6
 35 436 35 436 54 445 c 1,7,-1
 98 449 l 1,8,9
 98 512 98 512 131 578 c 128,-1,10
 164 644 164 644 219 689 c 128,-1,11
 274 734 274 734 331 734 c 0,12,13
 360 734 360 734 375.5 718 c 128,-1,14
 391 702 391 702 391 680 c 128,-1,15
 391 658 391 658 379 642 c 1,16,-1
 323 642 l 2,17,18
 249 642 249 642 231 635 c 0,19,20
 191 620 191 620 183 548 c 0,21,22
 180 523 180 523 180 488 c 2,23,-1
 180 453 l 1,24,-1
 311 462 l 1,25,26
 320 452 320 452 320 436 c 0,27,28
 320 420 320 420 301 405 c 128,-1,29
 282 390 282 390 243 390 c 1,30,-1
 180 393 l 1,31,-1
 180 67 l 1,32,-1
 272 46 l 1,33,34
 272 26 272 26 268 17 c 128,-1,35
 264 8 264 8 253 0 c 1,36,-1
 26 0 l 1,0,1
EndSplineSet
EndChar

StartChar: g
Encoding: 103 103 74
Width: 499
GlyphClass: 2
Flags: HW
LayerCount: 2
Fore
SplineSet
25 -135 m 0,0,1
 25 -110 25 -110 40 -94.5 c 128,-1,2
 55 -79 55 -79 81 -79 c 128,-1,3
 107 -79 107 -79 124 -94 c 1,4,5
 124 -168 124 -168 153.5 -199 c 128,-1,6
 183 -230 183 -230 248.5 -230 c 128,-1,7
 314 -230 314 -230 355.5 -196 c 128,-1,8
 397 -162 397 -162 397 -125 c 128,-1,9
 397 -88 397 -88 385.5 -71.5 c 128,-1,10
 374 -55 374 -55 350.5 -50 c 128,-1,11
 327 -45 327 -45 301.5 -44 c 0,12,13
 104 -36.2549019608 104 -36.2549019608 104 37 c 0,14,15
 104 65 104 65 120.5 90.5 c 128,-1,16
 137 116 137 116 158 132 c 1,17,18
 39 161 39 161 39 286 c 0,19,20
 39 359 39 359 96 410.5 c 128,-1,21
 153 462 153 462 240 462 c 0,22,23
 307 462 307 462 351 439 c 1,24,-1
 479 451 l 1,25,26
 488 440 488 440 488 429 c 0,27,28
 488 382 488 382 412 382 c 1,29,30
 433 346 433 346 433 293 c 0,31,32
 433 224 433 224 373 174.5 c 128,-1,33
 313 125 313 125 231 125 c 2,34,-1
 206 125 l 1,35,36
 187 99 187 99 187 73 c 0,37,38
 187 58.7333333333 187 58.7333333333 198.5 53.3666666667 c 128,-1,39
 210 48 210 48 218 46 c 128,-1,40
 226 44 226 44 237.5 42 c 128,-1,41
 249 40 249 40 257 39.5 c 128,-1,42
 265 39 265 39 277 38 c 128,-1,43
 289 37 289 37 311.5 35.5 c 128,-1,44
 334 34 334 34 355 31 c 128,-1,45
 376 28 376 28 405.5 20 c 128,-1,46
 435 12 435 12 449 -1 c 0,47,48
 485 -34.4285714286 485 -34.4285714286 485 -94 c 0,49,50
 485 -174 485 -174 417.5 -222 c 128,-1,51
 350 -270 350 -270 248 -270 c 128,-1,52
 146 -270 146 -270 85.5 -228 c 128,-1,53
 25 -186 25 -186 25 -135 c 0,0,1
125 293 m 0,54,55
 125 237 125 237 153.5 203 c 128,-1,56
 182 169 182 169 236.5 169 c 128,-1,57
 291 169 291 169 318.5 202 c 128,-1,58
 346 235 346 235 346 293 c 128,-1,59
 346 351 346 351 316 385.5 c 128,-1,60
 286 420 286 420 233 420 c 0,61,62
 125 420 125 420 125 293 c 0,54,55
EndSplineSet
EndChar

StartChar: h
Encoding: 104 104 75
Width: 573
GlyphClass: 2
Flags: HW
LayerCount: 2
Fore
SplineSet
20 0 m 1,0,1
 20 33 20 33 36 39 c 2,2,-1
 92 62 l 1,3,-1
 92 664 l 1,4,-1
 36 687 l 2,5,6
 20 693 20 693 20 726 c 1,7,8
 88 734 88 734 121 734 c 0,9,10
 174 734 174 734 174 680 c 2,11,-1
 174 363 l 1,12,13
 273 462 273 462 352 462 c 0,14,15
 481 462 481 462 481 314 c 2,16,-1
 481 67 l 1,17,-1
 563 46 l 1,18,19
 563 26 563 26 559 17 c 128,-1,20
 555 8 555 8 544 0 c 1,21,-1
 327 0 l 1,22,23
 327 33 327 33 343 39 c 2,24,-1
 399 62 l 1,25,-1
 399 299 l 2,26,27
 399 391 399 391 312 391 c 0,28,29
 252 391 252 391 174 322 c 1,30,-1
 174 67 l 1,31,-1
 256 46 l 1,32,33
 256 26 256 26 252 17 c 128,-1,34
 248 8 248 8 237 0 c 1,35,-1
 20 0 l 1,0,1
EndSplineSet
EndChar

StartChar: i
Encoding: 105 105 76
Width: 279
GlyphClass: 2
Flags: HW
LayerCount: 2
Fore
SplineSet
29 0 m 1,0,1
 29 33 29 33 45 39 c 2,2,-1
 101 62 l 1,3,-1
 101 381 l 1,4,-1
 45 404 l 2,5,6
 29 410 29 410 29 443 c 1,7,8
 97 451 97 451 130 451 c 0,9,10
 183 451 183 451 183 397 c 2,11,-1
 183 67 l 1,12,-1
 265 46 l 1,13,14
 265 26 265 26 261 17 c 128,-1,15
 257 8 257 8 246 0 c 1,16,-1
 29 0 l 1,0,1
93 561.5 m 128,-1,18
 79 576 79 576 79 600 c 128,-1,19
 79 624 79 624 95 639.5 c 128,-1,20
 111 655 111 655 135 655 c 128,-1,21
 159 655 159 655 173.5 640.5 c 128,-1,22
 188 626 188 626 188 602 c 128,-1,23
 188 578 188 578 171.5 562.5 c 128,-1,24
 155 547 155 547 131 547 c 128,-1,17
 107 547 107 547 93 561.5 c 128,-1,18
EndSplineSet
EndChar

StartChar: j
Encoding: 106 106 77
Width: 242
GlyphClass: 2
Flags: HW
LayerCount: 2
Fore
SplineSet
-48.5 -257.5 m 128,-1,1
 -65 -245 -65 -245 -65 -226.5 c 128,-1,2
 -65 -208 -65 -208 -53 -192 c 1,3,4
 17.3157894737 -192 17.3157894737 -192 47.5 -176.5 c 0,5,6
 66 -167 66 -167 74.5 -146 c 0,7,8
 91 -105.235294118 91 -105.235294118 91 -13 c 2,9,-1
 91 381 l 1,10,-1
 35 404 l 2,11,12
 19 410 19 410 19 443 c 1,13,14
 87 451 87 451 120 451 c 0,15,16
 173 451 173 451 173 397 c 2,17,-1
 173 82 l 2,18,19
 173 12 173 12 146 -70.5 c 128,-1,20
 119 -153 119 -153 75.5 -211.5 c 128,-1,21
 32 -270 32 -270 -10 -270 c 0,22,0
 -32 -270 -32 -270 -48.5 -257.5 c 128,-1,1
84 561.5 m 128,-1,24
 70 576 70 576 70 600 c 128,-1,25
 70 624 70 624 86 639.5 c 128,-1,26
 102 655 102 655 126 655 c 128,-1,27
 150 655 150 655 164 640.5 c 128,-1,28
 178 626 178 626 178 602 c 128,-1,29
 178 578 178 578 162 562.5 c 128,-1,30
 146 547 146 547 122 547 c 128,-1,23
 98 547 98 547 84 561.5 c 128,-1,24
EndSplineSet
EndChar

StartChar: k
Encoding: 107 107 78
Width: 501
GlyphClass: 2
Flags: HW
LayerCount: 2
Fore
SplineSet
20 0 m 1,0,1
 20 33 20 33 36 39 c 2,2,-1
 92 62 l 1,3,-1
 92 664 l 1,4,-1
 36 687 l 2,5,6
 20 693 20 693 20 726 c 1,7,8
 88 734 88 734 121 734 c 0,9,10
 174 734 174 734 174 680 c 2,11,-1
 174 67 l 1,12,-1
 235 46 l 1,13,14
 235 26 235 26 231 17 c 128,-1,15
 227 8 227 8 216 0 c 1,16,-1
 20 0 l 1,0,1
184 254 m 1,17,-1
 333 382 l 1,18,-1
 279 397 l 1,19,20
 279 417 279 417 283 426 c 128,-1,21
 287 435 287 435 298 443 c 1,22,-1
 467 443 l 1,23,24
 467 411 467 411 451 404 c 2,25,-1
 411 385 l 1,26,-1
 257 258 l 1,27,28
 297 194 297 194 366 125.5 c 128,-1,29
 435 57 435 57 499 25 c 1,30,31
 499 13 499 13 486 0.5 c 128,-1,32
 473 -12 473 -12 445 -12 c 128,-1,33
 417 -12 417 -12 380.5 10.5 c 128,-1,34
 344 33 344 33 307.5 77.5 c 0,35,36
 247.341300191 150.84416826 247.341300191 150.84416826 184 254 c 1,17,-1
EndSplineSet
EndChar

StartChar: l
Encoding: 108 108 79
Width: 271
GlyphClass: 2
Flags: HW
LayerCount: 2
Fore
SplineSet
20 0 m 1,0,1
 20 33 20 33 36 39 c 2,2,-1
 92 62 l 1,3,-1
 92 664 l 1,4,-1
 36 687 l 2,5,6
 20 693 20 693 20 726 c 1,7,8
 88 734 88 734 121 734 c 0,9,10
 174 734 174 734 174 680 c 2,11,-1
 174 67 l 1,12,-1
 256 46 l 1,13,14
 256 26 256 26 252 17 c 128,-1,15
 248 8 248 8 237 0 c 1,16,-1
 20 0 l 1,0,1
EndSplineSet
EndChar

StartChar: m
Encoding: 109 109 80
Width: 852
GlyphClass: 2
Flags: HW
LayerCount: 2
Fore
SplineSet
29 0 m 1,0,1
 29 33 29 33 45 39 c 2,2,-1
 101 62 l 1,3,-1
 101 381 l 1,4,-1
 45 404 l 2,5,6
 29 410 29 410 29 443 c 1,7,8
 97 451 97 451 130 451 c 0,9,10
 183 451 183 451 183 397 c 2,11,-1
 183 363 l 1,12,13
 274 462 274 462 342 462 c 0,14,15
 394 462 394 462 425 438.5 c 128,-1,16
 456 415 456 415 467 359 c 1,17,18
 561 462 561 462 628 462 c 128,-1,19
 695 462 695 462 728 425 c 128,-1,20
 761 388 761 388 761 299 c 2,21,-1
 761 67 l 1,22,-1
 843 46 l 1,23,24
 843 26 843 26 839 17 c 128,-1,25
 835 8 835 8 824 0 c 1,26,-1
 607 0 l 1,27,28
 607 33 607 33 623 39 c 2,29,-1
 679 62 l 1,30,-1
 679 299 l 2,31,32
 679 391 679 391 591 391 c 0,33,34
 546.285714286 391 546.285714286 391 496 347 c 1,35,-1
 476 327 l 1,36,-1
 472 322 l 1,37,-1
 472 67 l 1,38,-1
 554 46 l 1,39,40
 554 26 554 26 550 17 c 128,-1,41
 546 8 546 8 535 0 c 1,42,-1
 318 0 l 1,43,44
 318 33 318 33 334 39 c 2,45,-1
 390 62 l 1,46,-1
 390 299 l 2,47,48
 390 391 390 391 302 391 c 0,49,50
 252 391 252 391 183 322 c 1,51,-1
 183 67 l 1,52,-1
 265 46 l 1,53,54
 265 26 265 26 261 17 c 128,-1,55
 257 8 257 8 246 0 c 1,56,-1
 29 0 l 1,0,1
EndSplineSet
EndChar

StartChar: n
Encoding: 110 110 81
Width: 574
GlyphClass: 2
Flags: HW
LayerCount: 2
Fore
SplineSet
29 0 m 1,0,1
 29 33 29 33 45 39 c 2,2,-1
 101 62 l 1,3,-1
 101 381 l 1,4,-1
 45 404 l 2,5,6
 29 410 29 410 29 443 c 1,7,8
 97 451 97 451 130 451 c 0,9,10
 183 451 183 451 183 397 c 2,11,-1
 183 363 l 1,12,13
 275 462 275 462 353 462 c 0,14,15
 418 462 418 462 450.5 425.5 c 128,-1,16
 483 389 483 389 483 299 c 2,17,-1
 483 67 l 1,18,-1
 565 46 l 1,19,20
 565 26 565 26 561 17 c 128,-1,21
 557 8 557 8 546 0 c 1,22,-1
 329 0 l 1,23,24
 329 33 329 33 345 39 c 2,25,-1
 401 62 l 1,26,-1
 401 299 l 2,27,28
 401 391 401 391 314 391 c 0,29,30
 252 391 252 391 183 322 c 1,31,-1
 183 67 l 1,32,-1
 265 46 l 1,33,34
 265 26 265 26 261 17 c 128,-1,35
 257 8 257 8 246 0 c 1,36,-1
 29 0 l 1,0,1
EndSplineSet
EndChar

StartChar: o
Encoding: 111 111 82
Width: 535
GlyphClass: 2
Flags: HW
LayerCount: 2
Fore
SplineSet
92.5 53 m 128,-1,1
 40 118 40 118 40 220 c 128,-1,2
 40 322 40 322 108.5 392 c 128,-1,3
 177 462 177 462 279 462 c 128,-1,4
 381 462 381 462 438.5 398.5 c 128,-1,5
 496 335 496 335 496 239 c 128,-1,6
 496 143 496 143 431.5 65.5 c 128,-1,7
 367 -12 367 -12 256 -12 c 128,-1,0
 145 -12 145 -12 92.5 53 c 128,-1,1
161 362.5 m 128,-1,9
 130 306 130 306 130 222.5 c 128,-1,10
 130 139 130 139 168 85 c 128,-1,11
 206 31 206 31 271.5 31 c 128,-1,12
 337 31 337 31 370.5 82.5 c 128,-1,13
 404 134 404 134 404 218.5 c 128,-1,14
 404 303 404 303 366.5 361 c 128,-1,15
 329 419 329 419 260.5 419 c 128,-1,8
 192 419 192 419 161 362.5 c 128,-1,9
EndSplineSet
EndChar

StartChar: p
Encoding: 112 112 83
Width: 549
GlyphClass: 2
Flags: HW
LayerCount: 2
Fore
SplineSet
19 -258 m 1,0,1
 19 -225 19 -225 35 -219 c 2,2,-1
 91 -196 l 1,3,-1
 91 381 l 1,4,-1
 35 404 l 2,5,6
 19 410 19 410 19 443 c 1,7,8
 87 451 87 451 120 451 c 0,9,10
 173 451 173 451 173 397 c 2,11,-1
 173 363 l 1,12,13
 264 462 264 462 337 462 c 0,14,15
 427 462 427 462 468 399 c 128,-1,16
 509 336 509 336 509 235.5 c 0,17,18
 509 135 509 135 445 61.5 c 128,-1,19
 381 -12 381 -12 274 -12 c 0,20,21
 222 -12 222 -12 173 2 c 1,22,-1
 173 -191 l 1,23,-1
 255 -212 l 1,24,25
 255 -232 255 -232 251 -241 c 128,-1,26
 247 -250 247 -250 236 -258 c 1,27,-1
 19 -258 l 1,0,1
173 71 m 1,28,29
 212 34 212 34 271 34 c 0,30,31
 346 34 346 34 381 86 c 128,-1,32
 416 138 416 138 416 228 c 0,33,34
 416 391 416 391 301 391 c 0,35,36
 242 391 242 391 173 322 c 1,37,-1
 173 71 l 1,28,29
EndSplineSet
EndChar

StartChar: q
Encoding: 113 113 84
Width: 529
GlyphClass: 2
Flags: HW
LayerCount: 2
Fore
SplineSet
89.5 56.5 m 128,-1,1
 40 125 40 125 40 222.5 c 128,-1,2
 40 320 40 320 100 391 c 128,-1,3
 160 462 160 462 266 462 c 0,4,5
 337 462 337 462 403 436 c 1,6,-1
 458 462 l 1,7,-1
 458 -191 l 1,8,-1
 540 -212 l 1,9,10
 540 -232 540 -232 536 -241 c 128,-1,11
 532 -250 532 -250 521 -258 c 1,12,-1
 304 -258 l 1,13,14
 304 -225 304 -225 320 -219 c 2,15,-1
 376 -196 l 1,16,-1
 376 86 l 1,17,18
 348.246376812 41.5942028986 348.246376812 41.5942028986 304.623188406 14.7971014493 c 128,-1,19
 261 -12 261 -12 227 -12 c 0,20,0
 139 -12 139 -12 89.5 56.5 c 128,-1,1
133 238 m 0,21,22
 133 157 133 157 165 108 c 128,-1,23
 197 59 197 59 263 59 c 0,24,25
 311 59 311 59 376 124 c 1,26,-1
 376 379 l 1,27,28
 327 416 327 416 274 416 c 0,29,30
 133 416 133 416 133 238 c 0,21,22
EndSplineSet
EndChar

StartChar: r
Encoding: 114 114 85
Width: 403
GlyphClass: 2
Flags: HW
LayerCount: 2
Fore
SplineSet
184 393 m 1,0,-1
 183 381 l 1,1,-1
 183 357 l 1,2,3
 209 408 209 408 244.5 435 c 128,-1,4
 280 462 280 462 312.5 462 c 128,-1,5
 345 462 345 462 369.5 443 c 128,-1,6
 394 424 394 424 394 400.5 c 128,-1,7
 394 377 394 377 375.5 364.5 c 128,-1,8
 357 352 357 352 337 352 c 1,9,10
 303 387 303 387 270 387 c 0,11,12
 221 387 221 387 183 313 c 1,13,-1
 183 67 l 1,14,-1
 275 46 l 1,15,16
 275 26 275 26 271 17 c 128,-1,17
 267 8 267 8 256 0 c 1,18,-1
 29 0 l 1,19,20
 29 33 29 33 45 39 c 2,21,-1
 101 62 l 1,22,-1
 101 381 l 1,23,-1
 45 404 l 2,24,25
 29 410 29 410 29 443 c 1,26,27
 97 451 97 451 130 451 c 0,28,29
 184 451 184 451 184 393 c 1,0,-1
EndSplineSet
EndChar

StartChar: s
Encoding: 115 115 86
Width: 414
GlyphClass: 2
Flags: HW
LayerCount: 2
Fore
SplineSet
35 102 m 0,0,1
 35 122 35 122 47.5 133 c 128,-1,2
 60 144 60 144 81.5 144 c 0,3,4
 103 144 103 144 123 124 c 1,5,6
 123 68 123 68 145 48.5 c 128,-1,7
 167 29 167 29 205 29 c 0,8,9
 243 29 243 29 266 52 c 128,-1,10
 289 75 289 75 289 109 c 0,11,12
 289 143 289 143 265 162.5 c 128,-1,13
 241 182 241 182 206.5 194 c 128,-1,14
 172 206 172 206 137.5 220.5 c 128,-1,15
 103 235 103 235 79 265.5 c 128,-1,16
 55 296 55 296 55 344.5 c 0,17,18
 55 393 55 393 95.5 427.5 c 128,-1,19
 136 462 136 462 204.5 462 c 0,20,21
 273 462 273 462 317 438 c 128,-1,22
 361 414 361 414 361 377 c 0,23,24
 361 361 361 361 349 348.5 c 128,-1,25
 337 336 337 336 317.5 336 c 0,26,27
 298 336 298 336 281 348 c 1,28,29
 281 421 281 421 209 421 c 0,30,31
 174 421 174 421 152.5 401.5 c 128,-1,32
 131 382 131 382 131 353 c 0,33,34
 131 324 131 324 156 306 c 128,-1,35
 181 288 181 288 217.5 275.5 c 128,-1,36
 254 263 254 263 290 247 c 128,-1,37
 326 231 326 231 351 200 c 128,-1,38
 376 169 376 169 376 118.5 c 0,39,40
 376 68 376 68 329.5 28 c 128,-1,41
 283 -12 283 -12 210 -12 c 0,42,43
 137 -12 137 -12 86 19 c 128,-1,44
 35 50 35 50 35 102 c 0,0,1
EndSplineSet
EndChar

StartChar: t
Encoding: 116 116 87
Width: 340
GlyphClass: 2
Flags: HW
LayerCount: 2
Fore
SplineSet
23 402 m 1,0,1
 23 437 23 437 42 446 c 1,2,-1
 84 448 l 1,3,-1
 84 530 l 1,4,5
 113 564 113 564 166 569 c 1,6,-1
 166 453 l 1,7,-1
 299 462 l 1,8,9
 308 452 308 452 308 436 c 128,-1,10
 308 420 308 420 289 405 c 128,-1,11
 270 390 270 390 231 390 c 1,12,-1
 166 393 l 1,13,-1
 166 152 l 2,14,15
 166 91 166 91 179.5 72.5 c 128,-1,16
 193 54 193 54 221 54 c 0,17,18
 268 54 268 54 320 91 c 1,19,-1
 334 64 l 1,20,21
 314 35 314 35 275 11.5 c 128,-1,22
 236 -12 236 -12 204 -12 c 128,-1,23
 172 -12 172 -12 153.5 -7 c 128,-1,24
 135 -2 135 -2 118 13 c 0,25,26
 84 43 84 43 84 141 c 2,27,-1
 84 397 l 1,28,-1
 23 402 l 1,0,1
EndSplineSet
EndChar

StartChar: u
Encoding: 117 117 88
Width: 563
GlyphClass: 2
Flags: HW
LayerCount: 2
Fore
SplineSet
15 443 m 1,0,1
 83 451 83 451 116 451 c 0,2,3
 169 451 169 451 169 397 c 2,4,-1
 169 156 l 2,5,6
 169 107 169 107 189 83.5 c 128,-1,7
 209 60 209 60 256 60 c 0,8,9
 315 60 315 60 383 128 c 1,10,-1
 383 381 l 1,11,-1
 327 404 l 2,12,13
 311 410 311 410 311 443 c 1,14,15
 379 451 379 451 412 451 c 0,16,17
 465 451 465 451 465 397 c 2,18,-1
 465 90 l 2,19,20
 465 51 465 51 492 51 c 0,21,22
 514 51 514 51 537 68 c 1,23,-1
 554 44 l 1,24,25
 505 -12 505 -12 454 -12 c 0,26,27
 383 -12 383 -12 383 87 c 1,28,29
 357 54 357 54 310 21 c 128,-1,30
 263 -12 263 -12 218 -12 c 0,31,32
 153 -12 153 -12 120 25 c 128,-1,33
 87 62 87 62 87 152 c 2,34,-1
 87 381 l 1,35,-1
 31 404 l 2,36,37
 15 410 15 410 15 443 c 1,0,1
EndSplineSet
EndChar

StartChar: v
Encoding: 118 118 89
Width: 493
GlyphClass: 2
Flags: HW
LayerCount: 2
Fore
SplineSet
0 397 m 1,0,1
 0 417 0 417 4 426 c 128,-1,2
 8 435 8 435 19 443 c 1,3,-1
 218 443 l 1,4,5
 218 410 218 410 202 404 c 2,6,-1
 148 381 l 1,7,-1
 268 82 l 1,8,-1
 381 376 l 1,9,-1
 307 397 l 1,10,11
 307 417 307 417 311 426 c 128,-1,12
 315 435 315 435 326 443 c 1,13,-1
 497 443 l 1,14,15
 497 411 497 411 481 404 c 2,16,-1
 432 381 l 1,17,-1
 295 25 l 2,18,19
 280 -12 280 -12 254 -12 c 0,20,21
 238 -12 238 -12 222 -5 c 1,22,-1
 69 376 l 1,23,-1
 0 397 l 1,0,1
EndSplineSet
EndChar

StartChar: w
Encoding: 119 119 90
Width: 692
GlyphClass: 2
Flags: HW
LayerCount: 2
Fore
SplineSet
1 397 m 1,0,1
 1 417 1 417 5 426 c 128,-1,2
 9 435 9 435 20 443 c 1,3,-1
 221 443 l 1,4,5
 221 410 221 410 205 404 c 2,6,-1
 148 381 l 1,7,-1
 245 88 l 1,8,-1
 342 381 l 1,9,-1
 389 381 l 1,10,-1
 485 88 l 1,11,-1
 581 376 l 1,12,-1
 509 397 l 1,13,14
 509 417 509 417 513 426 c 128,-1,15
 517 435 517 435 528 443 c 1,16,-1
 696 443 l 1,17,18
 696 411 696 411 680 404 c 2,19,-1
 631 381 l 1,20,-1
 511 24 l 2,21,22
 498 -12 498 -12 474.5 -12 c 0,23,24
 451 -12 451 -12 439 -5 c 1,25,-1
 351 263 l 1,26,-1
 271 24 l 2,27,28
 258 -12 258 -12 230 -12 c 0,29,30
 214 -12 214 -12 198 -5 c 1,31,-1
 70 376 l 1,32,-1
 1 397 l 1,0,1
EndSplineSet
EndChar

StartChar: x
Encoding: 120 120 91
Width: 500
GlyphClass: 2
Flags: HW
LayerCount: 2
Fore
SplineSet
15 0 m 1,0,1
 15 33 15 33 31 39 c 2,2,-1
 87 62 l 1,3,-1
 208 223 l 1,4,-1
 96 376 l 1,5,-1
 25 397 l 1,6,7
 25 417 25 417 29 426 c 128,-1,8
 33 435 33 435 44 443 c 1,9,-1
 234 443 l 1,10,11
 234 414 234 414 218 404 c 2,12,-1
 182 381 l 1,13,-1
 264 269 l 1,14,-1
 342 376 l 1,15,-1
 299 397 l 1,16,17
 299 417 299 417 303 426 c 128,-1,18
 307 435 307 435 318 443 c 1,19,-1
 469 443 l 1,20,21
 469 411 469 411 453 404 c 2,22,-1
 404 381 l 1,23,-1
 291 232 l 1,24,-1
 411 67 l 1,25,-1
 489 46 l 1,26,27
 489 26 489 26 485 17 c 128,-1,28
 481 8 481 8 470 0 c 1,29,-1
 271 0 l 1,30,31
 271 29 271 29 287 39 c 2,32,-1
 325 61 l 1,33,-1
 235 186 l 1,34,-1
 146 67 l 1,35,-1
 200 46 l 1,36,37
 200 26 200 26 196 17 c 128,-1,38
 192 8 192 8 181 0 c 1,39,-1
 15 0 l 1,0,1
EndSplineSet
EndChar

StartChar: y
Encoding: 121 121 92
Width: 494
GlyphClass: 2
Flags: HW
LayerCount: 2
Fore
SplineSet
11.5 -257 m 128,-1,1
 -5 -244 -5 -244 -5 -225.5 c 128,-1,2
 -5 -207 -5 -207 7 -192 c 1,3,-1
 69 -192 l 2,4,5
 131 -192 131 -192 152.5 -165.5 c 128,-1,6
 174 -139 174 -139 228 -4 c 1,7,-1
 70 376 l 1,8,-1
 1 397 l 1,9,10
 1 417 1 417 5 426 c 128,-1,11
 9 435 9 435 20 443 c 1,12,-1
 220 443 l 1,13,14
 220 410 220 410 204 404 c 2,15,-1
 150 381 l 1,16,-1
 268 91 l 1,17,-1
 380 376 l 1,18,-1
 307 397 l 1,19,20
 307 417 307 417 311 426 c 128,-1,21
 315 435 315 435 326 443 c 1,22,-1
 498 443 l 1,23,24
 498 411 498 411 482 404 c 2,25,-1
 433 381 l 1,26,-1
 281 0 l 2,27,28
 239 -105 239 -105 177 -187.5 c 128,-1,29
 115 -270 115 -270 56 -270 c 0,30,0
 28 -270 28 -270 11.5 -257 c 128,-1,1
EndSplineSet
EndChar

StartChar: z
Encoding: 122 122 93
Width: 438
GlyphClass: 2
Flags: HW
LayerCount: 2
Fore
SplineSet
28 25 m 0,0,1
 28 36 28 36 35 46 c 2,2,-1
 286 385 l 1,3,-1
 116 397 l 1,4,-1
 101 326 l 2,5,6
 98 310 98 310 63 310 c 1,7,-1
 50 443 l 1,8,-1
 366 443 l 2,9,10
 378 443 378 443 384.5 436 c 128,-1,11
 391 429 391 429 391 418 c 0,12,13
 391 407 391 407 384 397 c 2,14,-1
 134 58 l 1,15,-1
 332 46 l 1,16,-1
 343 143 l 1,17,18
 375 143 375 143 391 124 c 1,19,-1
 404 0 l 1,20,-1
 54 0 l 2,21,22
 28 0 28 0 28 25 c 0,0,1
EndSplineSet
EndChar

StartChar: braceleft
Encoding: 123 123 94
Width: 341
GlyphClass: 2
Flags: HW
LayerCount: 2
Fore
SplineSet
217 63 m 1,0,-1
 211 -86 l 1,1,2
 211 -137 211 -137 232.5 -163.5 c 128,-1,3
 254 -190 254 -190 322 -212 c 1,4,5
 335 -223 335 -223 335 -241.5 c 128,-1,6
 335 -260 335 -260 333 -270 c 1,7,8
 280.964285714 -270 280.964285714 -270 241.982142857 -251.5 c 128,-1,9
 203 -233 203 -233 181 -211 c 128,-1,10
 159 -189 159 -189 143.5 -150 c 128,-1,11
 128 -111 128 -111 128 -61 c 1,12,13
 132 -9 132 -9 132 63 c 128,-1,14
 132 135 132 135 107 179.5 c 128,-1,15
 82 224 82 224 9 224 c 1,16,17
 -4 235 -4 235 -4 264 c 0,18,19
 -4 270 -4 270 -2 284 c 1,20,21
 76 284 76 284 104 329 c 128,-1,22
 132 374 132 374 132 466 c 1,23,-1
 128 583 l 1,24,25
 128 640 128 640 151 681.5 c 128,-1,26
 174 723 174 723 209 742.5 c 0,27,28
 272.717948718 778 272.717948718 778 333 778 c 1,29,30
 335 768 335 768 335 749.5 c 128,-1,31
 335 731 335 731 322 720 c 1,32,33
 254 698 254 698 232.5 671.5 c 128,-1,34
 211 645 211 645 211 594 c 1,35,-1
 217 445 l 1,36,37
 217 365 217 365 181.5 323 c 128,-1,38
 146 281 146 281 78 259 c 1,39,40
 78 254 78 254 81 252 c 0,41,42
 148 230 148 230 182.5 186.5 c 128,-1,43
 217 143 217 143 217 63 c 1,0,-1
EndSplineSet
EndChar

StartChar: bar
Encoding: 124 124 95
Width: 225
GlyphClass: 2
Flags: HW
LayerCount: 2
Fore
SplineSet
78 -182 m 1,0,-1
 78 734 l 1,1,2
 127 734 127 734 147 716 c 1,3,-1
 147 -200 l 1,4,5
 98 -200 98 -200 78 -182 c 1,0,-1
EndSplineSet
EndChar

StartChar: braceright
Encoding: 125 125 96
Width: 341
GlyphClass: 2
Flags: HW
LayerCount: 2
Fore
SplineSet
209 45 m 1,0,-1
 213 -75 l 1,1,2
 213 -123 213 -123 196.5 -159.5 c 128,-1,3
 180 -196 180 -196 156 -216.5 c 128,-1,4
 132 -237 132 -237 102 -249.5 c 0,5,6
 52.8 -270 52.8 -270 8 -270 c 1,7,8
 6 -260 6 -260 6 -241.5 c 128,-1,9
 6 -223 6 -223 19 -212 c 1,10,11
 87 -190 87 -190 108.5 -163.5 c 128,-1,12
 130 -137 130 -137 130 -86 c 1,13,-1
 124 63 l 1,14,15
 124 144 124 144 158.5 187 c 128,-1,16
 193 230 193 230 260 252 c 0,17,18
 263 254 263 254 263 259 c 1,19,20
 196 280 196 280 160 323 c 128,-1,21
 124 366 124 366 124 445 c 1,22,-1
 130 594 l 1,23,24
 130 645 130 645 108.5 671.5 c 128,-1,25
 87 698 87 698 19 720 c 1,26,27
 6 731 6 731 6 749.5 c 128,-1,28
 6 768 6 768 8 778 c 1,29,30
 52.8 778 52.8 778 92.4 761.5 c 128,-1,31
 132 745 132 745 156 725 c 128,-1,32
 180 705 180 705 196.5 668 c 128,-1,33
 213 631 213 631 213 583 c 1,34,-1
 209 466 l 1,35,36
 209 374 209 374 237 329 c 128,-1,37
 265 284 265 284 343 284 c 1,38,39
 345 270 345 270 345 264 c 0,40,41
 345 235 345 235 332 224 c 1,42,43
 260 224 260 224 234.5 179 c 128,-1,44
 209 134 209 134 209 45 c 1,0,-1
EndSplineSet
EndChar

StartChar: asciitilde
Encoding: 126 126 97
Width: 504
GlyphClass: 2
Flags: HW
LayerCount: 2
Fore
SplineSet
51 254 m 0,0,1
 51 287 51 287 92 322.5 c 128,-1,2
 133 358 133 358 188 358 c 0,3,4
 218 358 218 358 278 333.5 c 128,-1,5
 338 309 338 309 364 309 c 0,6,7
 413 309 413 309 448 369 c 1,8,9
 460 356 460 356 460 339 c 0,10,11
 460 307 460 307 415.5 271.5 c 128,-1,12
 371 236 371 236 316 236 c 0,13,14
 287 236 287 236 229 260 c 128,-1,15
 171 284 171 284 144 284 c 0,16,17
 97 284 97 284 63 226 c 1,18,19
 51 241 51 241 51 254 c 0,0,1
EndSplineSet
EndChar

StartChar: exclamdown
Encoding: 161 161 99
Width: 224
GlyphClass: 2
Flags: HW
LayerCount: 2
Fore
SplineSet
60 433 m 0,0,1
 60 454 60 454 75.5 469 c 128,-1,2
 91 484 91 484 113.5 484 c 0,3,4
 136 484 136 484 149.5 470.5 c 128,-1,5
 163 457 163 457 163 434.5 c 0,6,7
 163 412 163 412 147.5 397 c 128,-1,8
 132 382 132 382 112 382 c 0,9,10
 60 382 60 382 60 433 c 0,0,1
62 -115 m 0,11,12
 62 -88 62 -88 88 287 c 1,13,14
 98 294 98 294 112 294 c 128,-1,15
 126 294 126 294 136 287 c 1,16,17
 162 -88 162 -88 162 -115 c 0,18,19
 162 -183 162 -183 112 -183 c 128,-1,20
 62 -183 62 -183 62 -115 c 0,11,12
EndSplineSet
EndChar

StartChar: cent
Encoding: 162 162 100
Width: 563
GlyphClass: 2
Flags: HW
LayerCount: 2
Fore
SplineSet
113.5 73.5 m 128,-1,1
 52 151 52 151 52 260 c 128,-1,2
 52 369 52 369 119 465 c 128,-1,3
 186 561 186 561 289 578 c 1,4,-1
 289 655 l 1,5,6
 318 655 318 655 328 645 c 1,7,-1
 328 581 l 1,8,9
 433 581 433 581 505 536 c 1,10,-1
 487 404 l 1,11,12
 448 407 448 407 444 421 c 1,13,-1
 433 493 l 1,14,15
 388 533 388 533 328 537 c 1,16,-1
 328 34 l 1,17,18
 392 39 392 39 433 86 c 1,19,-1
 444 184 l 1,20,21
 482 184 482 184 495 169 c 1,22,-1
 505 65 l 1,23,24
 424 -6 424 -6 328 -12 c 1,25,-1
 328 -88 l 1,26,27
 303 -88 303 -88 289 -78 c 1,28,-1
 289 -11 l 1,29,0
 175 -4 175 -4 113.5 73.5 c 128,-1,1
144 293 m 1,30,31
 144 195 144 195 184 121 c 128,-1,32
 224 47 224 47 289 35 c 1,33,-1
 289 534 l 1,34,35
 220 522 220 522 183 456.5 c 128,-1,36
 146 391 146 391 144 293 c 1,30,31
EndSplineSet
EndChar

StartChar: sterling
Encoding: 163 163 101
Width: 482
GlyphClass: 2
Flags: HW
LayerCount: 2
Fore
SplineSet
47 274 m 1,0,1
 47 299 47 299 57 313 c 1,2,-1
 101 313 l 1,3,4
 77 367 77 367 77 427.5 c 0,5,6
 77 488 77 488 123.5 534.5 c 128,-1,7
 170 581 170 581 248 581 c 0,8,9
 326 581 326 581 374.5 554 c 128,-1,10
 423 527 423 527 423 488 c 0,11,12
 423 469 423 469 410 455.5 c 128,-1,13
 397 442 397 442 375 442 c 0,14,15
 353 442 353 442 335 455 c 1,16,17
 335 495 335 495 313 515.5 c 128,-1,18
 291 536 291 536 248.5 536 c 0,19,20
 206 536 206 536 179 511.5 c 128,-1,21
 152 487 152 487 152 440 c 0,22,23
 152 393 152 393 195 313 c 1,24,-1
 334 313 l 1,25,26
 334 284 334 284 324 274 c 1,27,-1
 213 274 l 1,28,29
 226 244 226 244 226 214 c 0,30,31
 226 144 226 144 138 67 c 1,32,-1
 352 46 l 1,33,-1
 378 159 l 1,34,35
 411 159 411 159 425 140 c 1,36,-1
 425 0 l 1,37,-1
 93 0 l 1,38,39
 78 11 78 11 72.5 23.5 c 128,-1,40
 67 36 67 36 67 62 c 1,41,42
 154 142 154 142 154 194 c 0,43,44
 154 221 154 221 122 274 c 1,45,-1
 47 274 l 1,0,1
EndSplineSet
EndChar

StartChar: currency
Encoding: 164 164 102
Width: 670
GlyphClass: 2
Flags: HW
LayerCount: 2
Fore
SplineSet
46 26 m 1,0,-1
 162 147 l 1,1,2
 126 201 126 201 126 275 c 0,3,4
 126 349 126 349 170 414 c 1,5,-1
 46 543 l 1,6,7
 52 571 52 571 93 581 c 1,8,-1
 210 460 l 1,9,10
 268 508 268 508 345 508 c 0,11,12
 422 508 422 508 471 472 c 1,13,-1
 576 581 l 1,14,15
 617 571 617 571 623 543 c 1,16,-1
 513 429 l 1,17,18
 549 379 549 379 549 300.5 c 0,19,20
 549 222 549 222 501 154 c 1,21,-1
 623 26 l 1,22,23
 617 -2 617 -2 576 -12 c 1,24,-1
 459 111 l 1,25,26
 406 68 406 68 330 68 c 0,27,28
 254 68 254 68 204 104 c 1,29,-1
 93 -12 l 1,30,31
 52 -2 52 -2 46 26 c 1,0,-1
191 295 m 1,32,33
 191 226 191 226 229.5 179 c 128,-1,34
 268 132 268 132 340 132 c 0,35,36
 412 132 412 132 448 174.5 c 128,-1,37
 484 217 484 217 484 286 c 128,-1,38
 484 355 484 355 445 401 c 128,-1,39
 406 447 406 447 335.5 447 c 0,40,41
 265 447 265 447 229 404.5 c 128,-1,42
 193 362 193 362 191 295 c 1,32,33
EndSplineSet
EndChar

StartChar: yen
Encoding: 165 165 103
Width: 632
GlyphClass: 2
Flags: HW
LayerCount: 2
Fore
SplineSet
29 538 m 1,0,1
 29 567 29 567 46 581 c 1,2,-1
 272 581 l 1,3,4
 272 549 272 549 257 544 c 2,5,-1
 190 523 l 1,6,-1
 338 293 l 1,7,-1
 460 518 l 1,8,-1
 389 538 l 1,9,10
 389 569 389 569 406 581 c 1,11,-1
 603 581 l 1,12,13
 603 549 603 549 589 544 c 2,14,-1
 521 523 l 1,15,-1
 384 276 l 1,16,-1
 495 276 l 1,17,18
 495 247 495 247 485 237 c 1,19,-1
 362 237 l 1,20,-1
 362 182 l 1,21,-1
 495 182 l 1,22,23
 495 153 495 153 485 143 c 1,24,-1
 362 143 l 1,25,-1
 362 63 l 1,26,-1
 444 44 l 1,27,28
 444 14 444 14 427 0 c 1,29,-1
 212 0 l 1,30,31
 212 32 212 32 227 37 c 2,32,-1
 284 58 l 1,33,-1
 284 143 l 1,34,-1
 148 143 l 1,35,36
 148 168 148 168 158 182 c 1,37,-1
 284 182 l 1,38,-1
 284 237 l 1,39,-1
 148 237 l 1,40,41
 148 262 148 262 158 276 c 1,42,-1
 259 276 l 1,43,-1
 101 518 l 1,44,-1
 29 538 l 1,0,1
EndSplineSet
EndChar

StartChar: brokenbar
Encoding: 166 166 104
Width: 230
GlyphClass: 2
Flags: HW
LayerCount: 2
Fore
SplineSet
81 -152 m 1,0,-1
 84 143 l 1,1,-1
 148 143 l 1,2,-1
 147 -170 l 1,3,4
 101 -170 101 -170 81 -152 c 1,0,-1
83 391 m 1,5,-1
 83 704 l 1,6,7
 129 704 129 704 147 686 c 1,8,-1
 147 391 l 1,9,-1
 83 391 l 1,5,-1
EndSplineSet
EndChar

StartChar: section
Encoding: 167 167 105
Width: 419
GlyphClass: 2
Flags: HW
LayerCount: 2
Fore
SplineSet
49 100 m 0,0,1
 49 141 49 141 88 141 c 0,2,3
 109 141 109 141 128 122 c 1,4,5
 128 68 128 68 147 48 c 128,-1,6
 166 28 166 28 200 28 c 128,-1,7
 234 28 234 28 255 51 c 128,-1,8
 276 74 276 74 276 108 c 128,-1,9
 276 142 276 142 254.5 161.5 c 128,-1,10
 233 181 233 181 202.5 193 c 128,-1,11
 172 205 172 205 141 219.5 c 128,-1,12
 110 234 110 234 88.5 264 c 128,-1,13
 67 294 67 294 67 331 c 128,-1,14
 67 368 67 368 79 390.5 c 128,-1,15
 91 413 91 413 116 443 c 1,16,17
 77 479 77 479 77 532.5 c 128,-1,18
 77 586 77 586 113.5 620.5 c 128,-1,19
 150 655 150 655 211 655 c 128,-1,20
 272 655 272 655 311 631 c 128,-1,21
 350 607 350 607 350 572 c 0,22,23
 350 556 350 556 339.5 543.5 c 128,-1,24
 329 531 329 531 310 531 c 128,-1,25
 291 531 291 531 279 543 c 1,26,27
 279 579 279 579 261.5 597 c 128,-1,28
 244 615 244 615 213.5 615 c 128,-1,29
 183 615 183 615 164 595.5 c 128,-1,30
 145 576 145 576 145 547.5 c 128,-1,31
 145 519 145 519 167.5 501.5 c 128,-1,32
 190 484 190 484 222 471.5 c 128,-1,33
 254 459 254 459 286 443.5 c 128,-1,34
 318 428 318 428 340.5 397.5 c 128,-1,35
 363 367 363 367 363 329 c 128,-1,36
 363 291 363 291 351 269 c 128,-1,37
 339 247 339 247 314 218 c 1,38,39
 353 179 353 179 353 123 c 128,-1,40
 353 67 353 67 311.5 27.5 c 128,-1,41
 270 -12 270 -12 204.5 -12 c 128,-1,42
 139 -12 139 -12 94 18 c 128,-1,43
 49 48 49 48 49 100 c 0,0,1
149 421 m 1,44,45
 130 395 130 395 130 361.5 c 128,-1,46
 130 328 130 328 150.5 309.5 c 128,-1,47
 171 291 171 291 217.5 271.5 c 128,-1,48
 264 252 264 252 277 245 c 1,49,50
 290 269 290 269 290 301 c 128,-1,51
 290 333 290 333 275 352.5 c 128,-1,52
 260 372 260 372 242 380.5 c 128,-1,53
 224 389 224 389 193.5 401 c 128,-1,54
 163 413 163 413 149 421 c 1,44,45
EndSplineSet
EndChar

StartChar: dieresis
Encoding: 168 168 106
Width: 340
GlyphClass: 2
Flags: HW
LayerCount: 2
Fore
SplineSet
20 604 m 0,0,1
 20 622 20 622 34 636 c 128,-1,2
 48 650 48 650 68.5 650 c 0,3,4
 89 650 89 650 101 637.5 c 128,-1,5
 113 625 113 625 113 605.5 c 0,6,7
 113 586 113 586 98.5 572 c 128,-1,8
 84 558 84 558 66 558 c 0,9,10
 20 558 20 558 20 604 c 0,0,1
227 604 m 0,11,12
 227 622 227 622 241 636 c 128,-1,13
 255 650 255 650 275.5 650 c 0,14,15
 296 650 296 650 308 637.5 c 128,-1,16
 320 625 320 625 320 605.5 c 0,17,18
 320 586 320 586 305.5 572 c 128,-1,19
 291 558 291 558 273 558 c 0,20,21
 227 558 227 558 227 604 c 0,11,12
EndSplineSet
EndChar

StartChar: copyright
Encoding: 169 169 107
Width: 739
GlyphClass: 2
Flags: HW
LayerCount: 2
Fore
SplineSet
67 181 m 128,-1,1
 48 235 48 235 48 299 c 128,-1,2
 48 363 48 363 70.5 426.5 c 128,-1,3
 93 490 93 490 134 541.5 c 128,-1,4
 175 593 175 593 238.5 624 c 128,-1,5
 302 655 302 655 378 655 c 0,6,7
 530 655 530 655 610.5 565.5 c 128,-1,8
 691 476 691 476 691 347 c 0,9,10
 691 209.524390244 691 209.524390244 605 101.5 c 0,11,12
 564 50 564 50 500.5 19 c 128,-1,13
 437 -12 437 -12 360 -12 c 128,-1,14
 283 -12 283 -12 221.5 14 c 128,-1,15
 160 40 160 40 123 83.5 c 128,-1,0
 86 127 86 127 67 181 c 128,-1,1
168.5 528.5 m 128,-1,17
 103 451 103 451 103 328 c 128,-1,18
 103 205 103 205 173.5 121 c 128,-1,19
 244 37 244 37 373.5 37 c 128,-1,20
 503 37 503 37 569 114.5 c 128,-1,21
 635 192 635 192 635 316 c 128,-1,22
 635 440 635 440 564.5 523 c 128,-1,23
 494 606 494 606 364 606 c 128,-1,16
 234 606 234 606 168.5 528.5 c 128,-1,17
231 169 m 128,-1,25
 181 223 181 223 181 306 c 128,-1,26
 181 389 181 389 239 458.5 c 128,-1,27
 297 528 297 528 391 528 c 0,28,29
 466 528 466 528 516 498 c 1,30,-1
 505 403 l 1,31,32
 503 404 503 404 498 405 c 128,-1,33
 493 406 493 406 490 407 c 128,-1,34
 487 408 487 408 483.5 409 c 0,35,36
 476 411.142857143 476 411.142857143 476 417 c 2,37,-1
 468 468 l 1,38,39
 435 499 435 499 386 499 c 0,40,41
 314 499 314 499 278.5 451 c 128,-1,42
 243 403 243 403 243 326.5 c 128,-1,43
 243 250 243 250 280 197.5 c 128,-1,44
 317 145 317 145 375.5 145 c 128,-1,45
 434 145 434 145 467 182 c 1,46,-1
 474 252 l 1,47,48
 502 252 502 252 510 244 c 1,49,-1
 516 168 l 1,50,51
 457 115 457 115 381 115 c 0,52,24
 281 115 281 115 231 169 c 128,-1,25
EndSplineSet
EndChar

StartChar: ordfeminine
Encoding: 170 170 108
Width: 383
GlyphClass: 2
Flags: HW
LayerCount: 2
Fore
SplineSet
56 424 m 0,0,1
 56 494 56 494 152 517 c 2,2,-1
 219 533 l 1,3,-1
 219 565 l 2,4,5
 219 629 219 629 183 629 c 0,6,7
 160 629 160 629 149.5 616 c 128,-1,8
 139 603 139 603 137 573 c 1,9,-1
 136 572 l 1,10,11
 122 565 122 565 106.5 565 c 128,-1,12
 91 565 91 565 81 573.5 c 128,-1,13
 71 582 71 582 71 594 c 0,14,15
 71 617 71 617 107 636 c 128,-1,16
 143 655 143 655 194 655 c 0,17,18
 285 655 285 655 285 561 c 2,19,-1
 285 424 l 2,20,21
 285 401 285 401 294 401 c 0,22,23
 306 401 306 401 326 419 c 1,24,-1
 339 396 l 1,25,26
 306 363 306 363 271 363 c 0,27,28
 226 363 226 363 220 407 c 1,29,30
 176 363 176 363 135.5 363 c 128,-1,31
 95 363 95 363 75.5 381 c 128,-1,32
 56 399 56 399 56 424 c 0,0,1
75 265 m 1,33,34
 65 275 65 275 65 287 c 128,-1,35
 65 299 65 299 67 309 c 1,36,-1
 311 309 l 1,37,38
 321 299 321 299 321 287 c 128,-1,39
 321 275 321 275 319 265 c 1,40,-1
 75 265 l 1,33,34
131 475 m 128,-1,42
 121 460 121 460 121 443 c 128,-1,43
 121 426 121 426 128.5 415 c 128,-1,44
 136 404 136 404 151 404 c 128,-1,45
 166 404 166 404 186.5 417 c 128,-1,46
 207 430 207 430 219 445 c 1,47,-1
 219 509 l 1,48,-1
 159 494 l 2,49,41
 141 490 141 490 131 475 c 128,-1,42
EndSplineSet
EndChar

StartChar: guillemotleft
Encoding: 171 171 109
Width: 455
GlyphClass: 2
Flags: HW
LayerCount: 2
Fore
SplineSet
40 267 m 128,-1,1
 40 286 40 286 55 301 c 2,2,-1
 199 449 l 1,3,4
 223 432 223 432 223 404 c 1,5,-1
 121 267 l 1,6,-1
 223 130 l 1,7,8
 223 102 223 102 199 85 c 1,9,-1
 55 233 l 2,10,0
 40 248 40 248 40 267 c 128,-1,1
223 267 m 128,-1,12
 223 286 223 286 238 301 c 2,13,-1
 382 449 l 1,14,15
 406 432 406 432 406 404 c 1,16,-1
 304 267 l 1,17,-1
 406 130 l 1,18,19
 406 102 406 102 382 85 c 1,20,-1
 238 233 l 2,21,11
 223 248 223 248 223 267 c 128,-1,12
EndSplineSet
EndChar

StartChar: logicalnot
Encoding: 172 172 110
Width: 570
GlyphClass: 2
Flags: HW
LayerCount: 2
Fore
SplineSet
82 235 m 1,0,1
 68 246 68 246 68 269 c 128,-1,2
 68 292 68 292 71 299 c 1,3,-1
 501 299 l 1,4,-1
 501 145 l 1,5,6
 494 142 494 142 471 142 c 128,-1,7
 448 142 448 142 437 156 c 1,8,-1
 437 235 l 1,9,-1
 82 235 l 1,0,1
EndSplineSet
EndChar

StartChar: uni00AD
Encoding: 173 173 111
Width: 361
GlyphClass: 2
Flags: HW
LayerCount: 2
Fore
SplineSet
247 254 m 2,0,-1
 136 256 l 2,1,2
 93 256 93 256 60 252 c 1,3,4
 57 257 57 257 57 271 c 2,5,-1
 57 282 l 2,6,7
 57 336 57 336 110 336 c 2,8,-1
 237 334 l 2,9,10
 277 334 277 334 297 341 c 1,11,12
 300 326 300 326 300 322 c 2,13,-1
 300 308 l 2,14,15
 300 254 300 254 247 254 c 2,0,-1
EndSplineSet
EndChar

StartChar: registered
Encoding: 174 174 112
Width: 480
GlyphClass: 2
Flags: HW
LayerCount: 2
Fore
SplineSet
97.5 313 m 128,-1,1
 49 367 49 367 49 446 c 128,-1,2
 49 525 49 525 103 590 c 128,-1,3
 157 655 157 655 246.5 655 c 128,-1,4
 336 655 336 655 384 602 c 128,-1,5
 432 549 432 549 432 468 c 128,-1,6
 432 387 432 387 377.5 323 c 128,-1,7
 323 259 323 259 234.5 259 c 128,-1,0
 146 259 146 259 97.5 313 c 128,-1,1
129.5 572 m 128,-1,9
 92 529 92 529 92 462 c 128,-1,10
 92 395 92 395 131 348 c 128,-1,11
 170 301 170 301 242 301 c 128,-1,12
 314 301 314 301 351.5 342.5 c 128,-1,13
 389 384 389 384 389 452 c 128,-1,14
 389 520 389 520 349.5 567.5 c 128,-1,15
 310 615 310 615 238.5 615 c 128,-1,8
 167 615 167 615 129.5 572 c 128,-1,9
232 450 m 1,16,-1
 218 451 l 1,17,-1
 218 385 l 1,18,-1
 246 376 l 1,19,20
 246 364 246 364 237 361 c 1,21,-1
 151 361 l 1,22,23
 151 374 151 374 162 377 c 2,24,-1
 177 382 l 1,25,-1
 177 544 l 1,26,-1
 151 552 l 1,27,28
 151 562 151 562 159 568 c 1,29,-1
 244 568 l 2,30,31
 318 568 318 568 318 516 c 0,32,33
 318 474 318 474 276 456 c 1,34,35
 317 396 317 396 341 377 c 1,36,-1
 353 369 l 1,37,38
 353 357 353 357 331 357 c 0,39,40
 292 357 292 357 244 451 c 1,41,-1
 232 450 l 1,16,-1
218 470 m 1,42,43
 226 468 226 468 232 468 c 0,44,45
 277 468 277 468 277 514 c 0,46,47
 277 547 277 547 228 547 c 1,48,49
 225 546 225 546 222 546 c 2,50,-1
 218 546 l 1,51,-1
 218 470 l 1,42,43
EndSplineSet
EndChar

StartChar: macron
Encoding: 175 175 113
Width: 546
GlyphClass: 2
Flags: HW
LayerCount: 2
Fore
SplineSet
120 577 m 1,0,1
 106 588 106 588 106 611 c 128,-1,2
 106 634 106 634 109 641 c 1,3,-1
 437 641 l 1,4,5
 451 630 451 630 451 607 c 128,-1,6
 451 584 451 584 448 577 c 1,7,-1
 120 577 l 1,0,1
EndSplineSet
EndChar

StartChar: degree
Encoding: 176 176 114
Width: 300
GlyphClass: 2
Flags: HW
LayerCount: 2
Fore
SplineSet
65 472.5 m 128,-1,1
 39 502 39 502 39 547 c 128,-1,2
 39 592 39 592 72 623.5 c 128,-1,3
 105 655 105 655 156 655 c 128,-1,4
 207 655 207 655 235 626 c 128,-1,5
 263 597 263 597 263 555 c 128,-1,6
 263 513 263 513 231.5 478 c 128,-1,7
 200 443 200 443 145.5 443 c 128,-1,0
 91 443 91 443 65 472.5 c 128,-1,1
99 600 m 128,-1,9
 83 579 83 579 83 547 c 128,-1,10
 83 515 83 515 100.5 496 c 128,-1,11
 118 477 118 477 152 477 c 0,12,13
 218 477 218 477 218 545 c 0,14,15
 218 579 218 579 201 600 c 128,-1,16
 184 621 184 621 149.5 621 c 128,-1,8
 115 621 115 621 99 600 c 128,-1,9
EndSplineSet
EndChar

StartChar: plusminus
Encoding: 177 177 115
Width: 532
GlyphClass: 2
Flags: HW
LayerCount: 2
Fore
SplineSet
77 67 m 1,0,1
 63 78 63 78 63 100 c 128,-1,2
 63 122 63 122 66 129 c 1,3,-1
 455 129 l 1,4,5
 469 118 469 118 469 96 c 128,-1,6
 469 74 469 74 466 67 c 1,7,-1
 77 67 l 1,0,1
77 291 m 1,8,9
 63 302 63 302 63 324 c 128,-1,10
 63 346 63 346 66 353 c 1,11,-1
 233 353 l 1,12,-1
 233 467 l 1,13,14
 240 470 240 470 263.5 470 c 128,-1,15
 287 470 287 470 298 456 c 1,16,-1
 298 353 l 1,17,-1
 455 353 l 1,18,19
 469 342 469 342 469 320.5 c 128,-1,20
 469 299 469 299 466 290 c 1,21,-1
 297 290 l 1,22,-1
 297 174 l 1,23,24
 290 171 290 171 267 171 c 128,-1,25
 244 171 244 171 233 185 c 1,26,-1
 233 291 l 1,27,-1
 77 291 l 1,8,9
EndSplineSet
EndChar

StartChar: uni00B2
Encoding: 178 178 116
Width: 375
GlyphClass: 2
Flags: HW
LayerCount: 2
Fore
SplineSet
46 305 m 1,0,-1
 78 332 l 1,1,2
 235 454 235 454 235 557 c 0,3,4
 235 583 235 583 219 599.5 c 128,-1,5
 203 616 203 616 175.5 616 c 0,6,7
 148 616 148 616 115 595 c 1,8,-1
 108 547 l 1,9,10
 104 531 104 531 66 531 c 1,11,-1
 54 617 l 1,12,13
 121 655 121 655 180.5 655 c 0,14,15
 240 655 240 655 275.5 628.5 c 128,-1,16
 311 602 311 602 311 554 c 0,17,18
 311 524 311 524 297 492.5 c 128,-1,19
 283 461 283 461 268 440.5 c 128,-1,20
 253 420 253 420 219 389 c 128,-1,21
 185 358 185 358 172 348 c 2,22,-1
 122 310 l 1,23,-1
 260 301 l 1,24,-1
 279 371 l 1,25,26
 307 371 307 371 321 354 c 1,27,-1
 321 261 l 1,28,-1
 64 261 l 1,29,30
 46 274 46 274 46 305 c 1,0,-1
EndSplineSet
EndChar

StartChar: uni00B3
Encoding: 179 179 117
Width: 361
GlyphClass: 2
Flags: HW
LayerCount: 2
Fore
SplineSet
40 341 m 0,0,1
 40 376 40 376 75 376 c 0,2,3
 85 376 85 376 95 370.5 c 128,-1,4
 105 365 105 365 108 357 c 1,5,6
 108 322 108 322 124 308 c 128,-1,7
 140 294 140 294 174 294 c 0,8,9
 208 294 208 294 226 312 c 128,-1,10
 244 330 244 330 244 359 c 0,11,12
 244 416 244 416 171 438 c 1,13,14
 148 450 148 450 148 474 c 1,15,16
 236 502 236 502 236 556 c 0,17,18
 236 582 236 582 220 598.5 c 128,-1,19
 204 615 204 615 175.5 615 c 0,20,21
 147 615 147 615 116 595 c 1,22,-1
 109 547 l 1,23,24
 105 531 105 531 67 531 c 1,25,-1
 55 617 l 1,26,27
 122 655 122 655 180 655 c 0,28,29
 238 655 238 655 271.5 628.5 c 128,-1,30
 305 602 305 602 305 554 c 0,31,32
 305 497 305 497 232 465 c 1,33,34
 316 432 316 432 316 362 c 0,35,36
 316 311 316 311 279 282.5 c 128,-1,37
 242 254 242 254 178 254 c 0,38,39
 114 254 114 254 77 281.5 c 128,-1,40
 40 309 40 309 40 341 c 0,0,1
EndSplineSet
EndChar

StartChar: acute
Encoding: 180 180 118
Width: 266
GlyphClass: 2
Flags: HW
LayerCount: 2
Fore
SplineSet
20 540 m 1,0,-1
 126 657 l 1,1,2
 168.077922078 701.883116883 168.077922078 701.883116883 180.538961039 708.441558442 c 128,-1,3
 193 715 193 715 205.5 715 c 128,-1,4
 218 715 218 715 232 701 c 128,-1,5
 246 687 246 687 246 676 c 128,-1,6
 246 665 246 665 242.5 658 c 128,-1,7
 239 651 239 651 230 642.5 c 0,8,9
 216.41509434 629.669811321 216.41509434 629.669811321 180 606 c 2,10,-1
 41 518 l 1,11,12
 20 523 20 523 20 540 c 1,0,-1
EndSplineSet
EndChar

StartChar: uni00B5
Encoding: 181 181 119
Width: 614
GlyphClass: 2
Flags: HW
LayerCount: 2
Fore
SplineSet
52 -258 m 1,0,1
 52 -225 52 -225 68 -219 c 2,2,-1
 124 -196 l 1,3,-1
 124 381 l 1,4,-1
 68 404 l 2,5,6
 52 410 52 410 52 443 c 1,7,8
 120 451 120 451 153 451 c 0,9,10
 206 451 206 451 206 397 c 2,11,-1
 206 156 l 2,12,13
 206 107 206 107 226 83.5 c 128,-1,14
 246 60 246 60 293 60 c 0,15,16
 352 60 352 60 420 128 c 1,17,-1
 420 381 l 1,18,-1
 364 404 l 2,19,20
 348 410 348 410 348 443 c 1,21,22
 416 451 416 451 449 451 c 0,23,24
 502 451 502 451 502 397 c 2,25,-1
 502 90 l 2,26,27
 502 51 502 51 529 51 c 0,28,29
 551 51 551 51 574 68 c 1,30,-1
 591 44 l 1,31,32
 542 -12 542 -12 491 -12 c 0,33,34
 420 -12 420 -12 420 87 c 1,35,36
 394 54 394 54 347 21 c 128,-1,37
 300 -12 300 -12 255 -12 c 2,38,-1
 251 -12 l 2,39,40
 226 -12 226 -12 206 -6 c 1,41,-1
 206 -204 l 2,42,43
 206 -258 206 -258 153 -258 c 2,44,-1
 52 -258 l 1,0,1
EndSplineSet
EndChar

StartChar: paragraph
Encoding: 182 182 120
Width: 485
GlyphClass: 2
Flags: HW
LayerCount: 2
Fore
SplineSet
82.5 279 m 128,-1,1
 31 331 31 331 31 405 c 128,-1,2
 31 479 31 479 73.5 530 c 128,-1,3
 116 581 116 581 190 581 c 0,4,5
 207 581 207 581 243 577 c 1,6,-1
 243 228 l 1,7,8
 238 227 238 227 226 227 c 0,9,0
 134 227 134 227 82.5 279 c 128,-1,1
155.5 -187.5 m 128,-1,11
 139 -175 139 -175 139 -156.5 c 128,-1,12
 139 -138 139 -138 151 -122 c 1,13,14
 221.315789474 -122 221.315789474 -122 251.5 -106.5 c 0,15,16
 270 -97 270 -97 278.5 -76 c 0,17,18
 295 -35.2352941176 295 -35.2352941176 295 57 c 2,19,-1
 295 573 l 1,20,21
 402 573 402 573 444 581 c 1,22,23
 453 570 453 570 453 559 c 0,24,25
 453 512 453 512 377 512 c 1,26,-1
 377 152 l 2,27,28
 377 82 377 82 350 -0.5 c 128,-1,29
 323 -83 323 -83 279.5 -141.5 c 128,-1,30
 236 -200 236 -200 194 -200 c 0,31,10
 172 -200 172 -200 155.5 -187.5 c 128,-1,11
EndSplineSet
EndChar

StartChar: periodcentered
Encoding: 183 183 121
Width: 224
GlyphClass: 2
Flags: HW
LayerCount: 2
Fore
SplineSet
72 226.5 m 128,-1,1
 58 241 58 241 58 265 c 128,-1,2
 58 289 58 289 74 304.5 c 128,-1,3
 90 320 90 320 114 320 c 128,-1,4
 138 320 138 320 152.5 305.5 c 128,-1,5
 167 291 167 291 167 267 c 128,-1,6
 167 243 167 243 150.5 227.5 c 128,-1,7
 134 212 134 212 110 212 c 128,-1,0
 86 212 86 212 72 226.5 c 128,-1,1
EndSplineSet
EndChar

StartChar: cedilla
Encoding: 184 184 122
Width: 303
GlyphClass: 2
Flags: HW
LayerCount: 2
Fore
SplineSet
52.5 -245.5 m 128,-1,1
 20 -221 20 -221 20 -185.5 c 128,-1,2
 20 -150 20 -150 53 -150 c 0,3,4
 70 -150 70 -150 84 -164 c 1,5,6
 84 -238 84 -238 144 -238 c 0,7,8
 178 -238 178 -238 198 -220 c 128,-1,9
 218 -202 218 -202 218 -167 c 128,-1,10
 218 -132 218 -132 192.5 -113.5 c 128,-1,11
 167 -95 167 -95 122 -95 c 0,12,13
 117 -95 117 -95 95 -97 c 1,14,-1
 116 -9 l 1,15,16
 119 -9 119 -9 135 -10 c 128,-1,17
 151 -11 151 -11 159 -11 c 1,18,-1
 150 -53 l 1,19,20
 205 -53 205 -53 244 -78 c 128,-1,21
 283 -103 283 -103 283 -153 c 128,-1,22
 283 -203 283 -203 245 -236.5 c 128,-1,23
 207 -270 207 -270 146 -270 c 128,-1,0
 85 -270 85 -270 52.5 -245.5 c 128,-1,1
EndSplineSet
EndChar

StartChar: uni00B9
Encoding: 185 185 123
Width: 276
GlyphClass: 2
Flags: HW
LayerCount: 2
Fore
SplineSet
184 310 m 1,0,-1
 243 299 l 1,1,2
 243 273 243 273 227 261 c 1,3,-1
 54 261 l 1,4,5
 54 291 54 291 70 295 c 2,6,-1
 117 308 l 1,7,-1
 117 590 l 1,8,-1
 47 576 l 1,9,10
 41 590 41 590 41 600 c 128,-1,11
 41 610 41 610 47 618 c 1,12,-1
 156 655 l 1,13,-1
 184 655 l 1,14,-1
 184 310 l 1,0,-1
EndSplineSet
EndChar

StartChar: ordmasculine
Encoding: 186 186 124
Width: 404
GlyphClass: 2
Flags: HW
LayerCount: 2
Fore
SplineSet
85.5 403.5 m 128,-1,1
 51 444 51 444 51 507 c 128,-1,2
 51 570 51 570 96 612.5 c 128,-1,3
 141 655 141 655 208 655 c 128,-1,4
 275 655 275 655 312 615.5 c 128,-1,5
 349 576 349 576 349 518 c 128,-1,6
 349 460 349 460 306.5 411.5 c 128,-1,7
 264 363 264 363 192 363 c 128,-1,0
 120 363 120 363 85.5 403.5 c 128,-1,1
88 265 m 1,8,9
 78 275 78 275 78 287 c 128,-1,10
 78 299 78 299 80 309 c 1,11,-1
 324 309 l 1,12,13
 334 299 334 299 334 287 c 128,-1,14
 334 275 334 275 332 265 c 1,15,-1
 88 265 l 1,8,9
122 503 m 0,16,17
 122 454 122 454 144 422 c 128,-1,18
 166 390 166 390 202.5 390 c 128,-1,19
 239 390 239 390 258 421 c 128,-1,20
 277 452 277 452 277 504.5 c 128,-1,21
 277 557 277 557 255.5 593 c 128,-1,22
 234 629 234 629 197 629 c 0,23,24
 122 629 122 629 122 503 c 0,16,17
EndSplineSet
EndChar

StartChar: guillemotright
Encoding: 187 187 125
Width: 455
GlyphClass: 2
Flags: HW
LayerCount: 2
Fore
SplineSet
49 130 m 1,0,-1
 151 267 l 1,1,-1
 49 404 l 1,2,3
 49 432 49 432 73 449 c 1,4,-1
 217 301 l 2,5,6
 232 286 232 286 232 267 c 128,-1,7
 232 248 232 248 217 233 c 2,8,-1
 73 85 l 1,9,10
 49 102 49 102 49 130 c 1,0,-1
232 130 m 1,11,-1
 334 267 l 1,12,-1
 232 404 l 1,13,14
 232 432 232 432 256 449 c 1,15,-1
 400 301 l 2,16,17
 415 286 415 286 415 267 c 128,-1,18
 415 248 415 248 400 233 c 2,19,-1
 256 85 l 1,20,21
 232 102 232 102 232 130 c 1,11,-1
EndSplineSet
EndChar

StartChar: onequarter
Encoding: 188 188 126
Width: 757
GlyphClass: 3
Flags: HW
LayerCount: 2
Fore
SplineSet
180 310 m 1,0,-1
 239 299 l 1,1,2
 239 273 239 273 223 261 c 1,3,-1
 50 261 l 1,4,5
 50 291 50 291 66 295 c 2,6,-1
 113 308 l 1,7,-1
 113 590 l 1,8,-1
 43 576 l 1,9,10
 37 590 37 590 37 600 c 128,-1,11
 37 610 37 610 43 618 c 1,12,-1
 152 655 l 1,13,-1
 180 655 l 1,14,-1
 180 310 l 1,0,-1
231 15 m 1,15,-1
 439 655 l 1,16,-1
 454 655 l 2,17,18
 473 655 473 655 482 646 c 1,19,-1
 491 634 l 1,20,-1
 283 -6 l 1,21,-1
 268 -6 l 2,22,23
 246.666666667 -6 246.666666667 -6 240 4 c 1,24,-1
 231 15 l 1,15,-1
433 137 m 1,25,-1
 627 395 l 1,26,27
 673 395 673 395 673 358 c 2,28,-1
 673 139 l 1,29,-1
 710 139 l 1,30,-1
 710 94 l 1,31,-1
 673 94 l 1,32,-1
 673 50 l 1,33,34
 695 45 695 45 726 39 c 1,35,36
 726 13 726 13 710 1 c 1,37,-1
 553 1 l 1,38,39
 553 30 553 30 567 35 c 2,40,-1
 607 48 l 1,41,-1
 607 94 l 1,42,-1
 451 94 l 1,43,44
 433 107 433 107 433 137 c 1,25,-1
492 139 m 1,45,-1
 607 139 l 1,46,-1
 607 295 l 1,47,-1
 492 139 l 1,45,-1
EndSplineSet
EndChar

StartChar: onehalf
Encoding: 189 189 127
Width: 748
GlyphClass: 3
Flags: HW
LayerCount: 2
Fore
SplineSet
176 310 m 1,0,-1
 235 299 l 1,1,2
 235 273 235 273 219 261 c 1,3,-1
 46 261 l 1,4,5
 46 291 46 291 62 295 c 2,6,-1
 109 308 l 1,7,-1
 109 590 l 1,8,-1
 39 576 l 1,9,10
 33 590 33 590 33 600 c 128,-1,11
 33 610 33 610 39 618 c 1,12,-1
 148 655 l 1,13,-1
 176 655 l 1,14,-1
 176 310 l 1,0,-1
208 15 m 1,15,-1
 416 655 l 1,16,-1
 431 655 l 2,17,18
 450 655 450 655 459 646 c 1,19,-1
 468 634 l 1,20,-1
 260 -6 l 1,21,-1
 245 -6 l 2,22,23
 223.666666667 -6 223.666666667 -6 217 4 c 1,24,-1
 208 15 l 1,15,-1
436 45 m 1,25,-1
 468 72 l 1,26,27
 625 194 625 194 625 297 c 0,28,29
 625 323 625 323 609 339.5 c 128,-1,30
 593 356 593 356 565.5 356 c 128,-1,31
 538 356 538 356 505 335 c 1,32,-1
 498 287 l 1,33,34
 494 271 494 271 456 271 c 1,35,-1
 444 357 l 1,36,37
 511 395 511 395 570.5 395 c 128,-1,38
 630 395 630 395 665.5 368.5 c 128,-1,39
 701 342 701 342 701 294 c 0,40,41
 701 264 701 264 687 232.5 c 128,-1,42
 673 201 673 201 658 180.5 c 128,-1,43
 643 160 643 160 609 129 c 128,-1,44
 575 98 575 98 562 88 c 2,45,-1
 512 50 l 1,46,-1
 650 41 l 1,47,-1
 669 111 l 1,48,49
 697 111 697 111 711 94 c 1,50,-1
 711 1 l 1,51,-1
 454 1 l 1,52,53
 436 14 436 14 436 45 c 1,25,-1
EndSplineSet
EndChar

StartChar: threequarters
Encoding: 190 190 128
Width: 799
GlyphClass: 3
Flags: HW
LayerCount: 2
Fore
SplineSet
36 341 m 0,0,1
 36 376 36 376 71 376 c 0,2,3
 81 376 81 376 91 370.5 c 128,-1,4
 101 365 101 365 104 357 c 1,5,6
 104 322 104 322 120 308 c 128,-1,7
 136 294 136 294 170 294 c 128,-1,8
 204 294 204 294 222 312 c 128,-1,9
 240 330 240 330 240 359 c 0,10,11
 240 416 240 416 167 438 c 1,12,13
 144 450 144 450 144 474 c 1,14,15
 232 502 232 502 232 556 c 0,16,17
 232 582 232 582 216 598.5 c 128,-1,18
 200 615 200 615 171.5 615 c 128,-1,19
 143 615 143 615 112 595 c 1,20,-1
 105 547 l 1,21,22
 101 531 101 531 63 531 c 1,23,-1
 51 617 l 1,24,25
 118 655 118 655 176 655 c 128,-1,26
 234 655 234 655 267.5 628.5 c 128,-1,27
 301 602 301 602 301 554 c 0,28,29
 301 497 301 497 228 465 c 1,30,31
 312 432 312 432 312 362 c 0,32,33
 312 311 312 311 275 282.5 c 128,-1,34
 238 254 238 254 174 254 c 128,-1,35
 110 254 110 254 73 281.5 c 128,-1,36
 36 309 36 309 36 341 c 0,0,1
287 15 m 1,37,-1
 495 655 l 1,38,-1
 510 655 l 2,39,40
 529 655 529 655 538 646 c 1,41,-1
 547 634 l 1,42,-1
 339 -6 l 1,43,-1
 324 -6 l 2,44,45
 302.666666667 -6 302.666666667 -6 296 4 c 1,46,-1
 287 15 l 1,37,-1
475 137 m 1,47,-1
 669 395 l 1,48,49
 715 395 715 395 715 358 c 2,50,-1
 715 139 l 1,51,-1
 752 139 l 1,52,-1
 752 94 l 1,53,-1
 715 94 l 1,54,-1
 715 50 l 1,55,56
 737 45 737 45 768 39 c 1,57,58
 768 13 768 13 752 1 c 1,59,-1
 595 1 l 1,60,61
 595 30 595 30 609 35 c 2,62,-1
 649 48 l 1,63,-1
 649 94 l 1,64,-1
 493 94 l 1,65,66
 475 107 475 107 475 137 c 1,47,-1
534 139 m 1,67,-1
 649 139 l 1,68,-1
 649 295 l 1,69,-1
 534 139 l 1,67,-1
EndSplineSet
EndChar

StartChar: questiondown
Encoding: 191 191 129
Width: 420
GlyphClass: 2
Flags: HW
LayerCount: 2
Fore
SplineSet
30 -28 m 0,0,1
 30 59.5416666667 30 59.5416666667 107 120.5 c 0,2,3
 163.571428571 165.285714286 163.571428571 165.285714286 229 198 c 1,4,-1
 236 287 l 1,5,6
 246 294 246 294 262.5 294 c 128,-1,7
 279 294 279 294 289 287 c 1,8,-1
 299 176 l 1,9,10
 285.192307692 176 285.192307692 176 237.596153846 148.5 c 128,-1,11
 190 121 190 121 182 114 c 2,12,-1
 158 90 l 2,13,14
 142 74 142 74 136 59 c 0,15,16
 118 14 118 14 118 -30.5 c 128,-1,17
 118 -75 118 -75 143 -105.5 c 128,-1,18
 168 -136 168 -136 213 -136 c 0,19,20
 302 -136 302 -136 302 -37 c 1,21,22
 322 -17 322 -17 344 -17 c 128,-1,23
 366 -17 366 -17 378.5 -29.5 c 128,-1,24
 391 -42 391 -42 391 -65 c 0,25,26
 391 -114 391 -114 344 -148.5 c 128,-1,27
 297 -183 297 -183 216 -183 c 128,-1,28
 135 -183 135 -183 82.5 -141 c 128,-1,29
 30 -99 30 -99 30 -28 c 0,0,1
211 433 m 0,30,31
 211 454 211 454 226.5 469 c 128,-1,32
 242 484 242 484 264.5 484 c 128,-1,33
 287 484 287 484 300.5 470.5 c 128,-1,34
 314 457 314 457 314 434.5 c 128,-1,35
 314 412 314 412 298.5 397 c 128,-1,36
 283 382 283 382 263 382 c 0,37,38
 211 382 211 382 211 433 c 0,30,31
EndSplineSet
EndChar

StartChar: Agrave
Encoding: 192 192 130
Width: 653
GlyphClass: 2
Flags: HW
LayerCount: 2
Fore
SplineSet
-5 0 m 1,0,1
 -5 32 -5 32 11 39 c 2,2,-1
 73 62 l 1,3,-1
 281 618 l 2,4,5
 295 655 295 655 321 655 c 0,6,7
 337 655 337 655 353 648 c 1,8,-1
 582 67 l 1,9,-1
 668 46 l 1,10,11
 668 26 668 26 664 17 c 128,-1,12
 660 8 660 8 649 0 c 1,13,-1
 412 0 l 1,14,15
 412 34 412 34 428 39 c 1,16,-1
 489 66 l 1,17,-1
 431 215 l 1,18,-1
 191 215 l 1,19,-1
 135 67 l 1,20,-1
 224 46 l 1,21,22
 224 26 224 26 220 17 c 128,-1,23
 216 8 216 8 205 0 c 1,24,-1
 -5 0 l 1,0,1
193 816 m 0,25,26
 193 831 193 831 202 844.5 c 128,-1,27
 211 858 211 858 229 858 c 0,28,29
 247 858 247 858 285 838 c 128,-1,30
 323 818 323 818 427 755 c 2,31,-1
 447 743 l 1,32,33
 448 741 448 741 448 732 c 0,34,35
 448 723 448 723 434 715 c 1,36,37
 263 766 263 766 237 777 c 0,38,39
 193 796 193 796 193 816 c 0,25,26
210 267 m 1,40,-1
 410 267 l 1,41,-1
 308 529 l 1,42,-1
 210 267 l 1,40,-1
EndSplineSet
EndChar

StartChar: Aacute
Encoding: 193 193 131
Width: 653
GlyphClass: 2
Flags: HW
LayerCount: 2
Fore
SplineSet
-5 0 m 1,0,1
 -5 32 -5 32 11 39 c 2,2,-1
 73 62 l 1,3,-1
 281 618 l 2,4,5
 295 655 295 655 321 655 c 0,6,7
 337 655 337 655 353 648 c 1,8,-1
 582 67 l 1,9,-1
 668 46 l 1,10,11
 668 26 668 26 664 17 c 128,-1,12
 660 8 660 8 649 0 c 1,13,-1
 412 0 l 1,14,15
 412 34 412 34 428 39 c 1,16,-1
 489 66 l 1,17,-1
 431 215 l 1,18,-1
 191 215 l 1,19,-1
 135 67 l 1,20,-1
 224 46 l 1,21,22
 224 26 224 26 220 17 c 128,-1,23
 216 8 216 8 205 0 c 1,24,-1
 -5 0 l 1,0,1
210 267 m 1,25,-1
 410 267 l 1,26,-1
 308 529 l 1,27,-1
 210 267 l 1,25,-1
233 715 m 1,28,29
 219 723 219 723 219 732 c 128,-1,30
 219 741 219 741 220 743 c 1,31,32
 382 841 382 841 414 852 c 0,33,34
 429 858 429 858 442.5 858 c 128,-1,35
 456 858 456 858 465 844.5 c 128,-1,36
 474 831 474 831 474 816 c 0,37,38
 474 786 474 786 290 732 c 2,39,-1
 233 715 l 1,28,29
EndSplineSet
EndChar

StartChar: Acircumflex
Encoding: 194 194 132
Width: 653
GlyphClass: 2
Flags: HW
LayerCount: 2
Fore
SplineSet
-5 0 m 1,0,1
 -5 32 -5 32 11 39 c 2,2,-1
 73 62 l 1,3,-1
 281 618 l 2,4,5
 295 655 295 655 321 655 c 0,6,7
 337 655 337 655 353 648 c 1,8,-1
 582 67 l 1,9,-1
 668 46 l 1,10,11
 668 26 668 26 664 17 c 128,-1,12
 660 8 660 8 649 0 c 1,13,-1
 412 0 l 1,14,15
 412 34 412 34 428 39 c 1,16,-1
 489 66 l 1,17,-1
 431 215 l 1,18,-1
 191 215 l 1,19,-1
 135 67 l 1,20,-1
 224 46 l 1,21,22
 224 26 224 26 220 17 c 128,-1,23
 216 8 216 8 205 0 c 1,24,-1
 -5 0 l 1,0,1
142 737 m 1,25,-1
 143 743 l 1,26,-1
 280 839 l 2,27,28
 307 858 307 858 325 858 c 0,29,30
 343 858 343 858 368 839 c 1,31,-1
 505 743 l 1,32,33
 506 740 506 740 506 737 c 0,34,35
 506 723 506 723 492 715 c 1,36,-1
 324 787 l 1,37,-1
 156 715 l 1,38,39
 142 723 142 723 142 737 c 1,25,-1
210 267 m 1,40,-1
 410 267 l 1,41,-1
 308 529 l 1,42,-1
 210 267 l 1,40,-1
EndSplineSet
EndChar

StartChar: Atilde
Encoding: 195 195 133
Width: 653
GlyphClass: 2
Flags: HW
LayerCount: 2
Fore
SplineSet
-5 0 m 1,0,1
 -5 32 -5 32 11 39 c 2,2,-1
 73 62 l 1,3,-1
 281 618 l 2,4,5
 295 655 295 655 321 655 c 0,6,7
 337 655 337 655 353 648 c 1,8,-1
 582 67 l 1,9,-1
 668 46 l 1,10,11
 668 26 668 26 664 17 c 128,-1,12
 660 8 660 8 649 0 c 1,13,-1
 412 0 l 1,14,15
 412 34 412 34 428 39 c 1,16,-1
 489 66 l 1,17,-1
 431 215 l 1,18,-1
 191 215 l 1,19,-1
 135 67 l 1,20,-1
 224 46 l 1,21,22
 224 26 224 26 220 17 c 128,-1,23
 216 8 216 8 205 0 c 1,24,-1
 -5 0 l 1,0,1
161 737 m 0,25,26
 161 765 161 765 194.5 794.5 c 128,-1,27
 228 824 228 824 275 824 c 0,28,29
 300 824 300 824 349.5 803.5 c 128,-1,30
 399 783 399 783 422 783 c 0,31,32
 463 783 463 783 492 833 c 1,33,34
 502 822 502 822 502 808 c 0,35,36
 502 782 502 782 465 752 c 128,-1,37
 428 722 428 722 382 722 c 0,38,39
 358 722 358 722 310 742 c 128,-1,40
 262 762 262 762 239 762 c 0,41,42
 199 762 199 762 171 714 c 1,43,44
 161 725 161 725 161 737 c 0,25,26
210 267 m 1,45,-1
 410 267 l 1,46,-1
 308 529 l 1,47,-1
 210 267 l 1,45,-1
EndSplineSet
EndChar

StartChar: Adieresis
Encoding: 196 196 134
Width: 653
GlyphClass: 2
Flags: HW
LayerCount: 2
Fore
SplineSet
-5 0 m 1,0,1
 -5 32 -5 32 11 39 c 2,2,-1
 73 62 l 1,3,-1
 281 618 l 2,4,5
 295 655 295 655 321 655 c 0,6,7
 337 655 337 655 353 648 c 1,8,-1
 582 67 l 1,9,-1
 668 46 l 1,10,11
 668 26 668 26 664 17 c 128,-1,12
 660 8 660 8 649 0 c 1,13,-1
 412 0 l 1,14,15
 412 34 412 34 428 39 c 1,16,-1
 489 66 l 1,17,-1
 431 215 l 1,18,-1
 191 215 l 1,19,-1
 135 67 l 1,20,-1
 224 46 l 1,21,22
 224 26 224 26 220 17 c 128,-1,23
 216 8 216 8 205 0 c 1,24,-1
 -5 0 l 1,0,1
173 782 m 0,25,26
 173 800 173 800 187 814 c 128,-1,27
 201 828 201 828 221.5 828 c 0,28,29
 242 828 242 828 254 815.5 c 128,-1,30
 266 803 266 803 266 783.5 c 0,31,32
 266 764 266 764 251.5 750 c 128,-1,33
 237 736 237 736 219 736 c 0,34,35
 173 736 173 736 173 782 c 0,25,26
210 267 m 1,36,-1
 410 267 l 1,37,-1
 308 529 l 1,38,-1
 210 267 l 1,36,-1
380 782 m 0,39,40
 380 800 380 800 394 814 c 128,-1,41
 408 828 408 828 428.5 828 c 0,42,43
 449 828 449 828 461 815.5 c 128,-1,44
 473 803 473 803 473 783.5 c 0,45,46
 473 764 473 764 458.5 750 c 128,-1,47
 444 736 444 736 426 736 c 0,48,49
 380 736 380 736 380 782 c 0,39,40
EndSplineSet
EndChar

StartChar: Aring
Encoding: 197 197 135
Width: 653
GlyphClass: 2
Flags: HW
LayerCount: 2
Fore
SplineSet
-5 0 m 1,0,1
 -5 32 -5 32 11 39 c 2,2,-1
 73 62 l 1,3,-1
 281 618 l 2,4,5
 295 655 295 655 321 655 c 0,6,7
 337 655 337 655 353 648 c 1,8,-1
 582 67 l 1,9,-1
 668 46 l 1,10,11
 668 26 668 26 664 17 c 128,-1,12
 660 8 660 8 649 0 c 1,13,-1
 412 0 l 1,14,15
 412 34 412 34 428 39 c 1,16,-1
 489 66 l 1,17,-1
 431 215 l 1,18,-1
 191 215 l 1,19,-1
 135 67 l 1,20,-1
 224 46 l 1,21,22
 224 26 224 26 220 17 c 128,-1,23
 216 8 216 8 205 0 c 1,24,-1
 -5 0 l 1,0,1
210 267 m 1,25,-1
 410 267 l 1,26,-1
 308 529 l 1,27,-1
 210 267 l 1,25,-1
219 770 m 128,-1,29
 219 807 219 807 251 832.5 c 128,-1,30
 283 858 283 858 333 858 c 128,-1,31
 383 858 383 858 408.5 834 c 128,-1,32
 434 810 434 810 434 775.5 c 0,33,34
 434 741 434 741 402.5 711.5 c 128,-1,35
 371 682 371 682 319 682 c 0,36,37
 267 682 267 682 243 707.5 c 128,-1,28
 219 733 219 733 219 770 c 128,-1,29
272 765 m 0,38,39
 272 739 272 739 288 722 c 128,-1,40
 304 705 304 705 328 705 c 0,41,42
 352 705 352 705 366.5 722 c 128,-1,43
 381 739 381 739 381 768.5 c 0,44,45
 381 798 381 798 365.5 817.5 c 128,-1,46
 350 837 350 837 323 837 c 0,47,48
 272 837 272 837 272 765 c 0,38,39
EndSplineSet
EndChar

StartChar: AE
Encoding: 198 198 136
Width: 871
GlyphClass: 2
Flags: HW
LayerCount: 2
Fore
SplineSet
-36 0 m 1,0,1
 -36 34 -36 34 -20 40 c 2,2,-1
 42 63 l 1,3,-1
 433 574 l 1,4,-1
 354 595 l 1,5,6
 354 628 354 628 373 641 c 1,7,-1
 800 641 l 1,8,-1
 800 488 l 1,9,10
 766 488 766 488 761 504 c 2,11,-1
 728 595 l 1,12,-1
 525 579 l 1,13,-1
 525 333 l 1,14,-1
 695 333 l 1,15,-1
 715 393 l 1,16,17
 732 393 732 393 738.5 390 c 128,-1,18
 745 387 745 387 754 377 c 1,19,-1
 754 237 l 1,20,21
 745 227 745 227 738.5 224 c 128,-1,22
 732 221 732 221 715 221 c 1,23,-1
 695 281 l 1,24,-1
 525 281 l 1,25,-1
 525 67 l 1,26,-1
 754 46 l 1,27,-1
 785 168 l 1,28,29
 805 168 805 168 814 164 c 128,-1,30
 823 160 823 160 831 149 c 1,31,-1
 831 0 l 1,32,-1
 360 0 l 1,33,34
 360 34 360 34 376 39 c 2,35,-1
 439 62 l 1,36,-1
 439 281 l 1,37,-1
 282 281 l 1,38,-1
 118 67 l 1,39,-1
 208 46 l 1,40,41
 208 26 208 26 204 17.5 c 128,-1,42
 200 9 200 9 188 0 c 1,43,-1
 -36 0 l 1,0,1
321 333 m 1,44,-1
 438 333 l 1,45,-1
 438 486 l 1,46,-1
 321 333 l 1,44,-1
EndSplineSet
EndChar

StartChar: Ccedilla
Encoding: 199 199 137
Width: 636
GlyphClass: 2
Flags: HW
LayerCount: 2
Fore
SplineSet
48 289 m 0,0,1
 48 379 48 379 87.5 461.5 c 128,-1,2
 127 544 127 544 206.5 599.5 c 128,-1,3
 286 655 286 655 397.5 655 c 0,4,5
 509 655 509 655 589 605 c 1,6,-1
 571 453 l 1,7,8
 527 456 527 456 524 474 c 2,9,-1
 511 558 l 1,10,11
 456 606 456 606 380 606 c 0,12,13
 264 606 264 606 208 530 c 128,-1,14
 152 454 152 454 150 332 c 1,15,16
 150 208 150 208 209.5 122.5 c 128,-1,17
 269 37 269 37 371 37 c 0,18,19
 457 37 457 37 509 96 c 1,20,-1
 522 209 l 1,21,22
 565 209 565 209 578 196 c 1,23,-1
 589 73 l 1,24,25
 496 -8 496 -8 380 -12 c 1,26,-1
 371 -53 l 1,27,28
 426 -53 426 -53 465 -78 c 128,-1,29
 504 -103 504 -103 504 -153 c 0,30,31
 504 -203 504 -203 466 -236.5 c 128,-1,32
 428 -270 428 -270 367 -270 c 0,33,34
 306 -270 306 -270 273.5 -245.5 c 128,-1,35
 241 -221 241 -221 241 -185.5 c 0,36,37
 241 -150 241 -150 274 -150 c 0,38,39
 291 -150 291 -150 305 -164 c 1,40,41
 305 -238 305 -238 365 -238 c 0,42,43
 399 -238 399 -238 419 -220 c 128,-1,44
 439 -202 439 -202 439 -167 c 128,-1,45
 439 -132 439 -132 413.5 -113.5 c 128,-1,46
 388 -95 388 -95 343 -95 c 0,47,48
 338 -95 338 -95 316 -97 c 1,49,-1
 337 -11 l 1,50,51
 194 -1 194 -1 121 84.5 c 128,-1,52
 48 170 48 170 48 289 c 0,0,1
EndSplineSet
EndChar

StartChar: Egrave
Encoding: 200 200 138
Width: 576
GlyphClass: 2
Flags: HW
LayerCount: 2
Fore
SplineSet
45 0 m 1,0,1
 45 34 45 34 61 39 c 2,2,-1
 124 62 l 1,3,-1
 124 574 l 1,4,-1
 45 595 l 1,5,6
 45 628 45 628 64 641 c 1,7,-1
 505 641 l 1,8,-1
 505 488 l 1,9,10
 471 488 471 488 466 504 c 2,11,-1
 433 595 l 1,12,-1
 210 579 l 1,13,-1
 210 351 l 1,14,-1
 400 351 l 1,15,-1
 420 426 l 1,16,17
 437 426 437 426 443.5 423 c 128,-1,18
 450 420 450 420 459 410 c 1,19,-1
 459 240 l 1,20,21
 450 230 450 230 443.5 227 c 128,-1,22
 437 224 437 224 420 224 c 1,23,-1
 400 299 l 1,24,-1
 210 299 l 1,25,-1
 210 67 l 1,26,-1
 459 46 l 1,27,-1
 490 168 l 1,28,29
 510 168 510 168 519 164 c 128,-1,30
 528 160 528 160 536 149 c 1,31,-1
 536 0 l 1,32,-1
 45 0 l 1,0,1
144 816 m 0,33,34
 144 831 144 831 153 844.5 c 128,-1,35
 162 858 162 858 180 858 c 0,36,37
 198 858 198 858 236 838 c 128,-1,38
 274 818 274 818 378 755 c 2,39,-1
 398 743 l 1,40,41
 399 741 399 741 399 732 c 0,42,43
 399 723 399 723 385 715 c 1,44,45
 214 766 214 766 188 777 c 0,46,47
 144 796 144 796 144 816 c 0,33,34
EndSplineSet
EndChar

StartChar: Eacute
Encoding: 201 201 139
Width: 576
GlyphClass: 2
Flags: HW
LayerCount: 2
Fore
SplineSet
45 0 m 1,0,1
 45 34 45 34 61 39 c 2,2,-1
 124 62 l 1,3,-1
 124 574 l 1,4,-1
 45 595 l 1,5,6
 45 628 45 628 64 641 c 1,7,-1
 505 641 l 1,8,-1
 505 488 l 1,9,10
 471 488 471 488 466 504 c 2,11,-1
 433 595 l 1,12,-1
 210 579 l 1,13,-1
 210 351 l 1,14,-1
 400 351 l 1,15,-1
 420 426 l 1,16,17
 437 426 437 426 443.5 423 c 128,-1,18
 450 420 450 420 459 410 c 1,19,-1
 459 240 l 1,20,21
 450 230 450 230 443.5 227 c 128,-1,22
 437 224 437 224 420 224 c 1,23,-1
 400 299 l 1,24,-1
 210 299 l 1,25,-1
 210 67 l 1,26,-1
 459 46 l 1,27,-1
 490 168 l 1,28,29
 510 168 510 168 519 164 c 128,-1,30
 528 160 528 160 536 149 c 1,31,-1
 536 0 l 1,32,-1
 45 0 l 1,0,1
218 715 m 1,33,34
 204 723 204 723 204 732 c 128,-1,35
 204 741 204 741 205 743 c 1,36,37
 367 841 367 841 399 852 c 0,38,39
 414 858 414 858 427.5 858 c 128,-1,40
 441 858 441 858 450 844.5 c 128,-1,41
 459 831 459 831 459 816 c 0,42,43
 459 786 459 786 275 732 c 2,44,-1
 218 715 l 1,33,34
EndSplineSet
EndChar

StartChar: Ecircumflex
Encoding: 202 202 140
Width: 576
GlyphClass: 2
Flags: HW
LayerCount: 2
Fore
SplineSet
45 0 m 1,0,1
 45 34 45 34 61 39 c 2,2,-1
 124 62 l 1,3,-1
 124 574 l 1,4,-1
 45 595 l 1,5,6
 45 628 45 628 64 641 c 1,7,-1
 505 641 l 1,8,-1
 505 488 l 1,9,10
 471 488 471 488 466 504 c 2,11,-1
 433 595 l 1,12,-1
 210 579 l 1,13,-1
 210 351 l 1,14,-1
 400 351 l 1,15,-1
 420 411 l 1,16,17
 437 411 437 411 443.5 408 c 128,-1,18
 450 405 450 405 459 395 c 1,19,-1
 459 255 l 1,20,21
 450 245 450 245 443.5 242 c 128,-1,22
 437 239 437 239 420 239 c 1,23,-1
 400 299 l 1,24,-1
 210 299 l 1,25,-1
 210 67 l 1,26,-1
 459 46 l 1,27,-1
 490 168 l 1,28,29
 510 168 510 168 519 164 c 128,-1,30
 528 160 528 160 536 149 c 1,31,-1
 536 0 l 1,32,-1
 45 0 l 1,0,1
115 737 m 1,33,-1
 116 743 l 1,34,-1
 253 839 l 2,35,36
 280 858 280 858 298 858 c 0,37,38
 316 858 316 858 341 839 c 1,39,-1
 478 743 l 1,40,41
 479 740 479 740 479 737 c 0,42,43
 479 723 479 723 465 715 c 1,44,-1
 297 787 l 1,45,-1
 129 715 l 1,46,47
 115 723 115 723 115 737 c 1,33,-1
EndSplineSet
EndChar

StartChar: Edieresis
Encoding: 203 203 141
Width: 576
GlyphClass: 2
Flags: HW
LayerCount: 2
Fore
SplineSet
45 0 m 1,0,1
 45 34 45 34 61 39 c 2,2,-1
 124 62 l 1,3,-1
 124 574 l 1,4,-1
 45 595 l 1,5,6
 45 628 45 628 64 641 c 1,7,-1
 505 641 l 1,8,-1
 505 488 l 1,9,10
 471 488 471 488 466 504 c 2,11,-1
 433 595 l 1,12,-1
 210 579 l 1,13,-1
 210 351 l 1,14,-1
 400 351 l 1,15,-1
 420 426 l 1,16,17
 437 426 437 426 443.5 423 c 128,-1,18
 450 420 450 420 459 410 c 1,19,-1
 459 240 l 1,20,21
 450 230 450 230 443.5 227 c 128,-1,22
 437 224 437 224 420 224 c 1,23,-1
 400 299 l 1,24,-1
 210 299 l 1,25,-1
 210 67 l 1,26,-1
 459 46 l 1,27,-1
 490 168 l 1,28,29
 510 168 510 168 519 164 c 128,-1,30
 528 160 528 160 536 149 c 1,31,-1
 536 0 l 1,32,-1
 45 0 l 1,0,1
150 782 m 0,33,34
 150 800 150 800 164 814 c 128,-1,35
 178 828 178 828 198.5 828 c 0,36,37
 219 828 219 828 231 815.5 c 128,-1,38
 243 803 243 803 243 783.5 c 0,39,40
 243 764 243 764 228.5 750 c 128,-1,41
 214 736 214 736 196 736 c 0,42,43
 150 736 150 736 150 782 c 0,33,34
357 782 m 0,44,45
 357 800 357 800 371 814 c 128,-1,46
 385 828 385 828 405.5 828 c 0,47,48
 426 828 426 828 438 815.5 c 128,-1,49
 450 803 450 803 450 783.5 c 0,50,51
 450 764 450 764 435.5 750 c 128,-1,52
 421 736 421 736 403 736 c 0,53,54
 357 736 357 736 357 782 c 0,44,45
EndSplineSet
EndChar

StartChar: Igrave
Encoding: 204 204 142
Width: 337
GlyphClass: 2
Flags: HW
LayerCount: 2
Fore
SplineSet
30 816 m 0,0,1
 30 831 30 831 39 844.5 c 128,-1,2
 48 858 48 858 66 858 c 0,3,4
 84 858 84 858 122 838 c 128,-1,5
 160 818 160 818 264 755 c 2,6,-1
 284 743 l 1,7,8
 285 741 285 741 285 732 c 0,9,10
 285 723 285 723 271 715 c 1,11,12
 100 766 100 766 74 777 c 0,13,14
 30 796 30 796 30 816 c 0,0,1
45 0 m 1,15,16
 45 34 45 34 61 39 c 2,17,-1
 124 62 l 1,18,-1
 124 574 l 1,19,-1
 45 595 l 1,20,21
 45 615 45 615 49 624 c 128,-1,22
 53 633 53 633 64 641 c 1,23,-1
 300 641 l 1,24,25
 300 607 300 607 284 602 c 2,26,-1
 210 579 l 1,27,-1
 210 67 l 1,28,-1
 300 46 l 1,29,30
 300 26 300 26 296 17 c 128,-1,31
 292 8 292 8 281 0 c 1,32,-1
 45 0 l 1,15,16
EndSplineSet
EndChar

StartChar: Iacute
Encoding: 205 205 143
Width: 337
GlyphClass: 2
Flags: HW
LayerCount: 2
Fore
SplineSet
45 0 m 1,0,1
 45 34 45 34 61 39 c 2,2,-1
 124 62 l 1,3,-1
 124 574 l 1,4,-1
 45 595 l 1,5,6
 45 615 45 615 49 624 c 128,-1,7
 53 633 53 633 64 641 c 1,8,-1
 300 641 l 1,9,10
 300 607 300 607 284 602 c 2,11,-1
 210 579 l 1,12,-1
 210 67 l 1,13,-1
 300 46 l 1,14,15
 300 26 300 26 296 17 c 128,-1,16
 292 8 292 8 281 0 c 1,17,-1
 45 0 l 1,0,1
73 715 m 1,18,19
 59 723 59 723 59 732 c 128,-1,20
 59 741 59 741 60 743 c 1,21,22
 222 841 222 841 254 852 c 0,23,24
 269 858 269 858 282.5 858 c 128,-1,25
 296 858 296 858 305 844.5 c 128,-1,26
 314 831 314 831 314 816 c 0,27,28
 314 786 314 786 130 732 c 2,29,-1
 73 715 l 1,18,19
EndSplineSet
EndChar

StartChar: Icircumflex
Encoding: 206 206 144
Width: 337
GlyphClass: 2
Flags: HW
LayerCount: 2
Fore
SplineSet
-14 737 m 1,0,-1
 -13 743 l 1,1,-1
 124 839 l 2,2,3
 151 858 151 858 169 858 c 0,4,5
 187 858 187 858 212 839 c 1,6,-1
 349 743 l 1,7,8
 350 740 350 740 350 737 c 0,9,10
 350 723 350 723 336 715 c 1,11,-1
 168 787 l 1,12,-1
 0 715 l 1,13,14
 -14 723 -14 723 -14 737 c 1,0,-1
45 0 m 1,15,16
 45 34 45 34 61 39 c 2,17,-1
 124 62 l 1,18,-1
 124 574 l 1,19,-1
 45 595 l 1,20,21
 45 615 45 615 49 624 c 128,-1,22
 53 633 53 633 64 641 c 1,23,-1
 300 641 l 1,24,25
 300 607 300 607 284 602 c 2,26,-1
 210 579 l 1,27,-1
 210 67 l 1,28,-1
 300 46 l 1,29,30
 300 26 300 26 296 17 c 128,-1,31
 292 8 292 8 281 0 c 1,32,-1
 45 0 l 1,15,16
EndSplineSet
EndChar

StartChar: Idieresis
Encoding: 207 207 145
Width: 337
GlyphClass: 2
Flags: HW
LayerCount: 2
Fore
SplineSet
24 782 m 0,0,1
 24 800 24 800 38 814 c 128,-1,2
 52 828 52 828 72.5 828 c 128,-1,3
 93 828 93 828 105 815.5 c 128,-1,4
 117 803 117 803 117 783.5 c 128,-1,5
 117 764 117 764 102.5 750 c 128,-1,6
 88 736 88 736 70 736 c 0,7,8
 24 736 24 736 24 782 c 0,0,1
45 0 m 1,9,10
 45 34 45 34 61 39 c 2,11,-1
 124 62 l 1,12,-1
 124 574 l 1,13,-1
 45 595 l 1,14,15
 45 615 45 615 49 624 c 128,-1,16
 53 633 53 633 64 641 c 1,17,-1
 300 641 l 1,18,19
 300 607 300 607 284 602 c 2,20,-1
 210 579 l 1,21,-1
 210 67 l 1,22,-1
 300 46 l 1,23,24
 300 26 300 26 296 17 c 128,-1,25
 292 8 292 8 281 0 c 1,26,-1
 45 0 l 1,9,10
242.5 748.5 m 128,-1,28
 230 761 230 761 230.5 780.5 c 128,-1,29
 231 800 231 800 245 814 c 128,-1,30
 259 828 259 828 279.5 828 c 128,-1,31
 300 828 300 828 312 815.5 c 128,-1,32
 324 803 324 803 324 783.5 c 128,-1,33
 324 764 324 764 309.5 750 c 128,-1,34
 295 736 295 736 275 736 c 128,-1,27
 255 736 255 736 242.5 748.5 c 128,-1,28
EndSplineSet
EndChar

StartChar: Eth
Encoding: 208 208 146
Width: 714
GlyphClass: 2
Flags: HW
LayerCount: 2
Fore
SplineSet
49 0 m 1,0,1
 49 34 49 34 65 39 c 2,2,-1
 128 62 l 1,3,-1
 128 290 l 1,4,-1
 58 286 l 1,5,6
 49 296 49 296 49 312.5 c 0,7,8
 49 329 49 329 68 343.5 c 128,-1,9
 87 358 87 358 126 358 c 2,10,-1
 128 358 l 1,11,-1
 128 574 l 1,12,-1
 49 595 l 1,13,14
 49 628 49 628 68 641 c 1,15,-1
 352 641 l 2,16,17
 504 641 504 641 584.5 555.5 c 128,-1,18
 665 470 665 470 665 345 c 0,19,20
 665 258 665 258 627 180.5 c 128,-1,21
 589 103 589 103 512 51.5 c 128,-1,22
 435 0 435 0 335 0 c 2,23,-1
 49 0 l 1,0,1
214 67 m 1,24,25
 275 46 275 46 343 46 c 0,26,27
 453 46 453 46 507 119.5 c 128,-1,28
 561 193 561 193 563 311 c 1,29,30
 563 432 563 432 505.5 513.5 c 128,-1,31
 448 595 448 595 344 595 c 0,32,33
 294 595 294 595 214 579 c 1,34,-1
 214 353 l 1,35,-1
 335 347 l 1,36,37
 335 311 335 311 316 302 c 1,38,-1
 214 296 l 1,39,-1
 214 67 l 1,24,25
EndSplineSet
EndChar

StartChar: Ntilde
Encoding: 209 209 147
Width: 748
GlyphClass: 2
Flags: HW
LayerCount: 2
Fore
SplineSet
45 0 m 1,0,1
 45 34 45 34 61 39 c 2,2,-1
 124 62 l 1,3,-1
 124 574 l 1,4,-1
 45 595 l 1,5,6
 45 615 45 615 49 624 c 128,-1,7
 53 633 53 633 64 641 c 1,8,-1
 215 641 l 1,9,-1
 573 157 l 1,10,-1
 573 574 l 1,11,-1
 494 595 l 1,12,13
 494 615 494 615 498 624 c 128,-1,14
 502 633 502 633 513 641 c 1,15,-1
 718 641 l 1,16,17
 718 607 718 607 702 602 c 2,18,-1
 633 579 l 1,19,-1
 633 27 l 2,20,21
 633 12 633 12 624 4.5 c 128,-1,22
 615 -3 615 -3 602.5 -3 c 0,23,24
 590 -3 590 -3 580 3 c 1,25,-1
 184 535 l 1,26,-1
 184 67 l 1,27,-1
 274 46 l 1,28,29
 274 26 274 26 270 17 c 128,-1,30
 266 8 266 8 255 0 c 1,31,-1
 45 0 l 1,0,1
206 737 m 0,32,33
 206 765 206 765 239.5 794.5 c 128,-1,34
 273 824 273 824 320 824 c 0,35,36
 345 824 345 824 394.5 803.5 c 128,-1,37
 444 783 444 783 467 783 c 0,38,39
 508 783 508 783 537 833 c 1,40,41
 547 822 547 822 547 808 c 0,42,43
 547 782 547 782 510 752 c 128,-1,44
 473 722 473 722 427 722 c 0,45,46
 403 722 403 722 355 742 c 128,-1,47
 307 762 307 762 284 762 c 0,48,49
 244 762 244 762 216 714 c 1,50,51
 206 725 206 725 206 737 c 0,32,33
EndSplineSet
EndChar

StartChar: Ograve
Encoding: 210 210 148
Width: 739
GlyphClass: 2
Flags: HW
LayerCount: 2
Fore
SplineSet
67 181 m 128,-1,1
 48 235 48 235 48 299 c 128,-1,2
 48 363 48 363 70.5 426.5 c 128,-1,3
 93 490 93 490 134 541.5 c 128,-1,4
 175 593 175 593 238.5 624 c 128,-1,5
 302 655 302 655 378 655 c 0,6,7
 530 655 530 655 610.5 565.5 c 128,-1,8
 691 476 691 476 691 347 c 0,9,10
 691 209.524390244 691 209.524390244 605 101.5 c 0,11,12
 564 50 564 50 500.5 19 c 128,-1,13
 437 -12 437 -12 360 -12 c 128,-1,14
 283 -12 283 -12 221.5 14 c 128,-1,15
 160 40 160 40 123 83.5 c 128,-1,0
 86 127 86 127 67 181 c 128,-1,1
203 528 m 128,-1,17
 149 450 149 450 149 327 c 128,-1,18
 149 204 149 204 207.5 120.5 c 128,-1,19
 266 37 266 37 372.5 37 c 128,-1,20
 479 37 479 37 534 114.5 c 128,-1,21
 589 192 589 192 589 315.5 c 128,-1,22
 589 439 589 439 530.5 522.5 c 128,-1,23
 472 606 472 606 364.5 606 c 128,-1,16
 257 606 257 606 203 528 c 128,-1,17
219 816 m 0,24,25
 219 831 219 831 228 844.5 c 128,-1,26
 237 858 237 858 255 858 c 128,-1,27
 273 858 273 858 311 838 c 128,-1,28
 349 818 349 818 453 755 c 2,29,-1
 473 743 l 1,30,31
 474 741 474 741 474 732 c 128,-1,32
 474 723 474 723 460 715 c 1,33,34
 289 766 289 766 263 777 c 0,35,36
 219 796 219 796 219 816 c 0,24,25
EndSplineSet
EndChar

StartChar: Oacute
Encoding: 211 211 149
Width: 739
GlyphClass: 2
Flags: HW
LayerCount: 2
Fore
SplineSet
67 181 m 128,-1,1
 48 235 48 235 48 299 c 128,-1,2
 48 363 48 363 70.5 426.5 c 128,-1,3
 93 490 93 490 134 541.5 c 128,-1,4
 175 593 175 593 238.5 624 c 128,-1,5
 302 655 302 655 378 655 c 0,6,7
 530 655 530 655 610.5 565.5 c 128,-1,8
 691 476 691 476 691 347 c 0,9,10
 691 209.524390244 691 209.524390244 605 101.5 c 0,11,12
 564 50 564 50 500.5 19 c 128,-1,13
 437 -12 437 -12 360 -12 c 128,-1,14
 283 -12 283 -12 221.5 14 c 128,-1,15
 160 40 160 40 123 83.5 c 128,-1,0
 86 127 86 127 67 181 c 128,-1,1
203 528 m 128,-1,17
 149 450 149 450 149 327 c 128,-1,18
 149 204 149 204 207.5 120.5 c 128,-1,19
 266 37 266 37 372.5 37 c 128,-1,20
 479 37 479 37 534 114.5 c 128,-1,21
 589 192 589 192 589 315.5 c 128,-1,22
 589 439 589 439 530.5 522.5 c 128,-1,23
 472 606 472 606 364.5 606 c 128,-1,16
 257 606 257 606 203 528 c 128,-1,17
281 715 m 1,24,25
 267 723 267 723 267 732 c 128,-1,26
 267 741 267 741 268 743 c 1,27,28
 430 841 430 841 462 852 c 0,29,30
 477 858 477 858 490.5 858 c 128,-1,31
 504 858 504 858 513 844.5 c 128,-1,32
 522 831 522 831 522 816 c 0,33,34
 522 786 522 786 338 732 c 2,35,-1
 281 715 l 1,24,25
EndSplineSet
EndChar

StartChar: Ocircumflex
Encoding: 212 212 150
Width: 739
GlyphClass: 2
Flags: HW
LayerCount: 2
Fore
SplineSet
67 181 m 128,-1,1
 48 235 48 235 48 299 c 128,-1,2
 48 363 48 363 70.5 426.5 c 128,-1,3
 93 490 93 490 134 541.5 c 128,-1,4
 175 593 175 593 238.5 624 c 128,-1,5
 302 655 302 655 378 655 c 0,6,7
 530 655 530 655 610.5 565.5 c 128,-1,8
 691 476 691 476 691 347 c 0,9,10
 691 209.524390244 691 209.524390244 605 101.5 c 0,11,12
 564 50 564 50 500.5 19 c 128,-1,13
 437 -12 437 -12 360 -12 c 128,-1,14
 283 -12 283 -12 221.5 14 c 128,-1,15
 160 40 160 40 123 83.5 c 128,-1,0
 86 127 86 127 67 181 c 128,-1,1
203 528 m 128,-1,17
 149 450 149 450 149 327 c 128,-1,18
 149 204 149 204 207.5 120.5 c 128,-1,19
 266 37 266 37 372.5 37 c 128,-1,20
 479 37 479 37 534 114.5 c 128,-1,21
 589 192 589 192 589 315.5 c 128,-1,22
 589 439 589 439 530.5 522.5 c 128,-1,23
 472 606 472 606 364.5 606 c 128,-1,16
 257 606 257 606 203 528 c 128,-1,17
193 737 m 1,24,-1
 194 743 l 1,25,-1
 331 839 l 2,26,27
 358 858 358 858 376 858 c 128,-1,28
 394 858 394 858 419 839 c 1,29,-1
 556 743 l 1,30,31
 557 740 557 740 557 737 c 0,32,33
 557 723 557 723 543 715 c 1,34,-1
 375 787 l 1,35,-1
 207 715 l 1,36,37
 193 723 193 723 193 737 c 1,24,-1
EndSplineSet
EndChar

StartChar: Otilde
Encoding: 213 213 151
Width: 739
GlyphClass: 2
Flags: HW
LayerCount: 2
Fore
SplineSet
67 181 m 128,-1,1
 48 235 48 235 48 299 c 128,-1,2
 48 363 48 363 70.5 426.5 c 128,-1,3
 93 490 93 490 134 541.5 c 128,-1,4
 175 593 175 593 238.5 624 c 128,-1,5
 302 655 302 655 378 655 c 0,6,7
 530 655 530 655 610.5 565.5 c 128,-1,8
 691 476 691 476 691 347 c 0,9,10
 691 209.524390244 691 209.524390244 605 101.5 c 0,11,12
 564 50 564 50 500.5 19 c 128,-1,13
 437 -12 437 -12 360 -12 c 128,-1,14
 283 -12 283 -12 221.5 14 c 128,-1,15
 160 40 160 40 123 83.5 c 128,-1,0
 86 127 86 127 67 181 c 128,-1,1
203 528 m 128,-1,17
 149 450 149 450 149 327 c 128,-1,18
 149 204 149 204 207.5 120.5 c 128,-1,19
 266 37 266 37 372.5 37 c 128,-1,20
 479 37 479 37 534 114.5 c 128,-1,21
 589 192 589 192 589 315.5 c 128,-1,22
 589 439 589 439 530.5 522.5 c 128,-1,23
 472 606 472 606 364.5 606 c 128,-1,16
 257 606 257 606 203 528 c 128,-1,17
205 737 m 0,24,25
 205 765 205 765 238.5 794.5 c 128,-1,26
 272 824 272 824 319 824 c 0,27,28
 344 824 344 824 393.5 803.5 c 128,-1,29
 443 783 443 783 466 783 c 0,30,31
 507 783 507 783 536 833 c 1,32,33
 546 822 546 822 546 808 c 0,34,35
 546 782 546 782 509 752 c 128,-1,36
 472 722 472 722 426 722 c 0,37,38
 402 722 402 722 354 742 c 128,-1,39
 306 762 306 762 283 762 c 0,40,41
 243 762 243 762 215 714 c 1,42,43
 205 725 205 725 205 737 c 0,24,25
EndSplineSet
EndChar

StartChar: Odieresis
Encoding: 214 214 152
Width: 739
GlyphClass: 2
Flags: HW
LayerCount: 2
Fore
SplineSet
67 181 m 128,-1,1
 48 235 48 235 48 299 c 128,-1,2
 48 363 48 363 70.5 426.5 c 128,-1,3
 93 490 93 490 134 541.5 c 128,-1,4
 175 593 175 593 238.5 624 c 128,-1,5
 302 655 302 655 378 655 c 0,6,7
 530 655 530 655 610.5 565.5 c 128,-1,8
 691 476 691 476 691 347 c 0,9,10
 691 209.524390244 691 209.524390244 605 101.5 c 0,11,12
 564 50 564 50 500.5 19 c 128,-1,13
 437 -12 437 -12 360 -12 c 128,-1,14
 283 -12 283 -12 221.5 14 c 128,-1,15
 160 40 160 40 123 83.5 c 128,-1,0
 86 127 86 127 67 181 c 128,-1,1
203 528 m 128,-1,17
 149 450 149 450 149 327 c 128,-1,18
 149 204 149 204 207.5 120.5 c 128,-1,19
 266 37 266 37 372.5 37 c 128,-1,20
 479 37 479 37 534 114.5 c 128,-1,21
 589 192 589 192 589 315.5 c 128,-1,22
 589 439 589 439 530.5 522.5 c 128,-1,23
 472 606 472 606 364.5 606 c 128,-1,16
 257 606 257 606 203 528 c 128,-1,17
230 782 m 0,24,25
 230 800 230 800 244 814 c 128,-1,26
 258 828 258 828 278.5 828 c 128,-1,27
 299 828 299 828 311 815.5 c 128,-1,28
 323 803 323 803 323 783.5 c 128,-1,29
 323 764 323 764 308.5 750 c 128,-1,30
 294 736 294 736 276 736 c 0,31,32
 230 736 230 736 230 782 c 0,24,25
437 782 m 0,33,34
 437 800 437 800 451 814 c 128,-1,35
 465 828 465 828 485.5 828 c 128,-1,36
 506 828 506 828 518 815.5 c 128,-1,37
 530 803 530 803 530 783.5 c 128,-1,38
 530 764 530 764 515.5 750 c 128,-1,39
 501 736 501 736 483 736 c 0,40,41
 437 736 437 736 437 782 c 0,33,34
EndSplineSet
EndChar

StartChar: multiply
Encoding: 215 215 153
Width: 464
GlyphClass: 2
Flags: HW
LayerCount: 2
Fore
SplineSet
42 65 m 1,0,-1
 191 267 l 1,1,-1
 50 446 l 1,2,3
 60 487 60 487 101 487 c 1,4,-1
 231 321 l 1,5,-1
 353 487 l 1,6,7
 403 487 403 487 414 460 c 1,8,-1
 273 269 l 1,9,-1
 422 79 l 1,10,11
 412 38 412 38 371 38 c 1,12,-1
 233 214 l 1,13,-1
 103 38 l 1,14,15
 53 38 53 38 42 65 c 1,0,-1
EndSplineSet
EndChar

StartChar: Oslash
Encoding: 216 216 154
Width: 740
GlyphClass: 2
Flags: HW
LayerCount: 2
Fore
SplineSet
134 541.5 m 0,0,1
 175 593 175 593 238.5 624 c 128,-1,2
 302 655 302 655 388.5 655 c 128,-1,3
 475 655 475 655 545 616 c 1,4,-1
 629 734 l 1,5,6
 664.666666667 734 664.666666667 734 677.5 723 c 0,7,8
 681 720 681 720 688 712 c 1,9,-1
 595 581 l 1,10,11
 691 492 691 492 691 347 c 0,12,13
 691 209.524390244 691 209.524390244 605 101.5 c 0,14,15
 564 50 564 50 500.5 19 c 128,-1,16
 437 -12 437 -12 351.5 -12 c 128,-1,17
 266 -12 266 -12 199 24 c 1,18,-1
 110 -100 l 1,19,20
 67 -100 67 -100 51 -78 c 1,21,-1
 148 59 l 1,22,23
 48 146 48 146 48 289.737804878 c 128,-1,24
 48 433.475609756 48 433.475609756 134 541.5 c 0,0,1
203 528 m 128,-1,26
 149 450 149 450 149 330 c 128,-1,27
 149 210 149 210 200 131 c 1,28,-1
 502 555 l 1,29,30
 446 606 446 606 370 606 c 0,31,25
 257 606 257 606 203 528 c 128,-1,26
241 84 m 1,32,33
 294 37 294 37 368 37 c 0,34,35
 479 37 479 37 534 115 c 128,-1,36
 589 193 589 193 589 311 c 128,-1,37
 589 429 589 429 542 506 c 1,38,-1
 241 84 l 1,32,33
EndSplineSet
EndChar

StartChar: Ugrave
Encoding: 217 217 155
Width: 721
GlyphClass: 2
Flags: HW
LayerCount: 2
Fore
SplineSet
28 595 m 1,0,1
 28 615 28 615 32 624 c 128,-1,2
 36 633 36 633 47 641 c 1,3,-1
 287 641 l 1,4,5
 287 607 287 607 271 602 c 2,6,-1
 197 579 l 1,7,-1
 197 204 l 2,8,9
 197 41 197 41 366 41 c 0,10,11
 455 41 455 41 500 78.5 c 128,-1,12
 545 116 545 116 545 206 c 2,13,-1
 545 574 l 1,14,-1
 466 595 l 1,15,16
 466 615 466 615 470 624 c 128,-1,17
 474 633 474 633 485 641 c 1,18,-1
 696 641 l 1,19,20
 696 607 696 607 680 602 c 2,21,-1
 611 579 l 1,22,-1
 611 214 l 2,23,24
 611 112 611 112 549 50 c 128,-1,25
 487 -12 487 -12 361 -12 c 0,26,27
 235 -12 235 -12 171 47 c 128,-1,28
 107 106 107 106 107 211 c 2,29,-1
 107 574 l 1,30,-1
 28 595 l 1,0,1
196 816 m 0,31,32
 196 831 196 831 205 844.5 c 128,-1,33
 214 858 214 858 232 858 c 0,34,35
 250 858 250 858 288 838 c 128,-1,36
 326 818 326 818 430 755 c 2,37,-1
 450 743 l 1,38,39
 451 741 451 741 451 732 c 0,40,41
 451 723 451 723 437 715 c 1,42,43
 266 766 266 766 240 777 c 0,44,45
 196 796 196 796 196 816 c 0,31,32
EndSplineSet
EndChar

StartChar: Uacute
Encoding: 218 218 156
Width: 721
GlyphClass: 2
Flags: HW
LayerCount: 2
Fore
SplineSet
28 595 m 1,0,1
 28 615 28 615 32 624 c 128,-1,2
 36 633 36 633 47 641 c 1,3,-1
 287 641 l 1,4,5
 287 607 287 607 271 602 c 2,6,-1
 197 579 l 1,7,-1
 197 204 l 2,8,9
 197 41 197 41 366 41 c 0,10,11
 455 41 455 41 500 78.5 c 128,-1,12
 545 116 545 116 545 206 c 2,13,-1
 545 574 l 1,14,-1
 466 595 l 1,15,16
 466 615 466 615 470 624 c 128,-1,17
 474 633 474 633 485 641 c 1,18,-1
 696 641 l 1,19,20
 696 607 696 607 680 602 c 2,21,-1
 611 579 l 1,22,-1
 611 214 l 2,23,24
 611 112 611 112 549 50 c 128,-1,25
 487 -12 487 -12 361 -12 c 128,-1,26
 235 -12 235 -12 171 47 c 128,-1,27
 107 106 107 106 107 211 c 2,28,-1
 107 574 l 1,29,-1
 28 595 l 1,0,1
304 715 m 1,30,31
 290 723 290 723 290 732 c 128,-1,32
 290 741 290 741 291 743 c 1,33,34
 453 841 453 841 485 852 c 0,35,36
 500 858 500 858 513.5 858 c 128,-1,37
 527 858 527 858 536 844.5 c 128,-1,38
 545 831 545 831 545 816 c 0,39,40
 545 786 545 786 361 732 c 2,41,-1
 304 715 l 1,30,31
EndSplineSet
EndChar

StartChar: Ucircumflex
Encoding: 219 219 157
Width: 721
GlyphClass: 2
Flags: HW
LayerCount: 2
Fore
SplineSet
28 595 m 1,0,1
 28 615 28 615 32 624 c 128,-1,2
 36 633 36 633 47 641 c 1,3,-1
 287 641 l 1,4,5
 287 607 287 607 271 602 c 2,6,-1
 197 579 l 1,7,-1
 197 204 l 2,8,9
 197 41 197 41 366 41 c 0,10,11
 455 41 455 41 500 78.5 c 128,-1,12
 545 116 545 116 545 206 c 2,13,-1
 545 574 l 1,14,-1
 466 595 l 1,15,16
 466 615 466 615 470 624 c 128,-1,17
 474 633 474 633 485 641 c 1,18,-1
 696 641 l 1,19,20
 696 607 696 607 680 602 c 2,21,-1
 611 579 l 1,22,-1
 611 214 l 2,23,24
 611 112 611 112 549 50 c 128,-1,25
 487 -12 487 -12 361 -12 c 0,26,27
 235 -12 235 -12 171 47 c 128,-1,28
 107 106 107 106 107 211 c 2,29,-1
 107 574 l 1,30,-1
 28 595 l 1,0,1
191 737 m 1,31,-1
 192 743 l 1,32,-1
 329 839 l 2,33,34
 356 858 356 858 374 858 c 0,35,36
 392 858 392 858 417 839 c 1,37,-1
 554 743 l 1,38,39
 555 740 555 740 555 737 c 0,40,41
 555 723 555 723 541 715 c 1,42,-1
 373 787 l 1,43,-1
 205 715 l 1,44,45
 191 723 191 723 191 737 c 1,31,-1
EndSplineSet
EndChar

StartChar: Udieresis
Encoding: 220 220 158
Width: 721
GlyphClass: 2
Flags: HW
LayerCount: 2
Fore
SplineSet
28 595 m 1,0,1
 28 615 28 615 32 624 c 128,-1,2
 36 633 36 633 47 641 c 1,3,-1
 287 641 l 1,4,5
 287 607 287 607 271 602 c 2,6,-1
 197 579 l 1,7,-1
 197 204 l 2,8,9
 197 41 197 41 366 41 c 0,10,11
 455 41 455 41 500 78.5 c 128,-1,12
 545 116 545 116 545 206 c 2,13,-1
 545 574 l 1,14,-1
 466 595 l 1,15,16
 466 615 466 615 470 624 c 128,-1,17
 474 633 474 633 485 641 c 1,18,-1
 696 641 l 1,19,20
 696 607 696 607 680 602 c 2,21,-1
 611 579 l 1,22,-1
 611 214 l 2,23,24
 611 112 611 112 549 50 c 128,-1,25
 487 -12 487 -12 361 -12 c 0,26,27
 235 -12 235 -12 171 47 c 128,-1,28
 107 106 107 106 107 211 c 2,29,-1
 107 574 l 1,30,-1
 28 595 l 1,0,1
223 802 m 0,31,32
 223 820 223 820 237 834 c 128,-1,33
 251 848 251 848 271.5 848 c 0,34,35
 292 848 292 848 304 835.5 c 128,-1,36
 316 823 316 823 316 803.5 c 0,37,38
 316 784 316 784 301.5 770 c 128,-1,39
 287 756 287 756 269 756 c 0,40,41
 223 756 223 756 223 802 c 0,31,32
430 802 m 0,42,43
 430 820 430 820 444 834 c 128,-1,44
 458 848 458 848 478.5 848 c 0,45,46
 499 848 499 848 511 835.5 c 128,-1,47
 523 823 523 823 523 803.5 c 0,48,49
 523 784 523 784 508.5 770 c 128,-1,50
 494 756 494 756 476 756 c 0,51,52
 430 756 430 756 430 802 c 0,42,43
EndSplineSet
EndChar

StartChar: Yacute
Encoding: 221 221 159
Width: 612
GlyphClass: 2
Flags: HW
LayerCount: 2
Fore
SplineSet
-14 595 m 1,0,1
 -14 615 -14 615 -10 624 c 128,-1,2
 -6 633 -6 633 5 641 c 1,3,-1
 253 641 l 1,4,5
 253 607 253 607 237 602 c 2,6,-1
 163 579 l 1,7,-1
 325 322 l 1,8,-1
 460 574 l 1,9,-1
 381 595 l 1,10,11
 381 615 381 615 385 624 c 128,-1,12
 389 633 389 633 400 641 c 1,13,-1
 617 641 l 1,14,15
 617 607 617 607 601 602 c 2,16,-1
 527 579 l 1,17,-1
 352 260 l 1,18,-1
 352 67 l 1,19,-1
 442 46 l 1,20,21
 442 26 442 26 438 17 c 128,-1,22
 434 8 434 8 423 0 c 1,23,-1
 187 0 l 1,24,25
 187 34 187 34 203 39 c 2,26,-1
 266 62 l 1,27,-1
 266 260 l 1,28,-1
 65 574 l 1,29,-1
 -14 595 l 1,0,1
226 715 m 1,30,31
 212 723 212 723 212 732 c 128,-1,32
 212 741 212 741 213 743 c 1,33,34
 375 841 375 841 407 852 c 0,35,36
 422 858 422 858 435.5 858 c 128,-1,37
 449 858 449 858 458 844.5 c 128,-1,38
 467 831 467 831 467 816 c 0,39,40
 467 786 467 786 283 732 c 2,41,-1
 226 715 l 1,30,31
EndSplineSet
EndChar

StartChar: Thorn
Encoding: 222 222 160
Width: 555
GlyphClass: 2
Flags: HW
LayerCount: 2
Fore
SplineSet
45 0 m 1,0,1
 45 34 45 34 61 39 c 2,2,-1
 124 62 l 1,3,-1
 124 574 l 1,4,-1
 45 595 l 1,5,6
 45 615 45 615 49 624 c 128,-1,7
 53 633 53 633 64 641 c 1,8,-1
 300 641 l 1,9,10
 300 607 300 607 284 602 c 2,11,-1
 210 579 l 1,12,-1
 210 520 l 1,13,-1
 312 520 l 2,14,15
 418 520 418 520 474 470.5 c 128,-1,16
 530 421 530 421 530 345 c 0,17,18
 530 269 530 269 463 205.5 c 128,-1,19
 396 142 396 142 289 142 c 0,20,21
 246 142 246 142 210 151 c 1,22,-1
 210 67 l 1,23,-1
 300 46 l 1,24,25
 300 26 300 26 296 17 c 128,-1,26
 292 8 292 8 281 0 c 1,27,-1
 45 0 l 1,0,1
210 195 m 1,28,-1
 240 191 l 2,29,30
 269 187 269 187 285 187 c 0,31,32
 351 187 351 187 391.5 233 c 128,-1,33
 432 279 432 279 432 336.5 c 0,34,35
 432 394 432 394 397.5 432 c 128,-1,36
 363 470 363 470 299 470 c 0,37,38
 268 470 268 470 210 458 c 1,39,-1
 210 195 l 1,28,-1
EndSplineSet
EndChar

StartChar: germandbls
Encoding: 223 223 161
Width: 606
GlyphClass: 2
Flags: HW
LayerCount: 2
Fore
SplineSet
26 0 m 1,0,1
 26 33 26 33 42 39 c 2,2,-1
 98 62 l 1,3,-1
 98 397 l 1,4,-1
 35 401 l 1,5,6
 35 437 35 437 54 446 c 1,7,-1
 98 448 l 1,8,9
 98 516 98 516 122 579.5 c 128,-1,10
 146 643 146 643 200.5 688.5 c 128,-1,11
 255 734 255 734 340.5 734 c 128,-1,12
 426 734 426 734 471.5 688.5 c 128,-1,13
 517 643 517 643 517 575 c 0,14,15
 517 535 517 535 500 505.5 c 128,-1,16
 483 476 483 476 459.5 460 c 128,-1,17
 436 444 436 444 412 430.5 c 0,18,19
 354 397.875 354 397.875 354 365 c 0,20,21
 354 341 354 341 377.5 322.5 c 128,-1,22
 401 304 401 304 434 289 c 128,-1,23
 467 274 467 274 500.5 256 c 128,-1,24
 534 238 534 238 557.5 204.5 c 128,-1,25
 581 171 581 171 581 119.5 c 128,-1,26
 581 68 581 68 534.5 28 c 128,-1,27
 488 -12 488 -12 415 -12 c 128,-1,28
 342 -12 342 -12 291 19 c 128,-1,29
 240 50 240 50 240 102 c 0,30,31
 240 122 240 122 252.5 133 c 128,-1,32
 265 144 265 144 286.5 144 c 128,-1,33
 308 144 308 144 328 124 c 1,34,35
 328 68 328 68 350 48.5 c 128,-1,36
 372 29 372 29 410 29 c 128,-1,37
 448 29 448 29 471 52 c 128,-1,38
 494 75 494 75 494 109.5 c 128,-1,39
 494 144 494 144 470 166.5 c 128,-1,40
 446 189 446 189 412 205 c 128,-1,41
 378 221 378 221 344.5 238.5 c 128,-1,42
 311 256 311 256 287 285 c 128,-1,43
 263 314 263 314 263 354 c 128,-1,44
 263 394 263 394 280 421 c 128,-1,45
 297 448 297 448 322 462 c 2,46,-1
 371 490 l 2,47,48
 430 523.04 430 523.04 430 580 c 0,49,50
 430 621 430 621 400.5 651 c 128,-1,51
 371 681 371 681 311.5 681 c 128,-1,52
 252 681 252 681 216 641 c 128,-1,53
 180 601 180 601 180 498 c 2,54,-1
 180 0 l 1,55,-1
 26 0 l 1,0,1
EndSplineSet
EndChar

StartChar: agrave
Encoding: 224 224 162
Width: 467
GlyphClass: 2
Flags: HW
LayerCount: 2
Fore
SplineSet
34 89 m 0,0,1
 34 205 34 205 178 238 c 2,2,-1
 296 265 l 1,3,-1
 296 316 l 2,4,5
 296 419 296 419 224 419 c 0,6,7
 180 419 180 419 161 397 c 128,-1,8
 142 375 142 375 142 327 c 1,9,10
 125 315 125 315 105 315 c 128,-1,11
 85 315 85 315 72 328.5 c 128,-1,12
 59 342 59 342 59 361 c 0,13,14
 59 399 59 399 112 430.5 c 128,-1,15
 165 462 165 462 237 462 c 128,-1,16
 309 462 309 462 343.5 427 c 128,-1,17
 378 392 378 392 378 309 c 2,18,-1
 378 90 l 2,19,20
 378 51 378 51 405 51 c 0,21,22
 427 51 427 51 450 68 c 1,23,-1
 467 44 l 1,24,25
 418 -12 418 -12 367 -12 c 0,26,27
 296 -12 296 -12 296 87 c 1,28,29
 278 61 278 61 232.5 24.5 c 128,-1,30
 187 -12 187 -12 138.5 -12 c 128,-1,31
 90 -12 90 -12 62 17 c 128,-1,32
 34 46 34 46 34 89 c 0,0,1
128.5 168 m 128,-1,34
 110 145 110 145 110 118.5 c 128,-1,35
 110 92 110 92 126.5 73.5 c 128,-1,36
 143 55 143 55 172.5 55 c 128,-1,37
 202 55 202 55 237.5 76.5 c 128,-1,38
 273 98 273 98 296 123 c 1,39,-1
 296 227 l 1,40,-1
 183 200 l 2,41,33
 147 191 147 191 128.5 168 c 128,-1,34
119.5 654.5 m 0,42,43
 116 661 116 661 116 672 c 128,-1,44
 116 683 116 683 130 697 c 128,-1,45
 144 711 144 711 156.5 711 c 128,-1,46
 169 711 169 711 178 706.5 c 0,47,48
 195.444444444 697.777777778 195.444444444 697.777777778 232 656 c 1,49,-1
 342 536 l 1,50,51
 342 519 342 519 321 514 c 1,52,-1
 181 602 l 2,53,54
 129.875739645 635.230769231 129.875739645 635.230769231 119.5 654.5 c 0,42,43
EndSplineSet
EndChar

StartChar: aacute
Encoding: 225 225 163
Width: 467
GlyphClass: 2
Flags: HW
LayerCount: 2
Fore
SplineSet
34 89 m 0,0,1
 34 205 34 205 178 238 c 2,2,-1
 296 265 l 1,3,-1
 296 316 l 2,4,5
 296 419 296 419 224 419 c 0,6,7
 180 419 180 419 161 397 c 128,-1,8
 142 375 142 375 142 327 c 1,9,10
 125 315 125 315 105 315 c 128,-1,11
 85 315 85 315 72 328.5 c 128,-1,12
 59 342 59 342 59 361 c 0,13,14
 59 399 59 399 112 430.5 c 128,-1,15
 165 462 165 462 237 462 c 128,-1,16
 309 462 309 462 343.5 427 c 128,-1,17
 378 392 378 392 378 309 c 2,18,-1
 378 90 l 2,19,20
 378 51 378 51 405 51 c 0,21,22
 427 51 427 51 450 68 c 1,23,-1
 467 44 l 1,24,25
 418 -12 418 -12 367 -12 c 0,26,27
 296 -12 296 -12 296 87 c 1,28,29
 278 61 278 61 232.5 24.5 c 128,-1,30
 187 -12 187 -12 138.5 -12 c 128,-1,31
 90 -12 90 -12 62 17 c 128,-1,32
 34 46 34 46 34 89 c 0,0,1
128.5 168 m 128,-1,34
 110 145 110 145 110 118.5 c 128,-1,35
 110 92 110 92 126.5 73.5 c 128,-1,36
 143 55 143 55 172.5 55 c 128,-1,37
 202 55 202 55 237.5 76.5 c 128,-1,38
 273 98 273 98 296 123 c 1,39,-1
 296 227 l 1,40,-1
 183 200 l 2,41,33
 147 191 147 191 128.5 168 c 128,-1,34
132 540 m 1,42,-1
 238 657 l 1,43,44
 280.077922078 701.883116883 280.077922078 701.883116883 292.538961039 708.441558442 c 128,-1,45
 305 715 305 715 317.5 715 c 128,-1,46
 330 715 330 715 344 701 c 128,-1,47
 358 687 358 687 358 676 c 128,-1,48
 358 665 358 665 354.5 658 c 128,-1,49
 351 651 351 651 342 642.5 c 0,50,51
 328.41509434 629.669811321 328.41509434 629.669811321 292 606 c 2,52,-1
 153 518 l 1,53,54
 132 523 132 523 132 540 c 1,42,-1
EndSplineSet
EndChar

StartChar: acircumflex
Encoding: 226 226 164
Width: 467
GlyphClass: 2
Flags: HW
LayerCount: 2
Fore
SplineSet
34 89 m 0,0,1
 34 205 34 205 178 238 c 2,2,-1
 296 265 l 1,3,-1
 296 316 l 2,4,5
 296 419 296 419 224 419 c 0,6,7
 180 419 180 419 161 397 c 128,-1,8
 142 375 142 375 142 327 c 1,9,10
 125 315 125 315 105 315 c 128,-1,11
 85 315 85 315 72 328.5 c 128,-1,12
 59 342 59 342 59 361 c 0,13,14
 59 399 59 399 112 430.5 c 128,-1,15
 165 462 165 462 237 462 c 128,-1,16
 309 462 309 462 343.5 427 c 128,-1,17
 378 392 378 392 378 309 c 2,18,-1
 378 90 l 2,19,20
 378 51 378 51 405 51 c 0,21,22
 427 51 427 51 450 68 c 1,23,-1
 467 44 l 1,24,25
 418 -12 418 -12 367 -12 c 0,26,27
 296 -12 296 -12 296 87 c 1,28,29
 278 61 278 61 232.5 24.5 c 128,-1,30
 187 -12 187 -12 138.5 -12 c 128,-1,31
 90 -12 90 -12 62 17 c 128,-1,32
 34 46 34 46 34 89 c 0,0,1
90 540 m 1,33,-1
 201 688 l 2,34,35
 221 715 221 715 243.5 715 c 128,-1,36
 266 715 266 715 285 688 c 2,37,-1
 396 540 l 1,38,39
 396 530 396 530 388 524 c 128,-1,40
 380 518 380 518 375 518 c 1,41,-1
 243 627 l 1,42,-1
 111 518 l 1,43,44
 106 518 106 518 98 524 c 128,-1,45
 90 530 90 530 90 540 c 1,33,-1
128.5 168 m 128,-1,47
 110 145 110 145 110 118.5 c 128,-1,48
 110 92 110 92 126.5 73.5 c 128,-1,49
 143 55 143 55 172.5 55 c 128,-1,50
 202 55 202 55 237.5 76.5 c 128,-1,51
 273 98 273 98 296 123 c 1,52,-1
 296 227 l 1,53,-1
 183 200 l 2,54,46
 147 191 147 191 128.5 168 c 128,-1,47
EndSplineSet
EndChar

StartChar: atilde
Encoding: 227 227 165
Width: 467
GlyphClass: 2
Flags: HW
LayerCount: 2
Fore
SplineSet
34 89 m 0,0,1
 34 205 34 205 178 238 c 2,2,-1
 296 265 l 1,3,-1
 296 316 l 2,4,5
 296 419 296 419 224 419 c 0,6,7
 180 419 180 419 161 397 c 128,-1,8
 142 375 142 375 142 327 c 1,9,10
 125 315 125 315 105 315 c 128,-1,11
 85 315 85 315 72 328.5 c 128,-1,12
 59 342 59 342 59 361 c 0,13,14
 59 399 59 399 112 430.5 c 128,-1,15
 165 462 165 462 237 462 c 128,-1,16
 309 462 309 462 343.5 427 c 128,-1,17
 378 392 378 392 378 309 c 2,18,-1
 378 90 l 2,19,20
 378 51 378 51 405 51 c 0,21,22
 427 51 427 51 450 68 c 1,23,-1
 467 44 l 1,24,25
 418 -12 418 -12 367 -12 c 0,26,27
 296 -12 296 -12 296 87 c 1,28,29
 278 61 278 61 232.5 24.5 c 128,-1,30
 187 -12 187 -12 138.5 -12 c 128,-1,31
 90 -12 90 -12 62 17 c 128,-1,32
 34 46 34 46 34 89 c 0,0,1
60 559 m 0,33,34
 60 587 60 587 93.5 616.5 c 128,-1,35
 127 646 127 646 174 646 c 0,36,37
 199 646 199 646 248.5 625.5 c 128,-1,38
 298 605 298 605 321 605 c 0,39,40
 362 605 362 605 391 655 c 1,41,42
 401 644 401 644 401 630 c 0,43,44
 401 604 401 604 364 574 c 128,-1,45
 327 544 327 544 281 544 c 0,46,47
 257 544 257 544 209 564 c 128,-1,48
 161 584 161 584 138 584 c 0,49,50
 98 584 98 584 70 536 c 1,51,52
 60 547 60 547 60 559 c 0,33,34
128.5 168 m 128,-1,54
 110 145 110 145 110 118.5 c 128,-1,55
 110 92 110 92 126.5 73.5 c 128,-1,56
 143 55 143 55 172.5 55 c 128,-1,57
 202 55 202 55 237.5 76.5 c 128,-1,58
 273 98 273 98 296 123 c 1,59,-1
 296 227 l 1,60,-1
 183 200 l 2,61,53
 147 191 147 191 128.5 168 c 128,-1,54
EndSplineSet
EndChar

StartChar: adieresis
Encoding: 228 228 166
Width: 467
GlyphClass: 2
Flags: HW
LayerCount: 2
Fore
SplineSet
34 89 m 0,0,1
 34 205 34 205 178 238 c 2,2,-1
 296 265 l 1,3,-1
 296 316 l 2,4,5
 296 419 296 419 224 419 c 0,6,7
 180 419 180 419 161 397 c 128,-1,8
 142 375 142 375 142 327 c 1,9,10
 125 315 125 315 105 315 c 128,-1,11
 85 315 85 315 72 328.5 c 128,-1,12
 59 342 59 342 59 361 c 0,13,14
 59 399 59 399 112 430.5 c 128,-1,15
 165 462 165 462 237 462 c 128,-1,16
 309 462 309 462 343.5 427 c 128,-1,17
 378 392 378 392 378 309 c 2,18,-1
 378 90 l 2,19,20
 378 51 378 51 405 51 c 0,21,22
 427 51 427 51 450 68 c 1,23,-1
 467 44 l 1,24,25
 418 -12 418 -12 367 -12 c 0,26,27
 296 -12 296 -12 296 87 c 1,28,29
 278 61 278 61 232.5 24.5 c 128,-1,30
 187 -12 187 -12 138.5 -12 c 128,-1,31
 90 -12 90 -12 62 17 c 128,-1,32
 34 46 34 46 34 89 c 0,0,1
93 604 m 0,33,34
 93 622 93 622 107 636 c 128,-1,35
 121 650 121 650 141.5 650 c 128,-1,36
 162 650 162 650 174 637.5 c 128,-1,37
 186 625 186 625 186 605.5 c 128,-1,38
 186 586 186 586 171.5 572 c 128,-1,39
 157 558 157 558 139 558 c 0,40,41
 93 558 93 558 93 604 c 0,33,34
128.5 168 m 128,-1,43
 110 145 110 145 110 118.5 c 128,-1,44
 110 92 110 92 126.5 73.5 c 128,-1,45
 143 55 143 55 172.5 55 c 128,-1,46
 202 55 202 55 237.5 76.5 c 128,-1,47
 273 98 273 98 296 123 c 1,48,-1
 296 227 l 1,49,-1
 183 200 l 2,50,42
 147 191 147 191 128.5 168 c 128,-1,43
300 604 m 0,51,52
 300 622 300 622 314 636 c 128,-1,53
 328 650 328 650 348.5 650 c 128,-1,54
 369 650 369 650 381 637.5 c 128,-1,55
 393 625 393 625 393 605.5 c 128,-1,56
 393 586 393 586 378.5 572 c 128,-1,57
 364 558 364 558 346 558 c 0,58,59
 300 558 300 558 300 604 c 0,51,52
EndSplineSet
EndChar

StartChar: aring
Encoding: 229 229 167
Width: 467
GlyphClass: 2
Flags: HW
LayerCount: 2
Fore
SplineSet
34 89 m 0,0,1
 34 205 34 205 178 238 c 2,2,-1
 296 265 l 1,3,-1
 296 316 l 2,4,5
 296 419 296 419 224 419 c 0,6,7
 180 419 180 419 161 397 c 128,-1,8
 142 375 142 375 142 327 c 1,9,10
 125 315 125 315 105 315 c 128,-1,11
 85 315 85 315 72 328.5 c 128,-1,12
 59 342 59 342 59 361 c 0,13,14
 59 399 59 399 112 430.5 c 128,-1,15
 165 462 165 462 237 462 c 128,-1,16
 309 462 309 462 343.5 427 c 128,-1,17
 378 392 378 392 378 309 c 2,18,-1
 378 90 l 2,19,20
 378 51 378 51 405 51 c 0,21,22
 427 51 427 51 450 68 c 1,23,-1
 467 44 l 1,24,25
 418 -12 418 -12 367 -12 c 0,26,27
 296 -12 296 -12 296 87 c 1,28,29
 278 61 278 61 232.5 24.5 c 128,-1,30
 187 -12 187 -12 138.5 -12 c 128,-1,31
 90 -12 90 -12 62 17 c 128,-1,32
 34 46 34 46 34 89 c 0,0,1
128.5 168 m 128,-1,34
 110 145 110 145 110 118.5 c 128,-1,35
 110 92 110 92 126.5 73.5 c 128,-1,36
 143 55 143 55 172.5 55 c 128,-1,37
 202 55 202 55 237.5 76.5 c 128,-1,38
 273 98 273 98 296 123 c 1,39,-1
 296 227 l 1,40,-1
 183 200 l 2,41,33
 147 191 147 191 128.5 168 c 128,-1,34
124 627 m 128,-1,43
 124 664 124 664 156 689.5 c 128,-1,44
 188 715 188 715 238 715 c 128,-1,45
 288 715 288 715 313.5 691 c 128,-1,46
 339 667 339 667 339 632.5 c 128,-1,47
 339 598 339 598 307.5 568.5 c 128,-1,48
 276 539 276 539 224 539 c 128,-1,49
 172 539 172 539 148 564.5 c 128,-1,42
 124 590 124 590 124 627 c 128,-1,43
177 622 m 0,50,51
 177 596 177 596 193 579 c 128,-1,52
 209 562 209 562 233 562 c 128,-1,53
 257 562 257 562 271.5 579 c 128,-1,54
 286 596 286 596 286 625.5 c 128,-1,55
 286 655 286 655 270.5 674.5 c 128,-1,56
 255 694 255 694 228 694 c 0,57,58
 177 694 177 694 177 622 c 0,50,51
EndSplineSet
EndChar

StartChar: ae
Encoding: 230 230 168
Width: 725
GlyphClass: 2
Flags: HW
LayerCount: 2
Fore
SplineSet
34 89 m 0,0,1
 34 205 34 205 178 238 c 2,2,-1
 296 265 l 1,3,-1
 296 316 l 2,4,5
 296 419 296 419 224 419 c 0,6,7
 180 419 180 419 161 397 c 128,-1,8
 142 375 142 375 142 327 c 1,9,10
 125 315 125 315 105 315 c 128,-1,11
 85 315 85 315 72 328.5 c 128,-1,12
 59 342 59 342 59 361 c 0,13,14
 59 399 59 399 112 430.5 c 128,-1,15
 165 462 165 462 248 462 c 128,-1,16
 331 462 331 462 361 400 c 1,17,18
 423 462 423 462 509 462 c 0,19,20
 575.622222222 462 575.622222222 462 624.5 420.5 c 0,21,22
 682.010464758 371.670360111 682.010464758 371.670360111 686 246 c 1,23,-1
 385 246 l 1,24,25
 385 151 385 151 425.5 103 c 128,-1,26
 466 55 466 55 530 55 c 0,27,28
 565 55 565 55 604 72 c 128,-1,29
 643 89 643 89 666 112 c 1,30,-1
 683 88 l 1,31,32
 657 51 657 51 606.5 19.5 c 128,-1,33
 556 -12 556 -12 508 -12 c 0,34,35
 367 -12 367 -12 317 101 c 1,36,37
 227 -12 227 -12 141 -12 c 0,38,39
 90 -12 90 -12 62 17 c 128,-1,40
 34 46 34 46 34 89 c 0,0,1
128.5 168 m 128,-1,42
 110 145 110 145 110 118.5 c 128,-1,43
 110 92 110 92 126.5 73.5 c 128,-1,44
 143 55 143 55 171 55 c 0,45,46
 236 55 236 55 307 126 c 1,47,48
 293 167 293 167 293 226 c 1,49,-1
 183 200 l 2,50,41
 147 191 147 191 128.5 168 c 128,-1,42
386 288 m 1,51,-1
 591 291 l 1,52,53
 590 357 590 357 564.5 388 c 128,-1,54
 539 419 539 419 501 419 c 0,55,56
 399 419 399 419 386 288 c 1,51,-1
EndSplineSet
EndChar

StartChar: ccedilla
Encoding: 231 231 169
Width: 461
GlyphClass: 2
Flags: HW
LayerCount: 2
Fore
SplineSet
40 225 m 1,0,1
 40 324 40 324 102 393 c 128,-1,2
 164 462 164 462 260 462 c 0,3,4
 323 462 323 462 374 429.5 c 128,-1,5
 425 397 425 397 425 342 c 0,6,7
 425 320 425 320 413 308 c 128,-1,8
 401 296 401 296 379 296 c 128,-1,9
 357 296 357 296 337 316 c 1,10,11
 333 419 333 419 254 419 c 0,12,13
 133 419 133 419 133 238 c 0,14,15
 133 153 133 153 171 104 c 128,-1,16
 209 55 209 55 277 55 c 0,17,18
 310 55 310 55 344 69.5 c 0,19,20
 390.205128205 89.2051282051 390.205128205 89.2051282051 413 112 c 1,21,-1
 430 88 l 1,22,-1
 418 75 l 2,23,24
 337.692307692 -12 337.692307692 -12 254 -12 c 1,25,-1
 245 -53 l 1,26,27
 300 -53 300 -53 339 -78 c 128,-1,28
 378 -103 378 -103 378 -153 c 128,-1,29
 378 -203 378 -203 340 -236.5 c 128,-1,30
 302 -270 302 -270 241 -270 c 128,-1,31
 180 -270 180 -270 147.5 -245.5 c 128,-1,32
 115 -221 115 -221 115 -185.5 c 128,-1,33
 115 -150 115 -150 148 -150 c 0,34,35
 165 -150 165 -150 179 -164 c 1,36,37
 179 -238 179 -238 239 -238 c 0,38,39
 273 -238 273 -238 293 -220 c 128,-1,40
 313 -202 313 -202 313 -167 c 128,-1,41
 313 -132 313 -132 287.5 -113.5 c 128,-1,42
 262 -95 262 -95 217 -95 c 0,43,44
 212 -95 212 -95 190 -97 c 1,45,-1
 211 -9 l 1,46,47
 126.263981517 2.91849463264 126.263981517 2.91849463264 84.1319907584 66.9592473163 c 128,-1,48
 42 131 42 131 40 225 c 1,0,1
EndSplineSet
EndChar

StartChar: egrave
Encoding: 232 232 170
Width: 472
GlyphClass: 2
Flags: HW
LayerCount: 2
Fore
SplineSet
101.5 394 m 128,-1,1
 163 462 163 462 256 462 c 0,2,3
 322.622222222 462 322.622222222 462 371.5 420.5 c 0,4,5
 429.010464758 371.670360111 429.010464758 371.670360111 433 246 c 1,6,-1
 132 246 l 1,7,8
 132 151 132 151 172.5 103 c 128,-1,9
 213 55 213 55 279.5 55 c 128,-1,10
 346 55 346 55 413 112 c 1,11,-1
 430 88 l 1,12,13
 341 -12 341 -12 255 -12 c 0,14,15
 195 -12 195 -12 151.5 8.5 c 128,-1,16
 108 29 108 29 84.5 64.5 c 0,17,18
 40 131.723404255 40 131.723404255 40 228.861702128 c 128,-1,0
 40 326 40 326 101.5 394 c 128,-1,1
133 288 m 1,19,-1
 338 291 l 1,20,21
 337 357 337 357 311.5 388 c 128,-1,22
 286 419 286 419 248 419 c 0,23,24
 146 419 146 419 133 288 c 1,19,-1
142.5 658 m 0,25,26
 139 665 139 665 139 676 c 128,-1,27
 139 687 139 687 153 701 c 128,-1,28
 167 715 167 715 179.5 715 c 128,-1,29
 192 715 192 715 201 710.5 c 0,30,31
 218.444444444 701.777777778 218.444444444 701.777777778 255 660 c 1,32,-1
 365 540 l 1,33,34
 365 523 365 523 344 518 c 1,35,-1
 204 606 l 2,36,37
 151.407407407 640.185185185 151.407407407 640.185185185 142.5 658 c 0,25,26
EndSplineSet
EndChar

StartChar: eacute
Encoding: 233 233 171
Width: 472
GlyphClass: 2
Flags: HW
LayerCount: 2
Fore
SplineSet
101.5 394 m 128,-1,1
 163 462 163 462 256 462 c 0,2,3
 322.622222222 462 322.622222222 462 371.5 420.5 c 0,4,5
 429.010464758 371.670360111 429.010464758 371.670360111 433 246 c 1,6,-1
 132 246 l 1,7,8
 132 151 132 151 172.5 103 c 128,-1,9
 213 55 213 55 279.5 55 c 128,-1,10
 346 55 346 55 413 112 c 1,11,-1
 430 88 l 1,12,13
 341 -12 341 -12 255 -12 c 0,14,15
 195 -12 195 -12 151.5 8.5 c 128,-1,16
 108 29 108 29 84.5 64.5 c 0,17,18
 40 131.723404255 40 131.723404255 40 228.861702128 c 128,-1,0
 40 326 40 326 101.5 394 c 128,-1,1
133 288 m 1,19,-1
 338 291 l 1,20,21
 337 357 337 357 311.5 388 c 128,-1,22
 286 419 286 419 248 419 c 0,23,24
 146 419 146 419 133 288 c 1,19,-1
153 540 m 1,25,-1
 260 657 l 1,26,27
 297.731707317 700.12195122 297.731707317 700.12195122 311.865853659 707.56097561 c 128,-1,28
 326 715 326 715 338.5 715 c 128,-1,29
 351 715 351 715 365 701 c 128,-1,30
 379 687 379 687 379 676 c 128,-1,31
 379 665 379 665 375.5 658 c 128,-1,32
 372 651 372 651 363 642.5 c 0,33,34
 351.573033708 631.707865169 351.573033708 631.707865169 314 606 c 1,35,-1
 174 518 l 1,36,37
 153 523 153 523 153 540 c 1,25,-1
EndSplineSet
EndChar

StartChar: ecircumflex
Encoding: 234 234 172
Width: 472
GlyphClass: 2
Flags: HW
LayerCount: 2
Fore
SplineSet
101.5 394 m 128,-1,1
 163 462 163 462 256 462 c 0,2,3
 322.622222222 462 322.622222222 462 371.5 420.5 c 0,4,5
 429.010464758 371.670360111 429.010464758 371.670360111 433 246 c 1,6,-1
 132 246 l 1,7,8
 132 151 132 151 172.5 103 c 128,-1,9
 213 55 213 55 279.5 55 c 128,-1,10
 346 55 346 55 413 112 c 1,11,-1
 430 88 l 1,12,13
 341 -12 341 -12 255 -12 c 0,14,15
 195 -12 195 -12 151.5 8.5 c 128,-1,16
 108 29 108 29 84.5 64.5 c 0,17,18
 40 131.723404255 40 131.723404255 40 228.861702128 c 128,-1,0
 40 326 40 326 101.5 394 c 128,-1,1
108 540 m 1,19,-1
 219 688 l 2,20,21
 239 715 239 715 261.5 715 c 128,-1,22
 284 715 284 715 303 688 c 2,23,-1
 414 540 l 1,24,25
 414 530 414 530 406 524 c 128,-1,26
 398 518 398 518 393 518 c 1,27,-1
 261 627 l 1,28,-1
 129 518 l 1,29,30
 124 518 124 518 116 524 c 128,-1,31
 108 530 108 530 108 540 c 1,19,-1
133 288 m 1,32,-1
 338 291 l 1,33,34
 337 357 337 357 311.5 388 c 128,-1,35
 286 419 286 419 248 419 c 0,36,37
 146 419 146 419 133 288 c 1,32,-1
EndSplineSet
EndChar

StartChar: edieresis
Encoding: 235 235 173
Width: 472
GlyphClass: 2
Flags: HW
LayerCount: 2
Fore
SplineSet
101.5 394 m 128,-1,1
 163 462 163 462 256 462 c 0,2,3
 322.622222222 462 322.622222222 462 371.5 420.5 c 0,4,5
 429.010464758 371.670360111 429.010464758 371.670360111 433 246 c 1,6,-1
 132 246 l 1,7,8
 132 151 132 151 172.5 103 c 128,-1,9
 213 55 213 55 279.5 55 c 128,-1,10
 346 55 346 55 413 112 c 1,11,-1
 430 88 l 1,12,13
 341 -12 341 -12 255 -12 c 0,14,15
 195 -12 195 -12 151.5 8.5 c 128,-1,16
 108 29 108 29 84.5 64.5 c 0,17,18
 40 131.723404255 40 131.723404255 40 228.861702128 c 128,-1,0
 40 326 40 326 101.5 394 c 128,-1,1
115 604 m 0,19,20
 115 622 115 622 129 636 c 128,-1,21
 143 650 143 650 163.5 650 c 128,-1,22
 184 650 184 650 196 637.5 c 128,-1,23
 208 625 208 625 208 605.5 c 128,-1,24
 208 586 208 586 193.5 572 c 128,-1,25
 179 558 179 558 161 558 c 0,26,27
 115 558 115 558 115 604 c 0,19,20
133 288 m 1,28,-1
 338 291 l 1,29,30
 337 357 337 357 311.5 388 c 128,-1,31
 286 419 286 419 248 419 c 0,32,33
 146 419 146 419 133 288 c 1,28,-1
322 604 m 0,34,35
 322 622 322 622 336 636 c 128,-1,36
 350 650 350 650 370.5 650 c 128,-1,37
 391 650 391 650 403 637.5 c 128,-1,38
 415 625 415 625 415 605.5 c 128,-1,39
 415 586 415 586 400.5 572 c 128,-1,40
 386 558 386 558 368 558 c 0,41,42
 322 558 322 558 322 604 c 0,34,35
EndSplineSet
EndChar

StartChar: igrave
Encoding: 236 236 174
Width: 279
GlyphClass: 2
Flags: HW
LayerCount: 2
Fore
SplineSet
-12.5 658.5 m 0,0,1
 -16 665 -16 665 -16 676 c 128,-1,2
 -16 687 -16 687 -2 701 c 128,-1,3
 12 715 12 715 24.5 715 c 128,-1,4
 37 715 37 715 46 710.5 c 0,5,6
 63.4444444444 701.777777778 63.4444444444 701.777777778 100 660 c 1,7,-1
 210 540 l 1,8,9
 210 523 210 523 189 518 c 1,10,-1
 49 606 l 2,11,12
 -2.12426035503 639.230769231 -2.12426035503 639.230769231 -12.5 658.5 c 0,0,1
29 0 m 1,13,14
 29 33 29 33 45 39 c 2,15,-1
 101 62 l 1,16,-1
 101 381 l 1,17,-1
 45 404 l 2,18,19
 29 410 29 410 29 443 c 1,20,21
 97 451 97 451 130 451 c 0,22,23
 183 451 183 451 183 397 c 2,24,-1
 183 67 l 1,25,-1
 265 46 l 1,26,27
 265 26 265 26 261 17 c 128,-1,28
 257 8 257 8 246 0 c 1,29,-1
 29 0 l 1,13,14
EndSplineSet
EndChar

StartChar: iacute
Encoding: 237 237 175
Width: 279
GlyphClass: 2
Flags: HW
LayerCount: 2
Fore
SplineSet
29 0 m 1,0,1
 29 33 29 33 45 39 c 2,2,-1
 101 62 l 1,3,-1
 101 381 l 1,4,-1
 45 404 l 2,5,6
 29 410 29 410 29 443 c 1,7,8
 97 451 97 451 130 451 c 0,9,10
 183 451 183 451 183 397 c 2,11,-1
 183 67 l 1,12,-1
 265 46 l 1,13,14
 265 26 265 26 261 17 c 128,-1,15
 257 8 257 8 246 0 c 1,16,-1
 29 0 l 1,0,1
45 538 m 1,17,-1
 152 655 l 1,18,19
 189.731707317 698.12195122 189.731707317 698.12195122 203.865853659 705.56097561 c 128,-1,20
 218 713 218 713 230.5 713 c 128,-1,21
 243 713 243 713 257 699 c 128,-1,22
 271 685 271 685 271 674 c 128,-1,23
 271 663 271 663 267.5 656 c 128,-1,24
 264 649 264 649 255 640.5 c 0,25,26
 243.573033708 629.707865169 243.573033708 629.707865169 206 604 c 1,27,-1
 66 516 l 1,28,29
 45 521 45 521 45 538 c 1,17,-1
EndSplineSet
EndChar

StartChar: icircumflex
Encoding: 238 238 176
Width: 279
GlyphClass: 2
Flags: HW
LayerCount: 2
Fore
SplineSet
-32 540 m 1,0,-1
 79 688 l 2,1,2
 99 715 99 715 121.5 715 c 0,3,4
 144 715 144 715 163 688 c 2,5,-1
 274 540 l 1,6,7
 274 530 274 530 266 524 c 128,-1,8
 258 518 258 518 253 518 c 1,9,-1
 121 627 l 1,10,-1
 -11 518 l 1,11,12
 -16 518 -16 518 -24 524 c 128,-1,13
 -32 530 -32 530 -32 540 c 1,0,-1
29 0 m 1,14,15
 29 33 29 33 45 39 c 2,16,-1
 101 62 l 1,17,-1
 101 381 l 1,18,-1
 45 404 l 2,19,20
 29 410 29 410 29 443 c 1,21,22
 97 451 97 451 130 451 c 0,23,24
 183 451 183 451 183 397 c 2,25,-1
 183 67 l 1,26,-1
 265 46 l 1,27,28
 265 26 265 26 261 17 c 128,-1,29
 257 8 257 8 246 0 c 1,30,-1
 29 0 l 1,14,15
EndSplineSet
EndChar

StartChar: idieresis
Encoding: 239 239 177
Width: 279
GlyphClass: 2
Flags: HW
LayerCount: 2
Fore
SplineSet
-10 604 m 0,0,1
 -10 622 -10 622 4 636 c 128,-1,2
 18 650 18 650 38.5 650 c 0,3,4
 59 650 59 650 71 637.5 c 128,-1,5
 83 625 83 625 83 605.5 c 0,6,7
 83 586 83 586 68.5 572 c 128,-1,8
 54 558 54 558 36 558 c 0,9,10
 -10 558 -10 558 -10 604 c 0,0,1
29 0 m 1,11,12
 29 33 29 33 45 39 c 2,13,-1
 101 62 l 1,14,-1
 101 381 l 1,15,-1
 45 404 l 2,16,17
 29 410 29 410 29 443 c 1,18,19
 97 451 97 451 130 451 c 0,20,21
 183 451 183 451 183 397 c 2,22,-1
 183 67 l 1,23,-1
 265 46 l 1,24,25
 265 26 265 26 261 17 c 128,-1,26
 257 8 257 8 246 0 c 1,27,-1
 29 0 l 1,11,12
177 604 m 0,28,29
 177 622 177 622 191 636 c 128,-1,30
 205 650 205 650 225.5 650 c 0,31,32
 246 650 246 650 258 637.5 c 128,-1,33
 270 625 270 625 270 605.5 c 0,34,35
 270 586 270 586 255.5 572 c 128,-1,36
 241 558 241 558 223 558 c 0,37,38
 177 558 177 558 177 604 c 0,28,29
EndSplineSet
EndChar

StartChar: eth
Encoding: 240 240 178
Width: 568
GlyphClass: 2
Flags: HW
LayerCount: 2
Fore
SplineSet
101.5 49 m 128,-1,1
 41 110 41 110 41 198.5 c 128,-1,2
 41 287 41 287 95 353.5 c 128,-1,3
 149 420 149 420 246 420 c 0,4,5
 306 420 306 420 353.5 403 c 128,-1,6
 401 386 401 386 425 362 c 1,7,8
 423 422 423 422 379.5 489.5 c 128,-1,9
 336 557 336 557 260 613 c 1,10,-1
 102 517 l 1,11,12
 65 517 65 517 65 541 c 1,13,-1
 223 637 l 1,14,15
 155 682 155 682 60 710 c 1,16,17
 60 734 60 734 92.5 734 c 128,-1,18
 125 734 125 734 181 711 c 128,-1,19
 237 688 237 688 274 668 c 1,20,-1
 382 734 l 1,21,22
 419 734 419 734 419 710 c 1,23,-1
 312 645 l 1,24,25
 513 511 513 511 513 276 c 0,26,27
 513 164.034482759 513 164.034482759 456 80.5 c 0,28,29
 427 38 427 38 376.5 13 c 128,-1,30
 326 -12 326 -12 260 -12 c 0,31,0
 162 -12 162 -12 101.5 49 c 128,-1,1
166 312.5 m 128,-1,33
 131 260 131 260 131 195 c 128,-1,34
 131 130 131 130 168 83.5 c 128,-1,35
 205 37 205 37 268 37 c 0,36,37
 425 37 425 37 425 311 c 1,38,39
 404 332 404 332 363.5 348.5 c 128,-1,40
 323 365 323 365 262 365 c 128,-1,32
 201 365 201 365 166 312.5 c 128,-1,33
EndSplineSet
EndChar

StartChar: ntilde
Encoding: 241 241 179
Width: 574
GlyphClass: 2
Flags: HW
LayerCount: 2
Fore
SplineSet
29 0 m 1,0,1
 29 33 29 33 45 39 c 2,2,-1
 101 62 l 1,3,-1
 101 381 l 1,4,-1
 45 404 l 2,5,6
 29 410 29 410 29 443 c 1,7,8
 97 451 97 451 130 451 c 0,9,10
 183 451 183 451 183 397 c 2,11,-1
 183 363 l 1,12,13
 275 462 275 462 353 462 c 0,14,15
 418 462 418 462 450.5 425.5 c 128,-1,16
 483 389 483 389 483 299 c 2,17,-1
 483 67 l 1,18,-1
 565 46 l 1,19,20
 565 26 565 26 561 17 c 128,-1,21
 557 8 557 8 546 0 c 1,22,-1
 329 0 l 1,23,24
 329 33 329 33 345 39 c 2,25,-1
 401 62 l 1,26,-1
 401 299 l 2,27,28
 401 391 401 391 314 391 c 0,29,30
 252 391 252 391 183 322 c 1,31,-1
 183 67 l 1,32,-1
 265 46 l 1,33,34
 265 26 265 26 261 17 c 128,-1,35
 257 8 257 8 246 0 c 1,36,-1
 29 0 l 1,0,1
120 559 m 0,37,38
 120 587 120 587 153.5 616.5 c 128,-1,39
 187 646 187 646 234 646 c 0,40,41
 259 646 259 646 308.5 625.5 c 128,-1,42
 358 605 358 605 381 605 c 0,43,44
 422 605 422 605 451 655 c 1,45,46
 461 644 461 644 461 630 c 0,47,48
 461 604 461 604 424 574 c 128,-1,49
 387 544 387 544 341 544 c 0,50,51
 317 544 317 544 269 564 c 128,-1,52
 221 584 221 584 198 584 c 0,53,54
 158 584 158 584 130 536 c 1,55,56
 120 547 120 547 120 559 c 0,37,38
EndSplineSet
EndChar

StartChar: ograve
Encoding: 242 242 180
Width: 534
GlyphClass: 2
Flags: HW
LayerCount: 2
Fore
SplineSet
92.5 53 m 128,-1,1
 40 118 40 118 40 220 c 128,-1,2
 40 322 40 322 108.5 392 c 128,-1,3
 177 462 177 462 279 462 c 128,-1,4
 381 462 381 462 438.5 398.5 c 128,-1,5
 496 335 496 335 496 239 c 128,-1,6
 496 143 496 143 431.5 65.5 c 128,-1,7
 367 -12 367 -12 256 -12 c 128,-1,0
 145 -12 145 -12 92.5 53 c 128,-1,1
161 362.5 m 128,-1,9
 130 306 130 306 130 222.5 c 128,-1,10
 130 139 130 139 168 85 c 128,-1,11
 206 31 206 31 271.5 31 c 128,-1,12
 337 31 337 31 370.5 82.5 c 128,-1,13
 404 134 404 134 404 218.5 c 128,-1,14
 404 303 404 303 366.5 361 c 128,-1,15
 329 419 329 419 260.5 419 c 128,-1,8
 192 419 192 419 161 362.5 c 128,-1,9
159.5 658.5 m 0,16,17
 156 665 156 665 156 676 c 128,-1,18
 156 687 156 687 170 701 c 128,-1,19
 184 715 184 715 196.5 715 c 128,-1,20
 209 715 209 715 218 710.5 c 0,21,22
 235.444444444 701.777777778 235.444444444 701.777777778 272 660 c 1,23,-1
 382 540 l 1,24,25
 382 523 382 523 361 518 c 1,26,-1
 221 606 l 2,27,28
 169.875739645 639.230769231 169.875739645 639.230769231 159.5 658.5 c 0,16,17
EndSplineSet
EndChar

StartChar: oacute
Encoding: 243 243 181
Width: 534
GlyphClass: 2
Flags: HW
LayerCount: 2
Fore
SplineSet
92.5 53 m 128,-1,1
 40 118 40 118 40 220 c 128,-1,2
 40 322 40 322 108.5 392 c 128,-1,3
 177 462 177 462 279 462 c 128,-1,4
 381 462 381 462 438.5 398.5 c 128,-1,5
 496 335 496 335 496 239 c 128,-1,6
 496 143 496 143 431.5 65.5 c 128,-1,7
 367 -12 367 -12 256 -12 c 128,-1,0
 145 -12 145 -12 92.5 53 c 128,-1,1
161 362.5 m 128,-1,9
 130 306 130 306 130 222.5 c 128,-1,10
 130 139 130 139 168 85 c 128,-1,11
 206 31 206 31 271.5 31 c 128,-1,12
 337 31 337 31 370.5 82.5 c 128,-1,13
 404 134 404 134 404 218.5 c 128,-1,14
 404 303 404 303 366.5 361 c 128,-1,15
 329 419 329 419 260.5 419 c 128,-1,8
 192 419 192 419 161 362.5 c 128,-1,9
192 540 m 1,16,-1
 298 657 l 1,17,18
 340.077922078 701.883116883 340.077922078 701.883116883 352.538961039 708.441558442 c 128,-1,19
 365 715 365 715 377.5 715 c 128,-1,20
 390 715 390 715 404 701 c 128,-1,21
 418 687 418 687 418 676 c 128,-1,22
 418 665 418 665 414.5 658 c 128,-1,23
 411 651 411 651 402 642.5 c 0,24,25
 388.41509434 629.669811321 388.41509434 629.669811321 352 606 c 2,26,-1
 213 518 l 1,27,28
 192 523 192 523 192 540 c 1,16,-1
EndSplineSet
EndChar

StartChar: ocircumflex
Encoding: 244 244 182
Width: 534
GlyphClass: 2
Flags: HW
LayerCount: 2
Fore
SplineSet
92.5 53 m 128,-1,1
 40 118 40 118 40 220 c 128,-1,2
 40 322 40 322 108.5 392 c 128,-1,3
 177 462 177 462 279 462 c 128,-1,4
 381 462 381 462 438.5 398.5 c 128,-1,5
 496 335 496 335 496 239 c 128,-1,6
 496 143 496 143 431.5 65.5 c 128,-1,7
 367 -12 367 -12 256 -12 c 128,-1,0
 145 -12 145 -12 92.5 53 c 128,-1,1
122 540 m 1,8,-1
 233 688 l 2,9,10
 253 715 253 715 275.5 715 c 128,-1,11
 298 715 298 715 317 688 c 2,12,-1
 428 540 l 1,13,14
 428 530 428 530 420 524 c 128,-1,15
 412 518 412 518 407 518 c 1,16,-1
 275 627 l 1,17,-1
 143 518 l 1,18,19
 138 518 138 518 130 524 c 128,-1,20
 122 530 122 530 122 540 c 1,8,-1
161 362.5 m 128,-1,22
 130 306 130 306 130 222.5 c 128,-1,23
 130 139 130 139 168 85 c 128,-1,24
 206 31 206 31 271.5 31 c 128,-1,25
 337 31 337 31 370.5 82.5 c 128,-1,26
 404 134 404 134 404 218.5 c 128,-1,27
 404 303 404 303 366.5 361 c 128,-1,28
 329 419 329 419 260.5 419 c 128,-1,21
 192 419 192 419 161 362.5 c 128,-1,22
EndSplineSet
EndChar

StartChar: otilde
Encoding: 245 245 183
Width: 534
GlyphClass: 2
Flags: HW
LayerCount: 2
Fore
SplineSet
92.5 53 m 128,-1,1
 40 118 40 118 40 220 c 128,-1,2
 40 322 40 322 108.5 392 c 128,-1,3
 177 462 177 462 279 462 c 128,-1,4
 381 462 381 462 438.5 398.5 c 128,-1,5
 496 335 496 335 496 239 c 128,-1,6
 496 143 496 143 431.5 65.5 c 128,-1,7
 367 -12 367 -12 256 -12 c 128,-1,0
 145 -12 145 -12 92.5 53 c 128,-1,1
98 559 m 0,8,9
 98 587 98 587 131.5 616.5 c 128,-1,10
 165 646 165 646 212 646 c 0,11,12
 237 646 237 646 286.5 625.5 c 128,-1,13
 336 605 336 605 359 605 c 0,14,15
 400 605 400 605 429 655 c 1,16,17
 439 644 439 644 439 630 c 0,18,19
 439 604 439 604 402 574 c 128,-1,20
 365 544 365 544 319 544 c 0,21,22
 295 544 295 544 247 564 c 128,-1,23
 199 584 199 584 176 584 c 0,24,25
 136 584 136 584 108 536 c 1,26,27
 98 547 98 547 98 559 c 0,8,9
161 362.5 m 128,-1,29
 130 306 130 306 130 222.5 c 128,-1,30
 130 139 130 139 168 85 c 128,-1,31
 206 31 206 31 271.5 31 c 128,-1,32
 337 31 337 31 370.5 82.5 c 128,-1,33
 404 134 404 134 404 218.5 c 128,-1,34
 404 303 404 303 366.5 361 c 128,-1,35
 329 419 329 419 260.5 419 c 128,-1,28
 192 419 192 419 161 362.5 c 128,-1,29
EndSplineSet
EndChar

StartChar: odieresis
Encoding: 246 246 184
Width: 534
GlyphClass: 2
Flags: HW
LayerCount: 2
Fore
SplineSet
92.5 53 m 128,-1,1
 40 118 40 118 40 220 c 128,-1,2
 40 322 40 322 108.5 392 c 128,-1,3
 177 462 177 462 279 462 c 128,-1,4
 381 462 381 462 438.5 398.5 c 128,-1,5
 496 335 496 335 496 239 c 128,-1,6
 496 143 496 143 431.5 65.5 c 128,-1,7
 367 -12 367 -12 256 -12 c 128,-1,0
 145 -12 145 -12 92.5 53 c 128,-1,1
124 604 m 0,8,9
 124 622 124 622 138 636 c 128,-1,10
 152 650 152 650 172.5 650 c 128,-1,11
 193 650 193 650 205 637.5 c 128,-1,12
 217 625 217 625 217 605.5 c 128,-1,13
 217 586 217 586 202.5 572 c 128,-1,14
 188 558 188 558 170 558 c 0,15,16
 124 558 124 558 124 604 c 0,8,9
161 362.5 m 128,-1,18
 130 306 130 306 130 222.5 c 128,-1,19
 130 139 130 139 168 85 c 128,-1,20
 206 31 206 31 271.5 31 c 128,-1,21
 337 31 337 31 370.5 82.5 c 128,-1,22
 404 134 404 134 404 218.5 c 128,-1,23
 404 303 404 303 366.5 361 c 128,-1,24
 329 419 329 419 260.5 419 c 128,-1,17
 192 419 192 419 161 362.5 c 128,-1,18
331 604 m 0,25,26
 331 622 331 622 345 636 c 128,-1,27
 359 650 359 650 379.5 650 c 128,-1,28
 400 650 400 650 412 637.5 c 128,-1,29
 424 625 424 625 424 605.5 c 128,-1,30
 424 586 424 586 409.5 572 c 128,-1,31
 395 558 395 558 377 558 c 0,32,33
 331 558 331 558 331 604 c 0,25,26
EndSplineSet
EndChar

StartChar: divide
Encoding: 247 247 185
Width: 512
GlyphClass: 2
Flags: HW
LayerCount: 2
Fore
SplineSet
67 236 m 1,0,1
 53 247 53 247 53 268.5 c 128,-1,2
 53 290 53 290 56 298 c 1,3,-1
 445 298 l 1,4,5
 459 287 459 287 459 265.5 c 128,-1,6
 459 244 459 244 456 236 c 1,7,-1
 67 236 l 1,0,1
214 80.5 m 128,-1,9
 200 95 200 95 200 119 c 128,-1,10
 200 143 200 143 216 158.5 c 128,-1,11
 232 174 232 174 256 174 c 128,-1,12
 280 174 280 174 294.5 159.5 c 128,-1,13
 309 145 309 145 309 121 c 128,-1,14
 309 97 309 97 292.5 81.5 c 128,-1,15
 276 66 276 66 252 66 c 128,-1,8
 228 66 228 66 214 80.5 c 128,-1,9
214 376.5 m 128,-1,17
 200 391 200 391 200 415 c 128,-1,18
 200 439 200 439 216 454.5 c 128,-1,19
 232 470 232 470 256 470 c 128,-1,20
 280 470 280 470 294.5 455.5 c 128,-1,21
 309 441 309 441 309 417 c 128,-1,22
 309 393 309 393 292.5 377.5 c 128,-1,23
 276 362 276 362 252 362 c 128,-1,16
 228 362 228 362 214 376.5 c 128,-1,17
EndSplineSet
EndChar

StartChar: oslash
Encoding: 248 248 186
Width: 532
GlyphClass: 2
Flags: HW
LayerCount: 2
Fore
SplineSet
40 225 m 0,0,1
 40 321 40 321 107.5 390.5 c 128,-1,2
 175 460 175 460 271 460 c 0,3,4
 332 460 332 460 377 438 c 1,5,-1
 428 513 l 1,6,7
 468 513 468 513 484 493 c 1,8,-1
 425 407 l 1,9,10
 492 343 492 343 492 243 c 128,-1,11
 492 143 492 143 428 66.5 c 128,-1,12
 364 -10 364 -10 259 -10 c 0,13,14
 198 -10 198 -10 152 10 c 1,15,-1
 105 -59 l 1,16,17
 65 -59 65 -59 49 -39 c 1,18,-1
 105 42 l 1,19,20
 40 101 40 101 40 225 c 0,0,1
129 219 m 0,21,22
 129 160 129 160 152 111 c 1,23,-1
 341 386 l 1,24,25
 309 417 309 417 263 417 c 0,26,27
 129 417 129 417 129 219 c 0,21,22
188 62 m 1,28,29
 223 33 223 33 267 33 c 0,30,31
 335 33 335 33 368 84 c 128,-1,32
 401 135 401 135 401 209.5 c 0,33,34
 401 284 401 284 377 337 c 1,35,-1
 188 62 l 1,28,29
EndSplineSet
EndChar

StartChar: ugrave
Encoding: 249 249 187
Width: 563
GlyphClass: 2
Flags: HW
LayerCount: 2
Fore
SplineSet
15 443 m 1,0,1
 83 451 83 451 116 451 c 0,2,3
 169 451 169 451 169 397 c 2,4,-1
 169 156 l 2,5,6
 169 107 169 107 189 83.5 c 128,-1,7
 209 60 209 60 256 60 c 0,8,9
 315 60 315 60 383 128 c 1,10,-1
 383 381 l 1,11,-1
 327 404 l 2,12,13
 311 410 311 410 311 443 c 1,14,15
 402 451 402 451 412 451 c 0,16,17
 465 451 465 451 465 397 c 2,18,-1
 465 90 l 2,19,20
 465 51 465 51 492 51 c 0,21,22
 514 51 514 51 537 68 c 1,23,-1
 554 44 l 1,24,25
 505 -12 505 -12 454 -12 c 0,26,27
 383 -12 383 -12 383 87 c 1,28,29
 357 54 357 54 310 21 c 128,-1,30
 263 -12 263 -12 218 -12 c 0,31,32
 153 -12 153 -12 120 25 c 128,-1,33
 87 62 87 62 87 152 c 2,34,-1
 87 381 l 1,35,-1
 31 404 l 2,36,37
 15 410 15 410 15 443 c 1,0,1
157.5 658.5 m 0,38,39
 154 665 154 665 154 676 c 128,-1,40
 154 687 154 687 168 701 c 128,-1,41
 182 715 182 715 194.5 715 c 128,-1,42
 207 715 207 715 216 710.5 c 0,43,44
 233.444444444 701.777777778 233.444444444 701.777777778 270 660 c 1,45,-1
 380 540 l 1,46,47
 380 523 380 523 359 518 c 1,48,-1
 219 606 l 2,49,50
 167.875739645 639.230769231 167.875739645 639.230769231 157.5 658.5 c 0,38,39
EndSplineSet
EndChar

StartChar: uacute
Encoding: 250 250 188
Width: 563
GlyphClass: 2
Flags: HW
LayerCount: 2
Fore
SplineSet
15 443 m 1,0,1
 83 451 83 451 116 451 c 0,2,3
 169 451 169 451 169 397 c 2,4,-1
 169 156 l 2,5,6
 169 107 169 107 189 83.5 c 128,-1,7
 209 60 209 60 256 60 c 0,8,9
 315 60 315 60 383 128 c 1,10,-1
 383 381 l 1,11,-1
 327 404 l 2,12,13
 311 410 311 410 311 443 c 1,14,15
 402 451 402 451 412 451 c 0,16,17
 465 451 465 451 465 397 c 2,18,-1
 465 90 l 2,19,20
 465 51 465 51 492 51 c 0,21,22
 514 51 514 51 537 68 c 1,23,-1
 554 44 l 1,24,25
 505 -12 505 -12 454 -12 c 0,26,27
 383 -12 383 -12 383 87 c 1,28,29
 357 54 357 54 310 21 c 128,-1,30
 263 -12 263 -12 218 -12 c 0,31,32
 153 -12 153 -12 120 25 c 128,-1,33
 87 62 87 62 87 152 c 2,34,-1
 87 381 l 1,35,-1
 31 404 l 2,36,37
 15 410 15 410 15 443 c 1,0,1
199 540 m 1,38,-1
 306 657 l 1,39,40
 343.731707317 700.12195122 343.731707317 700.12195122 357.865853659 707.56097561 c 128,-1,41
 372 715 372 715 384.5 715 c 128,-1,42
 397 715 397 715 411 701 c 128,-1,43
 425 687 425 687 425 676 c 128,-1,44
 425 665 425 665 421.5 658 c 128,-1,45
 418 651 418 651 409 642.5 c 0,46,47
 397.573033708 631.707865169 397.573033708 631.707865169 360 606 c 1,48,-1
 220 518 l 1,49,50
 199 523 199 523 199 540 c 1,38,-1
EndSplineSet
EndChar

StartChar: ucircumflex
Encoding: 251 251 189
Width: 563
GlyphClass: 2
Flags: HW
LayerCount: 2
Fore
SplineSet
15 443 m 1,0,1
 83 451 83 451 116 451 c 0,2,3
 169 451 169 451 169 397 c 2,4,-1
 169 156 l 2,5,6
 169 107 169 107 189 83.5 c 128,-1,7
 209 60 209 60 256 60 c 0,8,9
 315 60 315 60 383 128 c 1,10,-1
 383 381 l 1,11,-1
 327 404 l 2,12,13
 311 410 311 410 311 443 c 1,14,15
 402 451 402 451 412 451 c 0,16,17
 465 451 465 451 465 397 c 2,18,-1
 465 90 l 2,19,20
 465 51 465 51 492 51 c 0,21,22
 514 51 514 51 537 68 c 1,23,-1
 554 44 l 1,24,25
 505 -12 505 -12 454 -12 c 0,26,27
 383 -12 383 -12 383 87 c 1,28,29
 357 54 357 54 310 21 c 128,-1,30
 263 -12 263 -12 218 -12 c 0,31,32
 153 -12 153 -12 120 25 c 128,-1,33
 87 62 87 62 87 152 c 2,34,-1
 87 381 l 1,35,-1
 31 404 l 2,36,37
 15 410 15 410 15 443 c 1,0,1
120 540 m 1,38,-1
 231 688 l 2,39,40
 251 715 251 715 273.5 715 c 0,41,42
 296 715 296 715 315 688 c 2,43,-1
 426 540 l 1,44,45
 426 530 426 530 418 524 c 128,-1,46
 410 518 410 518 405 518 c 1,47,-1
 273 627 l 1,48,-1
 141 518 l 1,49,50
 136 518 136 518 128 524 c 128,-1,51
 120 530 120 530 120 540 c 1,38,-1
EndSplineSet
EndChar

StartChar: udieresis
Encoding: 252 252 190
Width: 563
GlyphClass: 2
Flags: HW
LayerCount: 2
Fore
SplineSet
15 443 m 1,0,1
 83 451 83 451 116 451 c 0,2,3
 169 451 169 451 169 397 c 2,4,-1
 169 156 l 2,5,6
 169 107 169 107 189 83.5 c 128,-1,7
 209 60 209 60 256 60 c 0,8,9
 315 60 315 60 383 128 c 1,10,-1
 383 381 l 1,11,-1
 327 404 l 2,12,13
 311 410 311 410 311 443 c 1,14,15
 402 451 402 451 412 451 c 0,16,17
 465 451 465 451 465 397 c 2,18,-1
 465 90 l 2,19,20
 465 51 465 51 492 51 c 0,21,22
 514 51 514 51 537 68 c 1,23,-1
 554 44 l 1,24,25
 505 -12 505 -12 454 -12 c 0,26,27
 383 -12 383 -12 383 87 c 1,28,29
 357 54 357 54 310 21 c 128,-1,30
 263 -12 263 -12 218 -12 c 0,31,32
 153 -12 153 -12 120 25 c 128,-1,33
 87 62 87 62 87 152 c 2,34,-1
 87 381 l 1,35,-1
 31 404 l 2,36,37
 15 410 15 410 15 443 c 1,0,1
123 604 m 0,38,39
 123 622 123 622 137 636 c 128,-1,40
 151 650 151 650 171.5 650 c 0,41,42
 192 650 192 650 204 637.5 c 128,-1,43
 216 625 216 625 216 605.5 c 0,44,45
 216 586 216 586 201.5 572 c 128,-1,46
 187 558 187 558 169 558 c 0,47,48
 123 558 123 558 123 604 c 0,38,39
330 604 m 0,49,50
 330 622 330 622 344 636 c 128,-1,51
 358 650 358 650 378.5 650 c 0,52,53
 399 650 399 650 411 637.5 c 128,-1,54
 423 625 423 625 423 605.5 c 0,55,56
 423 586 423 586 408.5 572 c 128,-1,57
 394 558 394 558 376 558 c 0,58,59
 330 558 330 558 330 604 c 0,49,50
EndSplineSet
EndChar

StartChar: yacute
Encoding: 253 253 191
Width: 494
GlyphClass: 2
Flags: HW
LayerCount: 2
Fore
SplineSet
11.5 -257 m 128,-1,1
 -5 -244 -5 -244 -5 -225.5 c 128,-1,2
 -5 -207 -5 -207 7 -192 c 1,3,-1
 69 -192 l 2,4,5
 131 -192 131 -192 152.5 -165.5 c 128,-1,6
 174 -139 174 -139 228 -4 c 1,7,-1
 70 376 l 1,8,-1
 1 397 l 1,9,10
 1 417 1 417 5 426 c 128,-1,11
 9 435 9 435 20 443 c 1,12,-1
 220 443 l 1,13,14
 220 410 220 410 204 404 c 2,15,-1
 150 381 l 1,16,-1
 270 91 l 1,17,-1
 382 376 l 1,18,-1
 307 397 l 1,19,20
 307 417 307 417 311 426 c 128,-1,21
 315 435 315 435 326 443 c 1,22,-1
 498 443 l 1,23,24
 498 411 498 411 482 404 c 2,25,-1
 433 381 l 1,26,-1
 281 0 l 2,27,28
 239 -105 239 -105 177 -187.5 c 128,-1,29
 115 -270 115 -270 56 -270 c 0,30,0
 28 -270 28 -270 11.5 -257 c 128,-1,1
200 540 m 1,31,-1
 306 657 l 1,32,33
 348.077922078 701.883116883 348.077922078 701.883116883 360.538961039 708.441558442 c 128,-1,34
 373 715 373 715 385.5 715 c 128,-1,35
 398 715 398 715 412 701 c 128,-1,36
 426 687 426 687 426 676 c 128,-1,37
 426 665 426 665 422.5 658 c 128,-1,38
 419 651 419 651 410 642.5 c 0,39,40
 396.41509434 629.669811321 396.41509434 629.669811321 360 606 c 2,41,-1
 221 518 l 1,42,43
 200 523 200 523 200 540 c 1,31,-1
EndSplineSet
EndChar

StartChar: thorn
Encoding: 254 254 192
Width: 529
GlyphClass: 2
Flags: HW
LayerCount: 2
Fore
SplineSet
-1 -258 m 1,0,1
 -1 -225 -1 -225 15 -219 c 2,2,-1
 71 -196 l 1,3,-1
 71 664 l 1,4,-1
 15 687 l 2,5,6
 -1 693 -1 693 -1 726 c 1,7,8
 67 734 67 734 100 734 c 0,9,10
 153 734 153 734 153 680 c 2,11,-1
 153 363 l 1,12,13
 244 462 244 462 317 462 c 0,14,15
 407 462 407 462 448 399 c 128,-1,16
 489 336 489 336 489 235.5 c 0,17,18
 489 135 489 135 425 61.5 c 128,-1,19
 361 -12 361 -12 254 -12 c 0,20,21
 202 -12 202 -12 153 2 c 1,22,-1
 153 -191 l 1,23,-1
 235 -212 l 1,24,25
 235 -232 235 -232 231 -241 c 128,-1,26
 227 -250 227 -250 216 -258 c 1,27,-1
 -1 -258 l 1,0,1
153 71 m 1,28,29
 192 34 192 34 251 34 c 0,30,31
 326 34 326 34 361 86 c 128,-1,32
 396 138 396 138 396 228 c 0,33,34
 396 391 396 391 281 391 c 0,35,36
 222 391 222 391 153 322 c 1,37,-1
 153 71 l 1,28,29
EndSplineSet
EndChar

StartChar: ydieresis
Encoding: 255 255 193
Width: 494
GlyphClass: 2
Flags: HW
LayerCount: 2
Fore
SplineSet
11.5 -257 m 128,-1,1
 -5 -244 -5 -244 -5 -225.5 c 128,-1,2
 -5 -207 -5 -207 7 -192 c 1,3,-1
 69 -192 l 2,4,5
 131 -192 131 -192 152.5 -165.5 c 128,-1,6
 174 -139 174 -139 228 -4 c 1,7,-1
 70 376 l 1,8,-1
 1 397 l 1,9,10
 1 417 1 417 5 426 c 128,-1,11
 9 435 9 435 20 443 c 1,12,-1
 220 443 l 1,13,14
 220 410 220 410 204 404 c 2,15,-1
 150 381 l 1,16,-1
 270 91 l 1,17,-1
 382 376 l 1,18,-1
 307 397 l 1,19,20
 307 417 307 417 311 426 c 128,-1,21
 315 435 315 435 326 443 c 1,22,-1
 498 443 l 1,23,24
 498 411 498 411 482 404 c 2,25,-1
 433 381 l 1,26,-1
 281 0 l 2,27,28
 239 -105 239 -105 177 -187.5 c 128,-1,29
 115 -270 115 -270 56 -270 c 0,30,0
 28 -270 28 -270 11.5 -257 c 128,-1,1
118 604 m 0,31,32
 118 622 118 622 132 636 c 128,-1,33
 146 650 146 650 166.5 650 c 128,-1,34
 187 650 187 650 199 637.5 c 128,-1,35
 211 625 211 625 211 605.5 c 128,-1,36
 211 586 211 586 196.5 572 c 128,-1,37
 182 558 182 558 164 558 c 0,38,39
 118 558 118 558 118 604 c 0,31,32
325 604 m 0,40,41
 325 622 325 622 339 636 c 128,-1,42
 353 650 353 650 373.5 650 c 128,-1,43
 394 650 394 650 406 637.5 c 128,-1,44
 418 625 418 625 418 605.5 c 128,-1,45
 418 586 418 586 403.5 572 c 128,-1,46
 389 558 389 558 371 558 c 0,47,48
 325 558 325 558 325 604 c 0,40,41
EndSplineSet
EndChar

StartChar: dotlessi
Encoding: 305 305 194
Width: 279
GlyphClass: 2
Flags: HW
LayerCount: 2
Fore
SplineSet
29 0 m 1,0,1
 29 33 29 33 45 39 c 2,2,-1
 101 62 l 1,3,-1
 101 381 l 1,4,-1
 45 404 l 2,5,6
 29 410 29 410 29 443 c 1,7,8
 97 451 97 451 130 451 c 0,9,10
 183 451 183 451 183 397 c 2,11,-1
 183 67 l 1,12,-1
 265 46 l 1,13,14
 265 26 265 26 261 17 c 128,-1,15
 257 8 257 8 246 0 c 1,16,-1
 29 0 l 1,0,1
EndSplineSet
EndChar

StartChar: Lslash
Encoding: 321 321 195
Width: 549
GlyphClass: 2
Flags: HW
LayerCount: 2
Fore
SplineSet
48 0 m 1,0,1
 48 34 48 34 64 39 c 2,2,-1
 127 62 l 1,3,-1
 127 307 l 1,4,-1
 63 296 l 1,5,6
 48 308 48 308 48 331 c 2,7,-1
 48 334 l 1,8,-1
 127 348 l 1,9,-1
 127 574 l 1,10,-1
 48 595 l 1,11,12
 48 615 48 615 52 624 c 128,-1,13
 56 633 56 633 67 641 c 1,14,-1
 303 641 l 1,15,16
 303 607 303 607 287 602 c 2,17,-1
 213 579 l 1,18,-1
 213 363 l 1,19,-1
 328 384 l 1,20,21
 343 372 343 372 343 351 c 2,22,-1
 343 346 l 1,23,-1
 213 323 l 1,24,-1
 213 67 l 1,25,-1
 462 46 l 1,26,-1
 483 168 l 1,27,28
 503 168 503 168 512 164 c 128,-1,29
 521 160 521 160 529 149 c 1,30,-1
 529 0 l 1,31,-1
 48 0 l 1,0,1
EndSplineSet
EndChar

StartChar: lslash
Encoding: 322 322 196
Width: 296
GlyphClass: 2
Flags: HW
LayerCount: 2
Fore
SplineSet
31 0 m 1,0,1
 31 33 31 33 47 39 c 2,2,-1
 103 62 l 1,3,-1
 103 345 l 1,4,-1
 46 332 l 1,5,6
 31 344 31 344 31 367 c 2,7,-1
 31 370 l 1,8,-1
 103 386 l 1,9,-1
 103 664 l 1,10,-1
 47 687 l 2,11,12
 31 693 31 693 31 726 c 1,13,14
 122 734 122 734 132 734 c 0,15,16
 185 734 185 734 185 680 c 2,17,-1
 185 405 l 1,18,-1
 251 420 l 1,19,20
 266 408 266 408 266 387 c 2,21,-1
 266 382 l 1,22,-1
 185 364 l 1,23,-1
 185 67 l 1,24,-1
 267 46 l 1,25,26
 267 26 267 26 263 17 c 128,-1,27
 259 8 259 8 248 0 c 1,28,-1
 31 0 l 1,0,1
EndSplineSet
EndChar

StartChar: OE
Encoding: 338 338 197
Width: 955
GlyphClass: 2
Flags: HW
LayerCount: 2
Fore
SplineSet
67 181 m 128,-1,1
 48 235 48 235 48 299 c 128,-1,2
 48 363 48 363 70.5 426.5 c 128,-1,3
 93 490 93 490 134 541.5 c 128,-1,4
 175 593 175 593 238.5 624 c 128,-1,5
 302 655 302 655 367.5 655 c 128,-1,6
 433 655 433 655 483 641 c 1,7,-1
 884 641 l 1,8,-1
 884 488 l 1,9,10
 850 488 850 488 845 504 c 2,11,-1
 812 595 l 1,12,-1
 589 579 l 1,13,-1
 589 351 l 1,14,-1
 779 351 l 1,15,-1
 799 411 l 1,16,17
 816 411 816 411 822.5 408 c 128,-1,18
 829 405 829 405 838 395 c 1,19,-1
 838 255 l 1,20,21
 829 245 829 245 822.5 242 c 128,-1,22
 816 239 816 239 799 239 c 1,23,-1
 779 299 l 1,24,-1
 589 299 l 1,25,-1
 589 67 l 1,26,-1
 838 46 l 1,27,-1
 869 168 l 1,28,29
 889 168 889 168 898 164 c 128,-1,30
 907 160 907 160 915 149 c 1,31,-1
 915 0 l 1,32,-1
 450 0 l 1,33,34
 408 -12 408 -12 345.5 -12 c 128,-1,35
 283 -12 283 -12 221.5 14 c 128,-1,36
 160 40 160 40 123 83.5 c 128,-1,0
 86 127 86 127 67 181 c 128,-1,1
203 528 m 128,-1,38
 149 450 149 450 149 327 c 128,-1,39
 149 204 149 204 207.5 120.5 c 128,-1,40
 266 37 266 37 368 37 c 0,41,42
 447 37 447 37 503 82 c 1,43,-1
 503 555 l 1,44,45
 447 606 447 606 370 606 c 0,46,37
 257 606 257 606 203 528 c 128,-1,38
EndSplineSet
EndChar

StartChar: oe
Encoding: 339 339 198
Width: 836
GlyphClass: 2
Flags: HW
LayerCount: 2
Fore
SplineSet
92.5 53 m 128,-1,1
 40 118 40 118 40 220 c 128,-1,2
 40 322 40 322 108.5 392 c 128,-1,3
 177 462 177 462 273 462 c 0,4,5
 394 462 394 462 454 380 c 1,6,7
 517 462 517 462 620 462 c 0,8,9
 686.622222222 462 686.622222222 462 735.5 420.5 c 0,10,11
 793.010464758 371.670360111 793.010464758 371.670360111 797 246 c 1,12,-1
 496 246 l 1,13,14
 496 151 496 151 536.5 103 c 128,-1,15
 577 55 577 55 641 55 c 0,16,17
 676 55 676 55 715 72 c 128,-1,18
 754 89 754 89 777 112 c 1,19,-1
 794 88 l 1,20,21
 768 51 768 51 717.5 19.5 c 128,-1,22
 667 -12 667 -12 619 -12 c 0,23,24
 494 -12 494 -12 441 77 c 1,25,26
 372 -12 372 -12 258.5 -12 c 128,-1,0
 145 -12 145 -12 92.5 53 c 128,-1,1
161 362.5 m 128,-1,28
 130 306 130 306 130 222.5 c 128,-1,29
 130 139 130 139 168 85 c 128,-1,30
 206 31 206 31 271.5 31 c 128,-1,31
 337 31 337 31 370.5 82.5 c 128,-1,32
 404 134 404 134 404 218.5 c 128,-1,33
 404 303 404 303 366.5 361 c 128,-1,34
 329 419 329 419 260.5 419 c 128,-1,27
 192 419 192 419 161 362.5 c 128,-1,28
497 288 m 1,35,-1
 702 291 l 1,36,37
 701 357 701 357 675.5 388 c 128,-1,38
 650 419 650 419 612 419 c 0,39,40
 510 419 510 419 497 288 c 1,35,-1
EndSplineSet
EndChar

StartChar: Scaron
Encoding: 352 352 199
Width: 523
GlyphClass: 2
Flags: HW
LayerCount: 2
Fore
SplineSet
43 50 m 1,0,-1
 59 185 l 1,1,2
 73 199 73 199 107 199 c 0,3,4
 113 199 113 199 116 198 c 1,5,-1
 127 76 l 1,6,7
 143 62 143 62 177 48.5 c 128,-1,8
 211 35 211 35 262 35 c 128,-1,9
 313 35 313 35 349 67.5 c 128,-1,10
 385 100 385 100 385 151 c 128,-1,11
 385 202 385 202 352.5 231.5 c 128,-1,12
 320 261 320 261 274 278.5 c 128,-1,13
 228 296 228 296 182 316 c 128,-1,14
 136 336 136 336 103.5 376 c 128,-1,15
 71 416 71 416 71 484.5 c 128,-1,16
 71 553 71 553 120.5 604 c 128,-1,17
 170 655 170 655 258 655 c 0,18,19
 298 655 298 655 341.5 642.5 c 128,-1,20
 385 630 385 630 400 623 c 128,-1,21
 415 616 415 616 448 599 c 1,22,-1
 429 463 l 1,23,24
 385 466 385 466 382 484 c 2,25,-1
 368 570 l 1,26,27
 316 608 316 608 262 608 c 128,-1,28
 208 608 208 608 179 579.5 c 128,-1,29
 150 551 150 551 150 500 c 0,30,31
 150 441 150 441 215 408.5 c 0,32,33
 244 394 244 394 279 380.5 c 128,-1,34
 314 367 314 367 348.5 351 c 128,-1,35
 383 335 383 335 412 314.5 c 128,-1,36
 441 294 441 294 459 259 c 128,-1,37
 477 224 477 224 477 178 c 0,38,39
 477 99 477 99 420 43.5 c 128,-1,40
 363 -12 363 -12 259.5 -12 c 128,-1,41
 156 -12 156 -12 43 50 c 1,0,-1
76 836 m 0,42,43
 76 850 76 850 90 858 c 1,44,-1
 258 786 l 1,45,-1
 426 858 l 1,46,47
 440 850 440 850 440 836 c 1,48,-1
 439 830 l 1,49,-1
 302 734 l 2,50,51
 275 715 275 715 257.5 715 c 128,-1,52
 240 715 240 715 214 734 c 2,53,-1
 77 830 l 1,54,55
 76 833 76 833 76 836 c 0,42,43
EndSplineSet
EndChar

StartChar: scaron
Encoding: 353 353 200
Width: 414
GlyphClass: 2
Flags: HW
LayerCount: 2
Fore
SplineSet
34 102 m 0,0,1
 34 122 34 122 46.5 133 c 128,-1,2
 59 144 59 144 80.5 144 c 128,-1,3
 102 144 102 144 122 124 c 1,4,5
 123 69 123 69 145 49 c 128,-1,6
 167 29 167 29 205 29 c 128,-1,7
 243 29 243 29 265.5 52 c 128,-1,8
 288 75 288 75 287.5 110.5 c 128,-1,9
 287 146 287 146 263 166.5 c 128,-1,10
 239 187 239 187 204.5 199 c 128,-1,11
 170 211 170 211 136 225 c 128,-1,12
 102 239 102 239 78.5 268.5 c 128,-1,13
 55 298 55 298 55 345 c 128,-1,14
 55 392 55 392 95 427 c 128,-1,15
 135 462 135 462 204 462 c 128,-1,16
 273 462 273 462 318 437.5 c 128,-1,17
 363 413 363 413 363 377 c 0,18,19
 363 360 363 360 350.5 348 c 128,-1,20
 338 336 338 336 318 336 c 128,-1,21
 298 336 298 336 281 348 c 1,22,23
 277 421 277 421 208 421 c 0,24,25
 173 421 173 421 152 401.5 c 128,-1,26
 131 382 131 382 131 352 c 128,-1,27
 131 322 131 322 156 302 c 128,-1,28
 181 282 181 282 217 269 c 128,-1,29
 253 256 253 256 289 240.5 c 128,-1,30
 325 225 325 225 350 195.5 c 128,-1,31
 375 166 375 166 375 117 c 128,-1,32
 375 68 375 68 328.5 28 c 128,-1,33
 282 -12 282 -12 209 -12 c 128,-1,34
 136 -12 136 -12 85 19 c 128,-1,35
 34 50 34 50 34 102 c 0,0,1
227 518 m 2,36,-1
 221 518 l 1,37,38
 204 516 204 516 182 545 c 2,39,-1
 71 693 l 1,40,41
 71 703 71 703 79 709 c 128,-1,42
 87 715 87 715 92 715 c 1,43,-1
 224 606 l 1,44,-1
 356 715 l 1,45,46
 361 715 361 715 369 709 c 128,-1,47
 377 703 377 703 377 693 c 1,48,-1
 266 545 l 2,49,50
 246 518 246 518 227 518 c 2,36,-1
EndSplineSet
EndChar

StartChar: Ydieresis
Encoding: 376 376 201
Width: 612
GlyphClass: 2
Flags: HW
LayerCount: 2
Fore
SplineSet
-14 595 m 1,0,1
 -14 615 -14 615 -10 624 c 128,-1,2
 -6 633 -6 633 5 641 c 1,3,-1
 253 641 l 1,4,5
 253 607 253 607 237 602 c 2,6,-1
 163 579 l 1,7,-1
 325 322 l 1,8,-1
 460 574 l 1,9,-1
 381 595 l 1,10,11
 381 615 381 615 385 624 c 128,-1,12
 389 633 389 633 400 641 c 1,13,-1
 617 641 l 1,14,15
 617 607 617 607 601 602 c 2,16,-1
 527 579 l 1,17,-1
 352 260 l 1,18,-1
 352 67 l 1,19,-1
 442 46 l 1,20,21
 442 26 442 26 438 17 c 128,-1,22
 434 8 434 8 423 0 c 1,23,-1
 187 0 l 1,24,25
 187 34 187 34 203 39 c 2,26,-1
 266 62 l 1,27,-1
 266 260 l 1,28,-1
 65 574 l 1,29,-1
 -14 595 l 1,0,1
160 802 m 0,30,31
 160 820 160 820 174 834 c 128,-1,32
 188 848 188 848 208.5 848 c 0,33,34
 229 848 229 848 241 835.5 c 128,-1,35
 253 823 253 823 253 803.5 c 0,36,37
 253 784 253 784 238.5 770 c 128,-1,38
 224 756 224 756 206 756 c 0,39,40
 160 756 160 756 160 802 c 0,30,31
367 802 m 0,41,42
 367 820 367 820 381 834 c 128,-1,43
 395 848 395 848 415.5 848 c 0,44,45
 436 848 436 848 448 835.5 c 128,-1,46
 460 823 460 823 460 803.5 c 0,47,48
 460 784 460 784 445.5 770 c 128,-1,49
 431 756 431 756 413 756 c 0,50,51
 367 756 367 756 367 802 c 0,41,42
EndSplineSet
EndChar

StartChar: Zcaron
Encoding: 381 381 202
Width: 576
GlyphClass: 2
Flags: HW
LayerCount: 2
Fore
SplineSet
38 25 m 0,0,1
 38 36 38 36 45 46 c 2,2,-1
 395 579 l 1,3,-1
 129 595 l 1,4,-1
 96 494 l 2,5,6
 91 478 91 478 57 478 c 1,7,-1
 57 641 l 1,8,-1
 490 641 l 2,9,10
 515 641 515 641 515 617 c 0,11,12
 515 605 515 605 508 595 c 2,13,-1
 161 67 l 1,14,-1
 456 46 l 1,15,-1
 487 178 l 1,16,17
 507 178 507 178 516 174 c 128,-1,18
 525 170 525 170 533 159 c 1,19,-1
 533 0 l 1,20,-1
 64 0 l 2,21,22
 38 0 38 0 38 25 c 0,0,1
122 830 m 2,23,24
 121 831 121 831 121 840.5 c 128,-1,25
 121 850 121 850 135 858 c 1,26,-1
 303 786 l 1,27,-1
 471 858 l 1,28,29
 485 850 485 850 485 840.5 c 128,-1,30
 485 831 485 831 484 830 c 2,31,-1
 347 734 l 2,32,33
 320 715 320 715 302.5 715 c 128,-1,34
 285 715 285 715 259 734 c 2,35,-1
 122 830 l 2,23,24
EndSplineSet
EndChar

StartChar: zcaron
Encoding: 382 382 203
Width: 438
GlyphClass: 2
Flags: HW
LayerCount: 2
Fore
SplineSet
28 25 m 0,0,1
 28 36 28 36 35 46 c 2,2,-1
 282 385 l 1,3,-1
 116 397 l 1,4,-1
 101 326 l 2,5,6
 98 310 98 310 63 310 c 1,7,-1
 50 443 l 1,8,-1
 366 443 l 2,9,10
 378 443 378 443 384.5 436 c 128,-1,11
 391 429 391 429 391 418 c 0,12,13
 391 407 391 407 384 397 c 2,14,-1
 138 58 l 1,15,-1
 332 46 l 1,16,-1
 343 143 l 1,17,18
 375 143 375 143 391 124 c 1,19,-1
 404 0 l 1,20,-1
 54 0 l 2,21,22
 28 0 28 0 28 25 c 0,0,1
89 693 m 1,23,24
 89 703 89 703 97 709 c 128,-1,25
 105 715 105 715 110 715 c 1,26,-1
 242 606 l 1,27,-1
 374 715 l 1,28,29
 379 715 379 715 387 709 c 128,-1,30
 395 703 395 703 395 693 c 1,31,-1
 284 545 l 2,32,33
 265 518 265 518 243 518 c 0,34,35
 221 518 221 518 200 545 c 2,36,-1
 89 693 l 1,23,24
EndSplineSet
EndChar

StartChar: florin
Encoding: 402 402 204
Width: 320
GlyphClass: 2
Flags: HW
LayerCount: 2
Fore
SplineSet
-100 -146 m 128,-1,1
 -100 -124 -100 -124 -88 -108 c 1,2,-1
 -32 -108 l 2,3,4
 42 -108 42 -108 62 -100 c 0,5,6
 103 -83 103 -83 109 -3 c 0,7,8
 111 19 111 19 111 46 c 2,9,-1
 111 274 l 1,10,-1
 18 274 l 1,11,12
 18 299 18 299 28 313 c 1,13,-1
 111 313 l 1,14,-1
 111 448 l 2,15,16
 111 546 111 546 184 640 c 128,-1,17
 257 734 257 734 344 734 c 0,18,19
 373 734 373 734 388.5 718 c 128,-1,20
 404 702 404 702 404 680 c 128,-1,21
 404 658 404 658 392 642 c 1,22,-1
 336 642 l 2,23,24
 262 642 262 642 244 635 c 0,25,26
 204 620 204 620 196 548 c 0,27,28
 193 523 193 523 193 488 c 2,29,-1
 193 313 l 1,30,-1
 305 313 l 1,31,32
 305 284 305 284 295 274 c 1,33,-1
 193 274 l 1,34,-1
 193 86 l 2,35,36
 193 -15 193 -15 118.5 -107.5 c 128,-1,37
 44 -200 44 -200 -40 -200 c 0,38,39
 -69 -200 -69 -200 -84.5 -184 c 128,-1,0
 -100 -168 -100 -168 -100 -146 c 128,-1,1
EndSplineSet
EndChar

StartChar: circumflex
Encoding: 710 710 205
Width: 346
GlyphClass: 2
Flags: HW
LayerCount: 2
Fore
SplineSet
20 540 m 1,0,-1
 131 688 l 2,1,2
 151 715 151 715 173 715 c 1,3,4
 197 712 197 712 215 688 c 2,5,-1
 326 540 l 1,6,7
 326 530 326 530 318 524 c 128,-1,8
 310 518 310 518 305 518 c 1,9,-1
 173 627 l 1,10,-1
 41 518 l 1,11,12
 36 518 36 518 28 524 c 128,-1,13
 20 530 20 530 20 540 c 1,0,-1
EndSplineSet
EndChar

StartChar: caron
Encoding: 711 711 206
Width: 346
GlyphClass: 2
Flags: HW
LayerCount: 2
Fore
SplineSet
20 693 m 1,0,1
 20 703 20 703 28 709 c 128,-1,2
 36 715 36 715 41 715 c 1,3,-1
 173 606 l 1,4,-1
 305 715 l 1,5,6
 310 715 310 715 318 709 c 128,-1,7
 326 703 326 703 326 693 c 1,8,-1
 215 545 l 2,9,10
 196 518 196 518 174 518 c 0,11,12
 152 518 152 518 131 545 c 2,13,-1
 20 693 l 1,0,1
EndSplineSet
EndChar

StartChar: breve
Encoding: 728 728 207
Width: 342
GlyphClass: 2
Flags: HW
LayerCount: 2
Fore
SplineSet
20 673 m 0,0,1
 20 696 20 696 51 696 c 1,2,3
 53 674 53 674 88 643.5 c 128,-1,4
 123 613 123 613 171.5 613 c 0,5,6
 220 613 220 613 252.5 639 c 128,-1,7
 285 665 285 665 291 696 c 1,8,9
 322 696 322 696 322 673 c 0,10,11
 322 627 322 627 275.5 585 c 128,-1,12
 229 543 229 543 170.5 543 c 0,13,14
 112 543 112 543 66 585 c 128,-1,15
 20 627 20 627 20 673 c 0,0,1
EndSplineSet
EndChar

StartChar: dotaccent
Encoding: 729 729 208
Width: 171
GlyphClass: 2
Flags: HW
LayerCount: 2
Fore
SplineSet
40.5 552 m 128,-1,1
 25 568 25 568 25 594.5 c 128,-1,2
 25 621 25 621 43 638 c 128,-1,3
 61 655 61 655 87.5 655 c 128,-1,4
 114 655 114 655 130 639 c 128,-1,5
 146 623 146 623 146 597 c 128,-1,6
 146 571 146 571 127.5 553.5 c 128,-1,7
 109 536 109 536 82.5 536 c 128,-1,0
 56 536 56 536 40.5 552 c 128,-1,1
EndSplineSet
EndChar

StartChar: ring
Encoding: 730 730 209
Width: 255
GlyphClass: 2
Flags: HW
LayerCount: 2
Fore
SplineSet
20 627 m 128,-1,1
 20 664 20 664 52 689.5 c 128,-1,2
 84 715 84 715 134 715 c 128,-1,3
 184 715 184 715 209.5 691 c 128,-1,4
 235 667 235 667 235 632.5 c 0,5,6
 235 598 235 598 203.5 568.5 c 128,-1,7
 172 539 172 539 120 539 c 0,8,9
 68 539 68 539 44 564.5 c 128,-1,0
 20 590 20 590 20 627 c 128,-1,1
73 622 m 0,10,11
 73 596 73 596 89 579 c 128,-1,12
 105 562 105 562 129 562 c 0,13,14
 153 562 153 562 167.5 579 c 128,-1,15
 182 596 182 596 182 625.5 c 0,16,17
 182 655 182 655 166.5 674.5 c 128,-1,18
 151 694 151 694 124 694 c 0,19,20
 73 694 73 694 73 622 c 0,10,11
EndSplineSet
EndChar

StartChar: ogonek
Encoding: 731 731 210
Width: 315
GlyphClass: 2
Flags: HW
LayerCount: 2
Fore
SplineSet
61.5 -228.5 m 128,-1,1
 29 -193 29 -193 29 -139 c 128,-1,2
 29 -85 29 -85 74.5 -32.5 c 128,-1,3
 120 20 120 20 171 27 c 1,4,-1
 171 -2 l 1,5,6
 136 -16 136 -16 114.5 -53.5 c 128,-1,7
 93 -91 93 -91 93 -129 c 128,-1,8
 93 -167 93 -167 119.5 -187 c 128,-1,9
 146 -207 146 -207 176 -207 c 0,10,11
 225.375 -207 225.375 -207 266 -182 c 1,12,-1
 278 -174 l 1,13,-1
 294 -197 l 1,14,15
 274.666666667 -221.166666667 274.666666667 -221.166666667 231.833333333 -242.583333333 c 128,-1,16
 189 -264 189 -264 161 -264 c 0,17,0
 94 -264 94 -264 61.5 -228.5 c 128,-1,1
EndSplineSet
EndChar

StartChar: tilde
Encoding: 732 732 211
Width: 580
GlyphClass: 2
Flags: HW
LayerCount: 2
Fore
SplineSet
104 559 m 0,0,1
 104 587 104 587 137.5 616.5 c 128,-1,2
 171 646 171 646 218 646 c 0,3,4
 243 646 243 646 292.5 625.5 c 128,-1,5
 342 605 342 605 365 605 c 0,6,7
 406 605 406 605 435 655 c 1,8,9
 445 644 445 644 445 630 c 0,10,11
 445 604 445 604 408 574 c 128,-1,12
 371 544 371 544 325 544 c 0,13,14
 301 544 301 544 253 564 c 128,-1,15
 205 584 205 584 182 584 c 0,16,17
 142 584 142 584 114 536 c 1,18,19
 104 547 104 547 104 559 c 0,0,1
EndSplineSet
EndChar

StartChar: hungarumlaut
Encoding: 733 733 212
Width: 435
GlyphClass: 2
Flags: HW
LayerCount: 2
Fore
SplineSet
20 540 m 1,0,-1
 126 657 l 1,1,2
 168.077922078 701.883116883 168.077922078 701.883116883 180.538961039 708.441558442 c 128,-1,3
 193 715 193 715 205.5 715 c 128,-1,4
 218 715 218 715 232 701 c 128,-1,5
 246 687 246 687 246 676 c 128,-1,6
 246 665 246 665 242.5 658 c 128,-1,7
 239 651 239 651 230 642.5 c 0,8,9
 216.41509434 629.669811321 216.41509434 629.669811321 180 606 c 2,10,-1
 41 518 l 1,11,12
 20 523 20 523 20 540 c 1,0,-1
189 540 m 1,13,-1
 296 657 l 1,14,15
 333.731707317 700.12195122 333.731707317 700.12195122 347.865853659 707.56097561 c 128,-1,16
 362 715 362 715 374.5 715 c 128,-1,17
 387 715 387 715 401 701 c 128,-1,18
 415 687 415 687 415 676 c 128,-1,19
 415 665 415 665 411.5 658 c 128,-1,20
 408 651 408 651 399 642.5 c 0,21,22
 387.573033708 631.707865169 387.573033708 631.707865169 350 606 c 1,23,-1
 210 518 l 1,24,25
 189 523 189 523 189 540 c 1,13,-1
EndSplineSet
EndChar

StartChar: pi
Encoding: 960 960 213
Width: 594
GlyphClass: 2
Flags: HW
LayerCount: 2
Fore
SplineSet
30 0 m 1,0,1
 30 33 30 33 46 39 c 2,2,-1
 102 62 l 1,3,-1
 102 376 l 1,4,-1
 30 397 l 1,5,6
 30 417 30 417 34 426 c 128,-1,7
 38 435 38 435 49 443 c 1,8,-1
 566 443 l 1,9,10
 566 409 566 409 550 404 c 2,11,-1
 484 380 l 1,12,-1
 484 90 l 2,13,14
 484 51 484 51 511 51 c 0,15,16
 533 51 533 51 556 68 c 1,17,-1
 573 44 l 1,18,19
 524 -12 524 -12 473 -12 c 0,20,21
 402 -12 402 -12 402 87 c 2,22,-1
 402 381 l 1,23,-1
 184 381 l 1,24,-1
 184 67 l 1,25,-1
 266 46 l 1,26,27
 266 26 266 26 262 17 c 128,-1,28
 258 8 258 8 247 0 c 1,29,-1
 30 0 l 1,0,1
EndSplineSet
EndChar

StartChar: uni2010
Encoding: 8208 8208 225
Width: 360
GlyphClass: 2
Flags: HW
LayerCount: 2
Fore
SplineSet
249 220 m 2,0,-1
 138 222 l 2,1,2
 95 222 95 222 62 218 c 1,3,4
 59 223 59 223 59 237 c 2,5,-1
 59 248 l 2,6,7
 59 302 59 302 112 302 c 2,8,-1
 223 300 l 2,9,10
 266 300 266 300 299 304 c 1,11,12
 302 289 302 289 302 285 c 2,13,-1
 302 274 l 2,14,15
 302 220 302 220 249 220 c 2,0,-1
EndSplineSet
EndChar

StartChar: uni2011
Encoding: 8209 8209 226
Width: 360
GlyphClass: 2
Flags: HW
LayerCount: 2
Fore
SplineSet
249 220 m 2,0,-1
 138 222 l 2,1,2
 95 222 95 222 62 218 c 1,3,4
 59 223 59 223 59 237 c 2,5,-1
 59 248 l 2,6,7
 59 302 59 302 112 302 c 2,8,-1
 223 300 l 2,9,10
 266 300 266 300 299 304 c 1,11,12
 302 289 302 289 302 285 c 2,13,-1
 302 274 l 2,14,15
 302 220 302 220 249 220 c 2,0,-1
EndSplineSet
EndChar

StartChar: figuredash
Encoding: 8210 8210 227
Width: 360
GlyphClass: 2
Flags: HW
LayerCount: 2
Fore
SplineSet
249 220 m 2,0,-1
 138 222 l 2,1,2
 95 222 95 222 62 218 c 1,3,4
 59 223 59 223 59 237 c 2,5,-1
 59 248 l 2,6,7
 59 302 59 302 112 302 c 2,8,-1
 223 300 l 2,9,10
 266 300 266 300 299 304 c 1,11,12
 302 289 302 289 302 285 c 2,13,-1
 302 274 l 2,14,15
 302 220 302 220 249 220 c 2,0,-1
EndSplineSet
EndChar

StartChar: endash
Encoding: 8211 8211 228
Width: 686
GlyphClass: 2
Flags: HW
LayerCount: 2
Fore
SplineSet
77 235 m 1,0,1
 63 246 63 246 63 269 c 128,-1,2
 63 292 63 292 66 299 c 1,3,-1
 605 299 l 1,4,5
 619 288 619 288 619 265 c 128,-1,6
 619 242 619 242 616 235 c 1,7,-1
 77 235 l 1,0,1
EndSplineSet
EndChar

